%TF.GenerationSoftware,KiCad,Pcbnew,7.0.1*%
%TF.CreationDate,2024-06-10T22:25:48+03:00*%
%TF.ProjectId,PedalPower,50656461-6c50-46f7-9765-722e6b696361,rev?*%
%TF.SameCoordinates,Original*%
%TF.FileFunction,Copper,L1,Top*%
%TF.FilePolarity,Positive*%
%FSLAX46Y46*%
G04 Gerber Fmt 4.6, Leading zero omitted, Abs format (unit mm)*
G04 Created by KiCad (PCBNEW 7.0.1) date 2024-06-10 22:25:48*
%MOMM*%
%LPD*%
G01*
G04 APERTURE LIST*
G04 Aperture macros list*
%AMRoundRect*
0 Rectangle with rounded corners*
0 $1 Rounding radius*
0 $2 $3 $4 $5 $6 $7 $8 $9 X,Y pos of 4 corners*
0 Add a 4 corners polygon primitive as box body*
4,1,4,$2,$3,$4,$5,$6,$7,$8,$9,$2,$3,0*
0 Add four circle primitives for the rounded corners*
1,1,$1+$1,$2,$3*
1,1,$1+$1,$4,$5*
1,1,$1+$1,$6,$7*
1,1,$1+$1,$8,$9*
0 Add four rect primitives between the rounded corners*
20,1,$1+$1,$2,$3,$4,$5,0*
20,1,$1+$1,$4,$5,$6,$7,0*
20,1,$1+$1,$6,$7,$8,$9,0*
20,1,$1+$1,$8,$9,$2,$3,0*%
G04 Aperture macros list end*
%TA.AperFunction,ComponentPad*%
%ADD10R,4.000000X4.000000*%
%TD*%
%TA.AperFunction,SMDPad,CuDef*%
%ADD11RoundRect,0.150000X-0.512500X-0.150000X0.512500X-0.150000X0.512500X0.150000X-0.512500X0.150000X0*%
%TD*%
%TA.AperFunction,ComponentPad*%
%ADD12R,4.400000X1.800000*%
%TD*%
%TA.AperFunction,ComponentPad*%
%ADD13O,4.000000X1.800000*%
%TD*%
%TA.AperFunction,ComponentPad*%
%ADD14O,1.800000X4.000000*%
%TD*%
%TA.AperFunction,SMDPad,CuDef*%
%ADD15RoundRect,0.250000X-0.350000X-0.450000X0.350000X-0.450000X0.350000X0.450000X-0.350000X0.450000X0*%
%TD*%
%TA.AperFunction,SMDPad,CuDef*%
%ADD16RoundRect,0.250000X-0.400000X-0.625000X0.400000X-0.625000X0.400000X0.625000X-0.400000X0.625000X0*%
%TD*%
%TA.AperFunction,SMDPad,CuDef*%
%ADD17R,1.100000X0.510000*%
%TD*%
%TA.AperFunction,SMDPad,CuDef*%
%ADD18RoundRect,0.210000X0.840000X1.440000X-0.840000X1.440000X-0.840000X-1.440000X0.840000X-1.440000X0*%
%TD*%
%TA.AperFunction,ComponentPad*%
%ADD19R,1.600000X1.600000*%
%TD*%
%TA.AperFunction,ComponentPad*%
%ADD20O,1.600000X1.600000*%
%TD*%
%TA.AperFunction,SMDPad,CuDef*%
%ADD21R,1.450000X0.600000*%
%TD*%
%TA.AperFunction,SMDPad,CuDef*%
%ADD22R,1.450000X0.300000*%
%TD*%
%TA.AperFunction,ComponentPad*%
%ADD23O,2.100000X1.000000*%
%TD*%
%TA.AperFunction,ComponentPad*%
%ADD24O,1.600000X1.000000*%
%TD*%
%TA.AperFunction,SMDPad,CuDef*%
%ADD25RoundRect,0.237500X0.287500X0.237500X-0.287500X0.237500X-0.287500X-0.237500X0.287500X-0.237500X0*%
%TD*%
%TA.AperFunction,SMDPad,CuDef*%
%ADD26RoundRect,0.250000X-0.450000X0.350000X-0.450000X-0.350000X0.450000X-0.350000X0.450000X0.350000X0*%
%TD*%
%TA.AperFunction,SMDPad,CuDef*%
%ADD27RoundRect,0.250000X0.337500X0.475000X-0.337500X0.475000X-0.337500X-0.475000X0.337500X-0.475000X0*%
%TD*%
%TA.AperFunction,SMDPad,CuDef*%
%ADD28RoundRect,0.150000X-0.587500X-0.150000X0.587500X-0.150000X0.587500X0.150000X-0.587500X0.150000X0*%
%TD*%
%TA.AperFunction,ViaPad*%
%ADD29C,0.800000*%
%TD*%
%TA.AperFunction,Conductor*%
%ADD30C,0.250000*%
%TD*%
G04 APERTURE END LIST*
D10*
%TO.P,TP2,1,1*%
%TO.N,GND*%
X52000000Y-3000000D03*
%TD*%
D11*
%TO.P,U1,1,I/O1*%
%TO.N,Net-(J1-D--PadA7)*%
X-6837500Y950000D03*
%TO.P,U1,2,GND*%
%TO.N,GND*%
X-6837500Y0D03*
%TO.P,U1,3,I/O1*%
%TO.N,Net-(J1-D+-PadA6)*%
X-6837500Y-950000D03*
%TO.P,U1,4,I/O2*%
%TO.N,Net-(U2-D+)*%
X-4562500Y-950000D03*
%TO.P,U1,5,VBUS*%
%TO.N,VBUS*%
X-4562500Y0D03*
%TO.P,U1,6,I/O2*%
%TO.N,Net-(U2-D-)*%
X-4562500Y950000D03*
%TD*%
D12*
%TO.P,J8,1*%
%TO.N,GND*%
X10100000Y15050000D03*
D13*
%TO.P,J8,2*%
%TO.N,VCC*%
X10100000Y20850000D03*
D14*
%TO.P,J8,3*%
%TO.N,unconnected-(J8-Pad3)*%
X5300000Y18050000D03*
%TD*%
D12*
%TO.P,J7,1*%
%TO.N,GND*%
X30100000Y-15050000D03*
D13*
%TO.P,J7,2*%
%TO.N,VCC*%
X30100000Y-20850000D03*
D14*
%TO.P,J7,3*%
%TO.N,unconnected-(J7-Pad3)*%
X34900000Y-18050000D03*
%TD*%
D12*
%TO.P,J9,1*%
%TO.N,GND*%
X40100000Y-15050000D03*
D13*
%TO.P,J9,2*%
%TO.N,VCC*%
X40100000Y-20850000D03*
D14*
%TO.P,J9,3*%
%TO.N,unconnected-(J9-Pad3)*%
X44900000Y-18050000D03*
%TD*%
D15*
%TO.P,R5,1*%
%TO.N,GND*%
X12100000Y-4000000D03*
%TO.P,R5,2*%
%TO.N,Net-(U2-CFG1)*%
X14100000Y-4000000D03*
%TD*%
D16*
%TO.P,R7,1*%
%TO.N,GND*%
X34625000Y1925000D03*
%TO.P,R7,2*%
%TO.N,Net-(D1-K)*%
X37725000Y1925000D03*
%TD*%
D12*
%TO.P,J3,1*%
%TO.N,GND*%
X10100000Y-15050000D03*
D13*
%TO.P,J3,2*%
%TO.N,VCC*%
X10100000Y-20850000D03*
D14*
%TO.P,J3,3*%
%TO.N,unconnected-(J3-Pad3)*%
X14900000Y-18050000D03*
%TD*%
D17*
%TO.P,U2,1,VDD*%
%TO.N,VDD*%
X4150000Y3525000D03*
%TO.P,U2,2,CFG2*%
%TO.N,Net-(U2-CFG2)*%
X4150000Y4525000D03*
%TO.P,U2,3,CFG3*%
%TO.N,Net-(U2-CFG3)*%
X4150000Y5525000D03*
%TO.P,U2,4,D+*%
%TO.N,Net-(U2-D+)*%
X4150000Y6525000D03*
%TO.P,U2,5,D-*%
%TO.N,Net-(U2-D-)*%
X4150000Y7525000D03*
%TO.P,U2,6,CC2*%
%TO.N,Net-(J1-CC2)*%
X-950000Y7525000D03*
%TO.P,U2,7,CC1*%
%TO.N,Net-(J1-CC1)*%
X-950000Y6525000D03*
%TO.P,U2,8,VBUS*%
%TO.N,Net-(U2-VBUS)*%
X-950000Y5525000D03*
%TO.P,U2,9,CFG1*%
%TO.N,Net-(U2-CFG1)*%
X-950000Y4525000D03*
%TO.P,U2,10,PG*%
%TO.N,Net-(Q1-G)*%
X-950000Y3525000D03*
D18*
%TO.P,U2,11,GND*%
%TO.N,GND*%
X1600000Y5525000D03*
%TD*%
D19*
%TO.P,SW1,1*%
%TO.N,Net-(U2-CFG3)*%
X16300000Y2525000D03*
D20*
%TO.P,SW1,2*%
%TO.N,Net-(U2-CFG2)*%
X16300000Y-15000D03*
%TO.P,SW1,3*%
%TO.N,Net-(U2-CFG1)*%
X16300000Y-2555000D03*
%TO.P,SW1,4*%
%TO.N,VDD*%
X23920000Y-2555000D03*
%TO.P,SW1,5*%
X23920000Y-15000D03*
%TO.P,SW1,6*%
X23920000Y2525000D03*
%TD*%
D21*
%TO.P,J1,A1,GND*%
%TO.N,GND*%
X-10755000Y3250000D03*
%TO.P,J1,A4,VBUS*%
%TO.N,VBUS*%
X-10755000Y2450000D03*
D22*
%TO.P,J1,A5,CC1*%
%TO.N,Net-(J1-CC1)*%
X-10755000Y1250000D03*
%TO.P,J1,A6,D+*%
%TO.N,Net-(J1-D+-PadA6)*%
X-10755000Y250000D03*
%TO.P,J1,A7,D-*%
%TO.N,Net-(J1-D--PadA7)*%
X-10755000Y-250000D03*
%TO.P,J1,A8,SBU1*%
%TO.N,unconnected-(J1-SBU1-PadA8)*%
X-10755000Y-1250000D03*
D21*
%TO.P,J1,A9,VBUS*%
%TO.N,VBUS*%
X-10755000Y-2450000D03*
%TO.P,J1,A12,GND*%
%TO.N,GND*%
X-10755000Y-3250000D03*
%TO.P,J1,B1,GND*%
X-10755000Y-3250000D03*
%TO.P,J1,B4,VBUS*%
%TO.N,VBUS*%
X-10755000Y-2450000D03*
D22*
%TO.P,J1,B5,CC2*%
%TO.N,Net-(J1-CC2)*%
X-10755000Y-1750000D03*
%TO.P,J1,B6,D+*%
%TO.N,Net-(J1-D+-PadA6)*%
X-10755000Y-750000D03*
%TO.P,J1,B7,D-*%
%TO.N,Net-(J1-D--PadA7)*%
X-10755000Y750000D03*
%TO.P,J1,B8,SBU2*%
%TO.N,unconnected-(J1-SBU2-PadB8)*%
X-10755000Y1750000D03*
D21*
%TO.P,J1,B9,VBUS*%
%TO.N,VBUS*%
X-10755000Y2450000D03*
%TO.P,J1,B12,GND*%
%TO.N,GND*%
X-10755000Y3250000D03*
D23*
%TO.P,J1,S1,SHIELD*%
X-11670000Y4320000D03*
D24*
X-15850000Y4320000D03*
D23*
X-11670000Y-4320000D03*
D24*
X-15850000Y-4320000D03*
%TD*%
D25*
%TO.P,D1,1,K*%
%TO.N,Net-(D1-K)*%
X36875000Y-1000000D03*
%TO.P,D1,2,A*%
%TO.N,VCC*%
X35125000Y-1000000D03*
%TD*%
D26*
%TO.P,R1,1*%
%TO.N,VBUS*%
X-4900000Y7600000D03*
%TO.P,R1,2*%
%TO.N,Net-(U2-VBUS)*%
X-4900000Y5600000D03*
%TD*%
D12*
%TO.P,J5,1*%
%TO.N,GND*%
X20100000Y-15050000D03*
D13*
%TO.P,J5,2*%
%TO.N,VCC*%
X20100000Y-20850000D03*
D14*
%TO.P,J5,3*%
%TO.N,unconnected-(J5-Pad3)*%
X24900000Y-18050000D03*
%TD*%
D12*
%TO.P,J2,1*%
%TO.N,GND*%
X40100000Y15050000D03*
D13*
%TO.P,J2,2*%
%TO.N,VCC*%
X40100000Y20850000D03*
D14*
%TO.P,J2,3*%
%TO.N,unconnected-(J2-Pad3)*%
X35300000Y18050000D03*
%TD*%
D27*
%TO.P,C1,1*%
%TO.N,VDD*%
X4137500Y1600000D03*
%TO.P,C1,2*%
%TO.N,GND*%
X2062500Y1600000D03*
%TD*%
D10*
%TO.P,TP1,1,1*%
%TO.N,VCC*%
X52000000Y3000000D03*
%TD*%
D12*
%TO.P,J4,1*%
%TO.N,GND*%
X30100000Y15050000D03*
D13*
%TO.P,J4,2*%
%TO.N,VCC*%
X30100000Y20850000D03*
D14*
%TO.P,J4,3*%
%TO.N,unconnected-(J4-Pad3)*%
X25300000Y18050000D03*
%TD*%
D15*
%TO.P,R4,1*%
%TO.N,GND*%
X12100000Y0D03*
%TO.P,R4,2*%
%TO.N,Net-(U2-CFG2)*%
X14100000Y0D03*
%TD*%
D26*
%TO.P,R6,1*%
%TO.N,Net-(Q1-G)*%
X-3462500Y-6250000D03*
%TO.P,R6,2*%
%TO.N,VBUS*%
X-3462500Y-8250000D03*
%TD*%
D12*
%TO.P,J6,1*%
%TO.N,GND*%
X20100000Y15050000D03*
D13*
%TO.P,J6,2*%
%TO.N,VCC*%
X20100000Y20850000D03*
D14*
%TO.P,J6,3*%
%TO.N,unconnected-(J6-Pad3)*%
X15300000Y18050000D03*
%TD*%
D15*
%TO.P,R2,1*%
%TO.N,VBUS*%
X-700000Y10400000D03*
%TO.P,R2,2*%
%TO.N,VDD*%
X1300000Y10400000D03*
%TD*%
D28*
%TO.P,Q1,1,G*%
%TO.N,Net-(Q1-G)*%
X-1000000Y-6300000D03*
%TO.P,Q1,2,S*%
%TO.N,VBUS*%
X-1000000Y-8200000D03*
%TO.P,Q1,3,D*%
%TO.N,VCC*%
X875000Y-7250000D03*
%TD*%
D15*
%TO.P,R3,1*%
%TO.N,GND*%
X12100000Y3000000D03*
%TO.P,R3,2*%
%TO.N,Net-(U2-CFG3)*%
X14100000Y3000000D03*
%TD*%
D29*
%TO.N,Net-(U2-D+)*%
X-2900000Y-800000D03*
X5600000Y6500497D03*
%TO.N,Net-(U2-D-)*%
X-2900000Y700000D03*
X5600000Y7500000D03*
%TO.N,GND*%
X19600000Y-2100000D03*
X2600000Y8800000D03*
X-8600000Y-3400000D03*
X-9500000Y6100000D03*
X3600000Y-1000000D03*
X-11300000Y6100000D03*
X19600000Y2500000D03*
X-8600000Y4300000D03*
X-8600000Y0D03*
X-8600000Y-6100000D03*
X-8600000Y-5200000D03*
X-10400000Y-6100000D03*
X10600000Y0D03*
X10600000Y-4000000D03*
X-8600000Y-4300000D03*
X-8600000Y5200000D03*
X34600000Y3700000D03*
X-9500000Y-6100000D03*
X-8600000Y3400000D03*
X800000Y8800000D03*
X10600000Y3000000D03*
X-8600000Y6100000D03*
X-10400000Y6100000D03*
X-11300000Y-6100000D03*
X1700000Y8800000D03*
%TO.N,Net-(J1-CC1)*%
X-12800000Y1000000D03*
X-2700000Y6500000D03*
%TO.N,Net-(J1-CC2)*%
X-12800000Y-1400000D03*
X-2700000Y7500000D03*
%TD*%
D30*
%TO.N,Net-(U2-D+)*%
X-4562500Y-950000D02*
X-3050000Y-950000D01*
X5575497Y6525000D02*
X5600000Y6500497D01*
X-3050000Y-950000D02*
X-2900000Y-800000D01*
X4150000Y6525000D02*
X5575497Y6525000D01*
%TO.N,Net-(U2-D-)*%
X-4562500Y950000D02*
X-3150000Y950000D01*
X5575000Y7525000D02*
X5600000Y7500000D01*
X-3150000Y950000D02*
X-2900000Y700000D01*
X4150000Y7525000D02*
X5575000Y7525000D01*
%TO.N,Net-(U2-CFG2)*%
X4605000Y4525000D02*
X4150000Y4525000D01*
X14100000Y0D02*
X16285000Y0D01*
X14100000Y1000000D02*
X13600000Y1500000D01*
X7630000Y1500000D02*
X4605000Y4525000D01*
X14100000Y0D02*
X14100000Y1000000D01*
X16285000Y0D02*
X16300000Y-15000D01*
X13600000Y1500000D02*
X7630000Y1500000D01*
%TO.N,GND*%
X10600000Y3000000D02*
X12100000Y3000000D01*
X34600000Y3700000D02*
X34600000Y1950000D01*
X10600000Y0D02*
X12100000Y0D01*
X10600000Y-4000000D02*
X12100000Y-4000000D01*
X-6837500Y0D02*
X-8600000Y0D01*
X34600000Y1950000D02*
X34625000Y1925000D01*
%TO.N,Net-(U2-CFG3)*%
X14100000Y3000000D02*
X15825000Y3000000D01*
X13600000Y4500000D02*
X14100000Y4000000D01*
X4150000Y5525000D02*
X5090000Y5525000D01*
X14100000Y4000000D02*
X14100000Y3000000D01*
X5090000Y5525000D02*
X6115000Y4500000D01*
X15825000Y3000000D02*
X16300000Y2525000D01*
X6115000Y4500000D02*
X13600000Y4500000D01*
%TO.N,Net-(U2-VBUS)*%
X-4825000Y5525000D02*
X-950000Y5525000D01*
X-4900000Y5600000D02*
X-4825000Y5525000D01*
%TO.N,Net-(U2-CFG1)*%
X16300000Y-2555000D02*
X3655000Y-2555000D01*
X-425000Y4525000D02*
X-950000Y4525000D01*
X16300000Y-2555000D02*
X14855000Y-4000000D01*
X3655000Y-2555000D02*
X62500Y1037500D01*
X62500Y4037500D02*
X-425000Y4525000D01*
X14855000Y-4000000D02*
X14100000Y-4000000D01*
X62500Y1037500D02*
X62500Y4037500D01*
%TO.N,Net-(Q1-G)*%
X-1050000Y-6250000D02*
X-1000000Y-6300000D01*
X-950000Y3525000D02*
X-950000Y-6250000D01*
X-950000Y-6250000D02*
X-1000000Y-6300000D01*
X-3462500Y-6250000D02*
X-1050000Y-6250000D01*
%TO.N,Net-(D1-K)*%
X37725000Y-150000D02*
X37725000Y1925000D01*
X36875000Y-1000000D02*
X37725000Y-150000D01*
%TO.N,Net-(J1-CC1)*%
X-2675000Y6525000D02*
X-2700000Y6500000D01*
X-950000Y6525000D02*
X-2675000Y6525000D01*
X-12550000Y1250000D02*
X-10755000Y1250000D01*
X-12800000Y1000000D02*
X-12550000Y1250000D01*
%TO.N,Net-(J1-D+-PadA6)*%
X-9730000Y250000D02*
X-9600000Y120000D01*
X-6837500Y-950000D02*
X-9245000Y-950000D01*
X-9755000Y-750000D02*
X-10755000Y-750000D01*
X-10755000Y250000D02*
X-9730000Y250000D01*
X-9245000Y-950000D02*
X-9600000Y-595000D01*
X-9600000Y120000D02*
X-9600000Y-595000D01*
X-9600000Y-595000D02*
X-9755000Y-750000D01*
%TO.N,Net-(J1-D--PadA7)*%
X-11825000Y-275000D02*
X-10800000Y-275000D01*
X-10755000Y750000D02*
X-7037500Y750000D01*
X-11780000Y750000D02*
X-12000000Y530000D01*
X-12000000Y530000D02*
X-12000000Y-100000D01*
X-7037500Y750000D02*
X-6837500Y950000D01*
X-12000000Y-100000D02*
X-11825000Y-275000D01*
X-10755000Y750000D02*
X-11780000Y750000D01*
%TO.N,Net-(J1-CC2)*%
X-12315000Y-1400000D02*
X-11965000Y-1750000D01*
X-2675000Y7525000D02*
X-2700000Y7500000D01*
X-11965000Y-1750000D02*
X-10755000Y-1750000D01*
X-12800000Y-1400000D02*
X-12315000Y-1400000D01*
X-950000Y7525000D02*
X-2675000Y7525000D01*
%TO.N,VDD*%
X20945000Y5500000D02*
X23920000Y2525000D01*
X23920000Y-2555000D02*
X23920000Y-1400000D01*
X4137500Y562500D02*
X6000000Y-1300000D01*
X4150000Y3525000D02*
X4150000Y1612500D01*
X1300000Y10200000D02*
X4500000Y10200000D01*
X6000000Y-1300000D02*
X23820000Y-1300000D01*
X23820000Y-1300000D02*
X23920000Y-1400000D01*
X4500000Y10200000D02*
X9200000Y5500000D01*
X9200000Y5500000D02*
X20945000Y5500000D01*
X23920000Y-1400000D02*
X23920000Y2525000D01*
X4137500Y1600000D02*
X4137500Y562500D01*
%TD*%
%TA.AperFunction,Conductor*%
%TO.N,VCC*%
G36*
X54005392Y23999028D02*
G01*
X54009760Y23998646D01*
X54044776Y23995581D01*
X54046116Y23995456D01*
X54171760Y23983082D01*
X54191700Y23979454D01*
X54256382Y23962123D01*
X54260285Y23961008D01*
X54351562Y23933319D01*
X54367971Y23927041D01*
X54433835Y23896328D01*
X54439884Y23893304D01*
X54519046Y23850990D01*
X54531715Y23843207D01*
X54592889Y23800373D01*
X54600430Y23794652D01*
X54668455Y23738826D01*
X54677472Y23730653D01*
X54730653Y23677472D01*
X54738826Y23668455D01*
X54794652Y23600430D01*
X54800373Y23592889D01*
X54843207Y23531715D01*
X54850990Y23519046D01*
X54893304Y23439884D01*
X54896328Y23433835D01*
X54927041Y23367971D01*
X54933319Y23351562D01*
X54961008Y23260285D01*
X54962123Y23256382D01*
X54979454Y23191700D01*
X54983082Y23171760D01*
X54995456Y23046116D01*
X54995581Y23044776D01*
X54999028Y23005397D01*
X54999500Y22994584D01*
X54999500Y-21994584D01*
X54999028Y-22005397D01*
X54995581Y-22044776D01*
X54995456Y-22046116D01*
X54983082Y-22171760D01*
X54979454Y-22191700D01*
X54962123Y-22256382D01*
X54961008Y-22260285D01*
X54933319Y-22351562D01*
X54927041Y-22367971D01*
X54896328Y-22433835D01*
X54893304Y-22439884D01*
X54850990Y-22519046D01*
X54843207Y-22531715D01*
X54800373Y-22592889D01*
X54794652Y-22600430D01*
X54738826Y-22668455D01*
X54730653Y-22677472D01*
X54677472Y-22730653D01*
X54668455Y-22738826D01*
X54600430Y-22794652D01*
X54592889Y-22800373D01*
X54531715Y-22843207D01*
X54519046Y-22850990D01*
X54439884Y-22893304D01*
X54433835Y-22896328D01*
X54367971Y-22927041D01*
X54351562Y-22933319D01*
X54260285Y-22961008D01*
X54256382Y-22962123D01*
X54191700Y-22979454D01*
X54171760Y-22983082D01*
X54046116Y-22995456D01*
X54044776Y-22995581D01*
X54009760Y-22998646D01*
X54005392Y-22999028D01*
X53994584Y-22999500D01*
X-5994584Y-22999500D01*
X-6005392Y-22999028D01*
X-6009760Y-22998646D01*
X-6044776Y-22995581D01*
X-6046116Y-22995456D01*
X-6171759Y-22983082D01*
X-6191699Y-22979454D01*
X-6256366Y-22962127D01*
X-6260269Y-22961013D01*
X-6351563Y-22933319D01*
X-6367972Y-22927040D01*
X-6433832Y-22896329D01*
X-6439880Y-22893305D01*
X-6519056Y-22850985D01*
X-6531727Y-22843201D01*
X-6592881Y-22800380D01*
X-6600422Y-22794659D01*
X-6668461Y-22738821D01*
X-6677477Y-22730649D01*
X-6730649Y-22677477D01*
X-6738821Y-22668461D01*
X-6794659Y-22600422D01*
X-6800380Y-22592881D01*
X-6843201Y-22531727D01*
X-6850985Y-22519056D01*
X-6893305Y-22439880D01*
X-6896329Y-22433832D01*
X-6927040Y-22367972D01*
X-6933319Y-22351563D01*
X-6961013Y-22260269D01*
X-6962127Y-22256366D01*
X-6979454Y-22191699D01*
X-6983082Y-22171759D01*
X-6995456Y-22046116D01*
X-6995581Y-22044776D01*
X-6999028Y-22005397D01*
X-6999500Y-21994584D01*
X-6999500Y-19202425D01*
X13799500Y-19202425D01*
X13804529Y-19255086D01*
X13814472Y-19359220D01*
X13873683Y-19560873D01*
X13969990Y-19747684D01*
X14099906Y-19912884D01*
X14258745Y-20050520D01*
X14357259Y-20107397D01*
X14440756Y-20155604D01*
X14534241Y-20187959D01*
X14639366Y-20224344D01*
X14674298Y-20229366D01*
X14847398Y-20254254D01*
X15057330Y-20244254D01*
X15261576Y-20194704D01*
X15347195Y-20155603D01*
X15452752Y-20107397D01*
X15532624Y-20050520D01*
X15623952Y-19985486D01*
X15768986Y-19833378D01*
X15882613Y-19656572D01*
X15960725Y-19461457D01*
X16000500Y-19255085D01*
X16000500Y-19202425D01*
X23799500Y-19202425D01*
X23804529Y-19255086D01*
X23814472Y-19359220D01*
X23873683Y-19560873D01*
X23969990Y-19747684D01*
X24099906Y-19912884D01*
X24258745Y-20050520D01*
X24357259Y-20107397D01*
X24440756Y-20155604D01*
X24534241Y-20187959D01*
X24639366Y-20224344D01*
X24674298Y-20229366D01*
X24847398Y-20254254D01*
X25057330Y-20244254D01*
X25261576Y-20194704D01*
X25347195Y-20155603D01*
X25452752Y-20107397D01*
X25532624Y-20050520D01*
X25623952Y-19985486D01*
X25768986Y-19833378D01*
X25882613Y-19656572D01*
X25960725Y-19461457D01*
X26000500Y-19255085D01*
X26000500Y-19202425D01*
X33799500Y-19202425D01*
X33804529Y-19255086D01*
X33814472Y-19359220D01*
X33873683Y-19560873D01*
X33969990Y-19747684D01*
X34099906Y-19912884D01*
X34258745Y-20050520D01*
X34357259Y-20107397D01*
X34440756Y-20155604D01*
X34534241Y-20187959D01*
X34639366Y-20224344D01*
X34674298Y-20229366D01*
X34847398Y-20254254D01*
X35057330Y-20244254D01*
X35261576Y-20194704D01*
X35347195Y-20155603D01*
X35452752Y-20107397D01*
X35532624Y-20050520D01*
X35623952Y-19985486D01*
X35768986Y-19833378D01*
X35882613Y-19656572D01*
X35960725Y-19461457D01*
X36000500Y-19255085D01*
X36000500Y-19202425D01*
X43799500Y-19202425D01*
X43804529Y-19255086D01*
X43814472Y-19359220D01*
X43873683Y-19560873D01*
X43969990Y-19747684D01*
X44099906Y-19912884D01*
X44258745Y-20050520D01*
X44357259Y-20107397D01*
X44440756Y-20155604D01*
X44534241Y-20187959D01*
X44639366Y-20224344D01*
X44674298Y-20229366D01*
X44847398Y-20254254D01*
X45057330Y-20244254D01*
X45261576Y-20194704D01*
X45347195Y-20155603D01*
X45452752Y-20107397D01*
X45532624Y-20050520D01*
X45623952Y-19985486D01*
X45768986Y-19833378D01*
X45882613Y-19656572D01*
X45960725Y-19461457D01*
X46000500Y-19255085D01*
X46000500Y-16897575D01*
X45985528Y-16740782D01*
X45926316Y-16539125D01*
X45830011Y-16352318D01*
X45762994Y-16267100D01*
X45700093Y-16187115D01*
X45541254Y-16049479D01*
X45359245Y-15944396D01*
X45160633Y-15875655D01*
X44952603Y-15845746D01*
X44952602Y-15845746D01*
X44847635Y-15850746D01*
X44742669Y-15855746D01*
X44538419Y-15905297D01*
X44347247Y-15992602D01*
X44176050Y-16114512D01*
X44031013Y-16266623D01*
X43917387Y-16443425D01*
X43839274Y-16638545D01*
X43805525Y-16813652D01*
X43799500Y-16844915D01*
X43799500Y-19202425D01*
X36000500Y-19202425D01*
X36000500Y-16897575D01*
X35985528Y-16740782D01*
X35926316Y-16539125D01*
X35830011Y-16352318D01*
X35762994Y-16267100D01*
X35700093Y-16187115D01*
X35541254Y-16049479D01*
X35403158Y-15969749D01*
X37699500Y-15969749D01*
X37711132Y-16028230D01*
X37755447Y-16094552D01*
X37821769Y-16138867D01*
X37880251Y-16150500D01*
X37880252Y-16150500D01*
X42319748Y-16150500D01*
X42319749Y-16150500D01*
X42348989Y-16144683D01*
X42378231Y-16138867D01*
X42444552Y-16094552D01*
X42488867Y-16028231D01*
X42500500Y-15969748D01*
X42500500Y-15250000D01*
X48394450Y-15250000D01*
X48414616Y-15519100D01*
X48414617Y-15519103D01*
X48474666Y-15782195D01*
X48573257Y-16033398D01*
X48708185Y-16267102D01*
X48876439Y-16478085D01*
X49074259Y-16661635D01*
X49297226Y-16813651D01*
X49540359Y-16930738D01*
X49798228Y-17010280D01*
X50065071Y-17050500D01*
X50334929Y-17050500D01*
X50601772Y-17010280D01*
X50859641Y-16930738D01*
X51102775Y-16813651D01*
X51325741Y-16661635D01*
X51523561Y-16478085D01*
X51691815Y-16267102D01*
X51826743Y-16033398D01*
X51925334Y-15782195D01*
X51985383Y-15519103D01*
X52005549Y-15250000D01*
X51985383Y-14980897D01*
X51925334Y-14717805D01*
X51826743Y-14466602D01*
X51691815Y-14232898D01*
X51523561Y-14021915D01*
X51458054Y-13961133D01*
X51325743Y-13838366D01*
X51268205Y-13799137D01*
X51102775Y-13686349D01*
X50859641Y-13569262D01*
X50780097Y-13544726D01*
X50601771Y-13489719D01*
X50334929Y-13449500D01*
X50065071Y-13449500D01*
X49798228Y-13489719D01*
X49540359Y-13569262D01*
X49297228Y-13686347D01*
X49074257Y-13838366D01*
X48876439Y-14021915D01*
X48708184Y-14232899D01*
X48573257Y-14466601D01*
X48474666Y-14717804D01*
X48414616Y-14980899D01*
X48394450Y-15250000D01*
X42500500Y-15250000D01*
X42500500Y-14130252D01*
X42488867Y-14071769D01*
X42458304Y-14026029D01*
X42444552Y-14005447D01*
X42378230Y-13961132D01*
X42319749Y-13949500D01*
X42319748Y-13949500D01*
X37880252Y-13949500D01*
X37880251Y-13949500D01*
X37821769Y-13961132D01*
X37755447Y-14005447D01*
X37711132Y-14071769D01*
X37699500Y-14130251D01*
X37699500Y-15969749D01*
X35403158Y-15969749D01*
X35359245Y-15944396D01*
X35160633Y-15875655D01*
X34952603Y-15845746D01*
X34952602Y-15845746D01*
X34847635Y-15850746D01*
X34742669Y-15855746D01*
X34538419Y-15905297D01*
X34347247Y-15992602D01*
X34176050Y-16114512D01*
X34031013Y-16266623D01*
X33917387Y-16443425D01*
X33839274Y-16638545D01*
X33805525Y-16813652D01*
X33799500Y-16844915D01*
X33799500Y-19202425D01*
X26000500Y-19202425D01*
X26000500Y-16897575D01*
X25985528Y-16740782D01*
X25926316Y-16539125D01*
X25830011Y-16352318D01*
X25762994Y-16267100D01*
X25700093Y-16187115D01*
X25541254Y-16049479D01*
X25403158Y-15969749D01*
X27699500Y-15969749D01*
X27711132Y-16028230D01*
X27755447Y-16094552D01*
X27821769Y-16138867D01*
X27880251Y-16150500D01*
X27880252Y-16150500D01*
X32319748Y-16150500D01*
X32319749Y-16150500D01*
X32348989Y-16144683D01*
X32378231Y-16138867D01*
X32444552Y-16094552D01*
X32488867Y-16028231D01*
X32500500Y-15969748D01*
X32500500Y-14130252D01*
X32488867Y-14071769D01*
X32458304Y-14026029D01*
X32444552Y-14005447D01*
X32378230Y-13961132D01*
X32319749Y-13949500D01*
X32319748Y-13949500D01*
X27880252Y-13949500D01*
X27880251Y-13949500D01*
X27821769Y-13961132D01*
X27755447Y-14005447D01*
X27711132Y-14071769D01*
X27699500Y-14130251D01*
X27699500Y-15969749D01*
X25403158Y-15969749D01*
X25359245Y-15944396D01*
X25160633Y-15875655D01*
X24952603Y-15845746D01*
X24952602Y-15845746D01*
X24847635Y-15850746D01*
X24742669Y-15855746D01*
X24538419Y-15905297D01*
X24347247Y-15992602D01*
X24176050Y-16114512D01*
X24031013Y-16266623D01*
X23917387Y-16443425D01*
X23839274Y-16638545D01*
X23805525Y-16813652D01*
X23799500Y-16844915D01*
X23799500Y-19202425D01*
X16000500Y-19202425D01*
X16000500Y-16897575D01*
X15985528Y-16740782D01*
X15926316Y-16539125D01*
X15830011Y-16352318D01*
X15762994Y-16267100D01*
X15700093Y-16187115D01*
X15541254Y-16049479D01*
X15403158Y-15969749D01*
X17699500Y-15969749D01*
X17711132Y-16028230D01*
X17755447Y-16094552D01*
X17821769Y-16138867D01*
X17880251Y-16150500D01*
X17880252Y-16150500D01*
X22319748Y-16150500D01*
X22319749Y-16150500D01*
X22348989Y-16144683D01*
X22378231Y-16138867D01*
X22444552Y-16094552D01*
X22488867Y-16028231D01*
X22500500Y-15969748D01*
X22500500Y-14130252D01*
X22488867Y-14071769D01*
X22458304Y-14026029D01*
X22444552Y-14005447D01*
X22378230Y-13961132D01*
X22319749Y-13949500D01*
X22319748Y-13949500D01*
X17880252Y-13949500D01*
X17880251Y-13949500D01*
X17821769Y-13961132D01*
X17755447Y-14005447D01*
X17711132Y-14071769D01*
X17699500Y-14130251D01*
X17699500Y-15969749D01*
X15403158Y-15969749D01*
X15359245Y-15944396D01*
X15160633Y-15875655D01*
X14952603Y-15845746D01*
X14952602Y-15845746D01*
X14847635Y-15850746D01*
X14742669Y-15855746D01*
X14538419Y-15905297D01*
X14347247Y-15992602D01*
X14176050Y-16114512D01*
X14031013Y-16266623D01*
X13917387Y-16443425D01*
X13839274Y-16638545D01*
X13805525Y-16813652D01*
X13799500Y-16844915D01*
X13799500Y-19202425D01*
X-6999500Y-19202425D01*
X-6999500Y-15250000D01*
X-1805549Y-15250000D01*
X-1785383Y-15519103D01*
X-1725334Y-15782195D01*
X-1626743Y-16033398D01*
X-1491815Y-16267102D01*
X-1323561Y-16478085D01*
X-1125741Y-16661635D01*
X-902774Y-16813651D01*
X-659641Y-16930738D01*
X-401772Y-17010280D01*
X-134929Y-17050500D01*
X134929Y-17050500D01*
X401772Y-17010280D01*
X659641Y-16930738D01*
X902775Y-16813651D01*
X1125741Y-16661635D01*
X1323561Y-16478085D01*
X1491815Y-16267102D01*
X1626743Y-16033398D01*
X1651724Y-15969749D01*
X7699500Y-15969749D01*
X7711132Y-16028230D01*
X7755447Y-16094552D01*
X7821769Y-16138867D01*
X7880251Y-16150500D01*
X7880252Y-16150500D01*
X12319748Y-16150500D01*
X12319749Y-16150500D01*
X12348989Y-16144683D01*
X12378231Y-16138867D01*
X12444552Y-16094552D01*
X12488867Y-16028231D01*
X12500500Y-15969748D01*
X12500500Y-14130252D01*
X12488867Y-14071769D01*
X12458304Y-14026029D01*
X12444552Y-14005447D01*
X12378230Y-13961132D01*
X12319749Y-13949500D01*
X12319748Y-13949500D01*
X7880252Y-13949500D01*
X7880251Y-13949500D01*
X7821769Y-13961132D01*
X7755447Y-14005447D01*
X7711132Y-14071769D01*
X7699500Y-14130251D01*
X7699500Y-15969749D01*
X1651724Y-15969749D01*
X1725334Y-15782195D01*
X1785383Y-15519103D01*
X1805549Y-15250000D01*
X1785383Y-14980897D01*
X1725334Y-14717805D01*
X1626743Y-14466602D01*
X1491815Y-14232898D01*
X1323561Y-14021915D01*
X1258054Y-13961133D01*
X1125743Y-13838366D01*
X1068205Y-13799137D01*
X902775Y-13686349D01*
X659641Y-13569262D01*
X580097Y-13544726D01*
X401771Y-13489719D01*
X134929Y-13449500D01*
X-134929Y-13449500D01*
X-401771Y-13489719D01*
X-580097Y-13544726D01*
X-659641Y-13569262D01*
X-772564Y-13623643D01*
X-902771Y-13686347D01*
X-902773Y-13686348D01*
X-902774Y-13686349D01*
X-1125741Y-13838365D01*
X-1323561Y-14021915D01*
X-1491815Y-14232898D01*
X-1626743Y-14466602D01*
X-1725334Y-14717805D01*
X-1785383Y-14980897D01*
X-1805549Y-15250000D01*
X-6999500Y-15250000D01*
X-6999500Y-12912467D01*
X-7029898Y-12740064D01*
X-7089777Y-12575549D01*
X-7177305Y-12423946D01*
X-7189673Y-12409207D01*
X-7217624Y-12345687D01*
X-7207068Y-12277096D01*
X-7161311Y-12224920D01*
X-7094685Y-12205500D01*
X-23999Y-12205500D01*
X-6270Y-12203166D01*
X29188Y-12198498D01*
X91188Y-12181885D01*
X140750Y-12161355D01*
X183310Y-12128697D01*
X228697Y-12083310D01*
X261355Y-12040750D01*
X281885Y-11991188D01*
X298498Y-11929188D01*
X305500Y-11876000D01*
X305500Y-7759543D01*
X301551Y-7719452D01*
X301550Y-7719445D01*
X292113Y-7672001D01*
X287619Y-7661152D01*
X261428Y-7597921D01*
X234550Y-7557695D01*
X208993Y-7526554D01*
X208991Y-7526551D01*
X182493Y-7500053D01*
X158774Y-7466834D01*
X155100Y-7459319D01*
X142500Y-7404857D01*
X142500Y-7095143D01*
X155098Y-7040687D01*
X158773Y-7033169D01*
X182490Y-6999948D01*
X208995Y-6973444D01*
X234549Y-6942306D01*
X261427Y-6902081D01*
X292112Y-6828001D01*
X292111Y-6828001D01*
X292113Y-6827999D01*
X301550Y-6780554D01*
X305500Y-6740455D01*
X305500Y-6732540D01*
X299822Y-6684575D01*
X299822Y-6684572D01*
X286307Y-6628277D01*
X269587Y-6582953D01*
X242747Y-6542786D01*
X242745Y-6542783D01*
X205146Y-6498761D01*
X169674Y-6465972D01*
X127524Y-6442367D01*
X74043Y-6420215D01*
X61539Y-6416688D01*
X28337Y-6407324D01*
X-18533Y-6382270D01*
X-50610Y-6339894D01*
X-62000Y-6287981D01*
X-62000Y-6116737D01*
X-71926Y-6048609D01*
X-123302Y-5943515D01*
X-206015Y-5860802D01*
X-311109Y-5809426D01*
X-379237Y-5799500D01*
X-379240Y-5799500D01*
X-500500Y-5799500D01*
X-562500Y-5782887D01*
X-607887Y-5737500D01*
X-624500Y-5675500D01*
X-624500Y-5019749D01*
X49799500Y-5019749D01*
X49811132Y-5078230D01*
X49855447Y-5144552D01*
X49921769Y-5188867D01*
X49980251Y-5200500D01*
X49980252Y-5200500D01*
X54019748Y-5200500D01*
X54019749Y-5200500D01*
X54048989Y-5194683D01*
X54078231Y-5188867D01*
X54144552Y-5144552D01*
X54188867Y-5078231D01*
X54200500Y-5019748D01*
X54200500Y-980252D01*
X54188867Y-921769D01*
X54174655Y-900500D01*
X54144552Y-855447D01*
X54078230Y-811132D01*
X54019749Y-799500D01*
X54019748Y-799500D01*
X49980252Y-799500D01*
X49980251Y-799500D01*
X49921769Y-811132D01*
X49855447Y-855447D01*
X49811132Y-921769D01*
X49799500Y-980251D01*
X49799500Y-5019749D01*
X-624500Y-5019749D01*
X-624500Y2945500D01*
X-607887Y3007500D01*
X-562500Y3052887D01*
X-500500Y3069500D01*
X-387000Y3069500D01*
X-325000Y3052887D01*
X-279613Y3007500D01*
X-263000Y2945500D01*
X-263000Y1057127D01*
X-263472Y1046319D01*
X-266764Y1008692D01*
X-256987Y972206D01*
X-254645Y961643D01*
X-249380Y931780D01*
X-247900Y923391D01*
X-237671Y898698D01*
X-237054Y897817D01*
X-237054Y897816D01*
X-222713Y877335D01*
X-215392Y866879D01*
X-209580Y857756D01*
X-190694Y825044D01*
X-161755Y800762D01*
X-153780Y793454D01*
X3410955Y-2771282D01*
X3418263Y-2779256D01*
X3442544Y-2808193D01*
X3442545Y-2808194D01*
X3475266Y-2827085D01*
X3484360Y-2832878D01*
X3515316Y-2854554D01*
X3515317Y-2854554D01*
X3516201Y-2855173D01*
X3540891Y-2865400D01*
X3541954Y-2865587D01*
X3541955Y-2865588D01*
X3579146Y-2872145D01*
X3589704Y-2874486D01*
X3626191Y-2884263D01*
X3626192Y-2884262D01*
X3626193Y-2884263D01*
X3663811Y-2880971D01*
X3674618Y-2880500D01*
X11569511Y-2880500D01*
X11635483Y-2899506D01*
X11681231Y-2950699D01*
X11692731Y-3018384D01*
X11666458Y-3081813D01*
X11610465Y-3121542D01*
X11537115Y-3147207D01*
X11427849Y-3227849D01*
X11347207Y-3337115D01*
X11302353Y-3465303D01*
X11299500Y-3495731D01*
X11299500Y-3550500D01*
X11282887Y-3612500D01*
X11237500Y-3657887D01*
X11175500Y-3674500D01*
X11168299Y-3674500D01*
X11113455Y-3661712D01*
X11069923Y-3625986D01*
X11028281Y-3571717D01*
X10902840Y-3475463D01*
X10756762Y-3414956D01*
X10600000Y-3394317D01*
X10443237Y-3414956D01*
X10297159Y-3475463D01*
X10171717Y-3571717D01*
X10075463Y-3697159D01*
X10014956Y-3843237D01*
X9994317Y-4000000D01*
X10014956Y-4156762D01*
X10075463Y-4302840D01*
X10171717Y-4428282D01*
X10270746Y-4504269D01*
X10297159Y-4524536D01*
X10443238Y-4585044D01*
X10600000Y-4605682D01*
X10756762Y-4585044D01*
X10902841Y-4524536D01*
X11028282Y-4428282D01*
X11069923Y-4374013D01*
X11113455Y-4338288D01*
X11168299Y-4325500D01*
X11175500Y-4325500D01*
X11237500Y-4342113D01*
X11282887Y-4387500D01*
X11299500Y-4449500D01*
X11299500Y-4504269D01*
X11302353Y-4534696D01*
X11347207Y-4662884D01*
X11427849Y-4772150D01*
X11537115Y-4852792D01*
X11537118Y-4852793D01*
X11665301Y-4897646D01*
X11677474Y-4898787D01*
X11695731Y-4900500D01*
X11695734Y-4900500D01*
X12504266Y-4900500D01*
X12504269Y-4900500D01*
X12519482Y-4899072D01*
X12534699Y-4897646D01*
X12662882Y-4852793D01*
X12662882Y-4852792D01*
X12662884Y-4852792D01*
X12772150Y-4772150D01*
X12852792Y-4662884D01*
X12852793Y-4662882D01*
X12897646Y-4534699D01*
X12900500Y-4504266D01*
X12900500Y-3495734D01*
X12897646Y-3465301D01*
X12852793Y-3337118D01*
X12852792Y-3337115D01*
X12772150Y-3227849D01*
X12662884Y-3147207D01*
X12589535Y-3121542D01*
X12533542Y-3081813D01*
X12507269Y-3018384D01*
X12518769Y-2950699D01*
X12564517Y-2899506D01*
X12630489Y-2880500D01*
X13569511Y-2880500D01*
X13635483Y-2899506D01*
X13681231Y-2950699D01*
X13692731Y-3018384D01*
X13666458Y-3081813D01*
X13610465Y-3121542D01*
X13537115Y-3147207D01*
X13427849Y-3227849D01*
X13347207Y-3337115D01*
X13302353Y-3465303D01*
X13299500Y-3495731D01*
X13299500Y-4504269D01*
X13302353Y-4534696D01*
X13347207Y-4662884D01*
X13427849Y-4772150D01*
X13537115Y-4852792D01*
X13537118Y-4852793D01*
X13665301Y-4897646D01*
X13677474Y-4898787D01*
X13695731Y-4900500D01*
X13695734Y-4900500D01*
X14504266Y-4900500D01*
X14504269Y-4900500D01*
X14519482Y-4899072D01*
X14534699Y-4897646D01*
X14662882Y-4852793D01*
X14662882Y-4852792D01*
X14662884Y-4852792D01*
X14772150Y-4772150D01*
X14852792Y-4662884D01*
X14852793Y-4662882D01*
X14897646Y-4534699D01*
X14900500Y-4504266D01*
X14900500Y-4421177D01*
X14917105Y-4359190D01*
X14962473Y-4313805D01*
X14966470Y-4311496D01*
X14993798Y-4300174D01*
X14994683Y-4299554D01*
X14994684Y-4299554D01*
X15025625Y-4277887D01*
X15034722Y-4272091D01*
X15067455Y-4253194D01*
X15091748Y-4224241D01*
X15099036Y-4216288D01*
X15798453Y-3516871D01*
X15856003Y-3484270D01*
X15922126Y-3485892D01*
X16103868Y-3541024D01*
X16300000Y-3560341D01*
X16496132Y-3541024D01*
X16684727Y-3483814D01*
X16858538Y-3390910D01*
X17010883Y-3265883D01*
X17135910Y-3113538D01*
X17228814Y-2939727D01*
X17273635Y-2791970D01*
X17302489Y-2742465D01*
X17350525Y-2711217D01*
X17407479Y-2704904D01*
X17412311Y-2705500D01*
X19590485Y-2705500D01*
X19600000Y-2706123D01*
X19609515Y-2705500D01*
X22807688Y-2705500D01*
X22807689Y-2705500D01*
X22812519Y-2704904D01*
X22869473Y-2711216D01*
X22917509Y-2742464D01*
X22946365Y-2791974D01*
X22991185Y-2939726D01*
X23033229Y-3018384D01*
X23084090Y-3113538D01*
X23209117Y-3265883D01*
X23361462Y-3390910D01*
X23535273Y-3483814D01*
X23723868Y-3541024D01*
X23920000Y-3560341D01*
X24116132Y-3541024D01*
X24304727Y-3483814D01*
X24478538Y-3390910D01*
X24630883Y-3265883D01*
X24755910Y-3113538D01*
X24848814Y-2939727D01*
X24906024Y-2751132D01*
X24925341Y-2555000D01*
X24906024Y-2358868D01*
X24848814Y-2170273D01*
X24755910Y-1996462D01*
X24630883Y-1844117D01*
X24478538Y-1719090D01*
X24311046Y-1629563D01*
X24263142Y-1583954D01*
X24245500Y-1520205D01*
X24245500Y-1419616D01*
X24245972Y-1408808D01*
X24249263Y-1371193D01*
X24249262Y-1371190D01*
X24249356Y-1370121D01*
X24245500Y-1340824D01*
X24245500Y-1250000D01*
X34100001Y-1250000D01*
X34100001Y-1286647D01*
X34110318Y-1387650D01*
X34164546Y-1551301D01*
X34255056Y-1698040D01*
X34376959Y-1819943D01*
X34523698Y-1910453D01*
X34687348Y-1964681D01*
X34788353Y-1975000D01*
X34875000Y-1975000D01*
X34875000Y-1974999D01*
X35375000Y-1974999D01*
X35461647Y-1974999D01*
X35562650Y-1964681D01*
X35726301Y-1910453D01*
X35873040Y-1819943D01*
X35994943Y-1698040D01*
X36075283Y-1567789D01*
X36118154Y-1525888D01*
X36175670Y-1508993D01*
X36234391Y-1521054D01*
X36258336Y-1540851D01*
X36259250Y-1539613D01*
X36380521Y-1629114D01*
X36380523Y-1629114D01*
X36380525Y-1629116D01*
X36505151Y-1672725D01*
X36517833Y-1673914D01*
X36534740Y-1675500D01*
X36534744Y-1675500D01*
X37215256Y-1675500D01*
X37215260Y-1675500D01*
X37230052Y-1674112D01*
X37244849Y-1672725D01*
X37369475Y-1629116D01*
X37397789Y-1608220D01*
X37475711Y-1550711D01*
X37554114Y-1444478D01*
X37554114Y-1444477D01*
X37554116Y-1444475D01*
X37597725Y-1319849D01*
X37600500Y-1290256D01*
X37600500Y-786188D01*
X37609939Y-738735D01*
X37636816Y-698509D01*
X37941301Y-394023D01*
X37949258Y-386734D01*
X37978192Y-362457D01*
X37978192Y-362456D01*
X37978194Y-362455D01*
X37997091Y-329722D01*
X38002887Y-320625D01*
X38024554Y-289684D01*
X38024554Y-289682D01*
X38025173Y-288799D01*
X38035400Y-264108D01*
X38035587Y-263046D01*
X38035588Y-263045D01*
X38042146Y-225851D01*
X38044483Y-215303D01*
X38054264Y-178806D01*
X38050972Y-141176D01*
X38050500Y-130369D01*
X38050500Y725500D01*
X38067113Y787500D01*
X38112500Y832887D01*
X38174500Y849500D01*
X38179269Y849500D01*
X38209696Y852353D01*
X38337884Y897207D01*
X38447150Y977849D01*
X38527792Y1087115D01*
X38530768Y1095621D01*
X38572646Y1215301D01*
X38575500Y1245734D01*
X38575500Y2604266D01*
X38572646Y2634699D01*
X38527793Y2762882D01*
X38447150Y2872150D01*
X38347764Y2945500D01*
X38337884Y2952792D01*
X38337882Y2952792D01*
X38337882Y2952793D01*
X38209699Y2997646D01*
X38194482Y2999073D01*
X38179269Y3000500D01*
X38179266Y3000500D01*
X37270734Y3000500D01*
X37270731Y3000500D01*
X37252474Y2998787D01*
X37240301Y2997646D01*
X37120621Y2955768D01*
X37112115Y2952792D01*
X37002849Y2872150D01*
X36922207Y2762884D01*
X36877353Y2634696D01*
X36874500Y2604269D01*
X36874500Y1245731D01*
X36877353Y1215303D01*
X36922207Y1087115D01*
X37002849Y977849D01*
X37112115Y897207D01*
X37240303Y852353D01*
X37270731Y849500D01*
X37270734Y849500D01*
X37275500Y849500D01*
X37337500Y832887D01*
X37382887Y787500D01*
X37399500Y725500D01*
X37399500Y36188D01*
X37390061Y-11265D01*
X37363181Y-51493D01*
X37126493Y-288181D01*
X37086265Y-315061D01*
X37038812Y-324500D01*
X36534740Y-324500D01*
X36505154Y-327274D01*
X36380521Y-370885D01*
X36259250Y-460387D01*
X36258335Y-459148D01*
X36234385Y-478948D01*
X36175666Y-491006D01*
X36118152Y-474110D01*
X36075283Y-432210D01*
X35994943Y-301959D01*
X35873040Y-180056D01*
X35726301Y-89546D01*
X35562651Y-35318D01*
X35461647Y-25000D01*
X35375000Y-25000D01*
X35375000Y-1974999D01*
X34875000Y-1974999D01*
X34875000Y-1250000D01*
X34100001Y-1250000D01*
X24245500Y-1250000D01*
X24245500Y-1049795D01*
X24263142Y-986046D01*
X24311046Y-940437D01*
X24372460Y-907609D01*
X24478538Y-850910D01*
X24601497Y-750000D01*
X34100000Y-750000D01*
X34875000Y-750000D01*
X34875000Y-25001D01*
X34788353Y-25001D01*
X34687349Y-35318D01*
X34523698Y-89546D01*
X34376959Y-180056D01*
X34255056Y-301959D01*
X34164546Y-448698D01*
X34110318Y-612348D01*
X34100000Y-713353D01*
X34100000Y-750000D01*
X24601497Y-750000D01*
X24630883Y-725883D01*
X24755910Y-573538D01*
X24848814Y-399727D01*
X24906024Y-211132D01*
X24925341Y-15000D01*
X24906024Y181132D01*
X24848814Y369727D01*
X24755910Y543538D01*
X24630883Y695883D01*
X24478538Y820910D01*
X24372460Y877609D01*
X24311046Y910437D01*
X24263142Y956046D01*
X24245500Y1019795D01*
X24245500Y1245731D01*
X33774500Y1245731D01*
X33777353Y1215303D01*
X33822207Y1087115D01*
X33902849Y977849D01*
X34012115Y897207D01*
X34140303Y852353D01*
X34170731Y849500D01*
X34170734Y849500D01*
X35079266Y849500D01*
X35079269Y849500D01*
X35109696Y852353D01*
X35237884Y897207D01*
X35347150Y977849D01*
X35427792Y1087115D01*
X35430768Y1095621D01*
X35472646Y1215301D01*
X35475500Y1245734D01*
X35475500Y2604266D01*
X35472646Y2634699D01*
X35427793Y2762882D01*
X35347150Y2872150D01*
X35247764Y2945500D01*
X35237884Y2952792D01*
X35237882Y2952792D01*
X35237882Y2952793D01*
X35109699Y2997646D01*
X35094482Y2999073D01*
X35079269Y3000500D01*
X35079266Y3000500D01*
X35049500Y3000500D01*
X34987500Y3017113D01*
X34942113Y3062500D01*
X34925500Y3124500D01*
X34925500Y3131701D01*
X34938288Y3186545D01*
X34974014Y3230077D01*
X35028282Y3271718D01*
X35124536Y3397159D01*
X35148864Y3455893D01*
X35185044Y3543238D01*
X35205682Y3700000D01*
X35185044Y3856762D01*
X35124536Y4002841D01*
X35028282Y4128282D01*
X34902841Y4224536D01*
X34756762Y4285044D01*
X34600000Y4305682D01*
X34599999Y4305681D01*
X34599999Y4305682D01*
X34579360Y4302964D01*
X34443238Y4285044D01*
X34324959Y4236051D01*
X34297159Y4224536D01*
X34171717Y4128282D01*
X34075463Y4002840D01*
X34014956Y3856762D01*
X33994318Y3700000D01*
X34014956Y3543237D01*
X34075463Y3397159D01*
X34171717Y3271718D01*
X34225986Y3230077D01*
X34261712Y3186545D01*
X34274500Y3131701D01*
X34274500Y3123147D01*
X34259767Y3064524D01*
X34219071Y3019832D01*
X34162080Y2999689D01*
X34145693Y2998151D01*
X34140301Y2997646D01*
X34020621Y2955768D01*
X34012115Y2952792D01*
X33902849Y2872150D01*
X33822207Y2762884D01*
X33777353Y2634696D01*
X33774500Y2604269D01*
X33774500Y1245731D01*
X24245500Y1245731D01*
X24245500Y1490205D01*
X24263142Y1553954D01*
X24311046Y1599563D01*
X24478538Y1689090D01*
X24630883Y1814117D01*
X24755910Y1966462D01*
X24848814Y2140273D01*
X24906024Y2328868D01*
X24925341Y2525000D01*
X24906024Y2721132D01*
X24848814Y2909727D01*
X24755910Y3083538D01*
X24630883Y3235883D01*
X24478538Y3360910D01*
X24304727Y3453814D01*
X24116132Y3511024D01*
X23920000Y3530341D01*
X23723868Y3511024D01*
X23542126Y3455892D01*
X23476004Y3454270D01*
X23418454Y3486871D01*
X21189034Y5716290D01*
X21181734Y5724258D01*
X21157457Y5753192D01*
X21157456Y5753192D01*
X21157455Y5753194D01*
X21124722Y5772091D01*
X21115625Y5777887D01*
X21084684Y5799554D01*
X21084682Y5799554D01*
X21083799Y5800173D01*
X21059112Y5810399D01*
X21058047Y5810586D01*
X21058045Y5810588D01*
X21020830Y5817149D01*
X21010324Y5819478D01*
X20973807Y5829264D01*
X20936181Y5825972D01*
X20925373Y5825500D01*
X9386188Y5825500D01*
X9338735Y5834939D01*
X9298507Y5861819D01*
X8179826Y6980500D01*
X4744034Y10416290D01*
X4736734Y10424258D01*
X4712457Y10453192D01*
X4712456Y10453192D01*
X4712455Y10453194D01*
X4679722Y10472091D01*
X4670625Y10477887D01*
X4639684Y10499554D01*
X4639682Y10499554D01*
X4638799Y10500173D01*
X4614112Y10510399D01*
X4613047Y10510586D01*
X4613045Y10510588D01*
X4575830Y10517149D01*
X4565324Y10519478D01*
X4528807Y10529264D01*
X4491181Y10525972D01*
X4480373Y10525500D01*
X4226604Y10525500D01*
X4167436Y10540527D01*
X4122609Y10581965D01*
X4102986Y10639771D01*
X4102036Y10651829D01*
X4097936Y10703940D01*
X4088511Y10751321D01*
X4068286Y10795192D01*
X4038036Y10844555D01*
X4008129Y10882491D01*
X3781629Y11108991D01*
X3750490Y11134547D01*
X3710262Y11161427D01*
X3636182Y11192112D01*
X3636180Y11192113D01*
X3588735Y11201550D01*
X3588733Y11201550D01*
X3588729Y11201551D01*
X3548638Y11205500D01*
X2224500Y11205500D01*
X2224499Y11205500D01*
X2197906Y11201999D01*
X2171312Y11198498D01*
X2109312Y11181885D01*
X2077729Y11168802D01*
X2015243Y11160278D01*
X1956645Y11183592D01*
X1862882Y11252793D01*
X1734699Y11297646D01*
X1719482Y11299072D01*
X1704269Y11300500D01*
X1704266Y11300500D01*
X895734Y11300500D01*
X895731Y11300500D01*
X877474Y11298787D01*
X865301Y11297646D01*
X745621Y11255768D01*
X737115Y11252792D01*
X627849Y11172150D01*
X547207Y11062884D01*
X546542Y11060982D01*
X506813Y11004989D01*
X443384Y10978716D01*
X375699Y10990216D01*
X324506Y11035964D01*
X305500Y11101936D01*
X305500Y11876001D01*
X298498Y11929186D01*
X298498Y11929188D01*
X281885Y11991188D01*
X261355Y12040750D01*
X228697Y12083310D01*
X183310Y12128697D01*
X140750Y12161355D01*
X91188Y12181885D01*
X29188Y12198498D01*
X-11846Y12203900D01*
X-23999Y12205500D01*
X-24000Y12205500D01*
X-8094685Y12205500D01*
X-8161311Y12224920D01*
X-8207068Y12277096D01*
X-8217624Y12345687D01*
X-8189673Y12409207D01*
X-8177305Y12423946D01*
X-8089777Y12575549D01*
X-8029898Y12740064D01*
X-7999500Y12912467D01*
X-7999500Y15250000D01*
X-1805549Y15250000D01*
X-1785383Y14980897D01*
X-1725334Y14717805D01*
X-1626743Y14466602D01*
X-1491815Y14232898D01*
X-1323561Y14021915D01*
X-1130838Y13843094D01*
X-1125742Y13838366D01*
X-902771Y13686347D01*
X-772564Y13623643D01*
X-659641Y13569262D01*
X-580097Y13544726D01*
X-401771Y13489719D01*
X-134929Y13449500D01*
X134929Y13449500D01*
X401771Y13489719D01*
X580097Y13544726D01*
X659641Y13569262D01*
X902775Y13686349D01*
X1068205Y13799137D01*
X1125743Y13838366D01*
X1323560Y14021914D01*
X1409956Y14130251D01*
X7699500Y14130251D01*
X7711132Y14071769D01*
X7755447Y14005447D01*
X7821769Y13961132D01*
X7880251Y13949500D01*
X7880252Y13949500D01*
X12319748Y13949500D01*
X12319749Y13949500D01*
X12378230Y13961132D01*
X12444552Y14005447D01*
X12488867Y14071769D01*
X12500500Y14130251D01*
X17699500Y14130251D01*
X17711132Y14071769D01*
X17755447Y14005447D01*
X17821769Y13961132D01*
X17880251Y13949500D01*
X17880252Y13949500D01*
X22319748Y13949500D01*
X22319749Y13949500D01*
X22378230Y13961132D01*
X22444552Y14005447D01*
X22488867Y14071769D01*
X22500500Y14130251D01*
X27699500Y14130251D01*
X27711132Y14071769D01*
X27755447Y14005447D01*
X27821769Y13961132D01*
X27880251Y13949500D01*
X27880252Y13949500D01*
X32319748Y13949500D01*
X32319749Y13949500D01*
X32378230Y13961132D01*
X32444552Y14005447D01*
X32488867Y14071769D01*
X32500500Y14130251D01*
X37699500Y14130251D01*
X37711132Y14071769D01*
X37755447Y14005447D01*
X37821769Y13961132D01*
X37880251Y13949500D01*
X37880252Y13949500D01*
X42319748Y13949500D01*
X42319749Y13949500D01*
X42378230Y13961132D01*
X42444552Y14005447D01*
X42488867Y14071769D01*
X42500500Y14130251D01*
X42500500Y15250000D01*
X48394450Y15250000D01*
X48414616Y14980899D01*
X48474666Y14717804D01*
X48573257Y14466601D01*
X48708184Y14232899D01*
X48876439Y14021915D01*
X49074257Y13838366D01*
X49297228Y13686347D01*
X49540359Y13569262D01*
X49798228Y13489719D01*
X50065071Y13449500D01*
X50334929Y13449500D01*
X50601771Y13489719D01*
X50780097Y13544726D01*
X50859641Y13569262D01*
X51102775Y13686349D01*
X51268205Y13799137D01*
X51325743Y13838366D01*
X51523560Y14021914D01*
X51609957Y14130252D01*
X51691815Y14232898D01*
X51826743Y14466602D01*
X51925334Y14717805D01*
X51985383Y14980897D01*
X52005549Y15250000D01*
X51985383Y15519103D01*
X51925334Y15782195D01*
X51826743Y16033398D01*
X51691815Y16267102D01*
X51523561Y16478085D01*
X51325741Y16661635D01*
X51102775Y16813651D01*
X50859641Y16930738D01*
X50601772Y17010280D01*
X50334929Y17050500D01*
X50065071Y17050500D01*
X49798228Y17010280D01*
X49540359Y16930738D01*
X49297226Y16813651D01*
X49074259Y16661635D01*
X48876439Y16478085D01*
X48708185Y16267102D01*
X48662005Y16187115D01*
X48573257Y16033398D01*
X48474666Y15782195D01*
X48414616Y15519100D01*
X48394450Y15250000D01*
X42500500Y15250000D01*
X42500500Y15969749D01*
X42488867Y16028230D01*
X42488867Y16028231D01*
X42444552Y16094552D01*
X42378231Y16138867D01*
X42348989Y16144683D01*
X42319749Y16150500D01*
X42319748Y16150500D01*
X37880252Y16150500D01*
X37880251Y16150500D01*
X37821769Y16138867D01*
X37755447Y16094552D01*
X37711132Y16028230D01*
X37699500Y15969749D01*
X37699500Y14130251D01*
X32500500Y14130251D01*
X32500500Y15969749D01*
X32488867Y16028230D01*
X32488867Y16028231D01*
X32444552Y16094552D01*
X32378231Y16138867D01*
X32348989Y16144683D01*
X32319749Y16150500D01*
X32319748Y16150500D01*
X27880252Y16150500D01*
X27880251Y16150500D01*
X27821769Y16138867D01*
X27755447Y16094552D01*
X27711132Y16028230D01*
X27699500Y15969749D01*
X27699500Y14130251D01*
X22500500Y14130251D01*
X22500500Y15969749D01*
X22488867Y16028230D01*
X22488867Y16028231D01*
X22444552Y16094552D01*
X22378231Y16138867D01*
X22348989Y16144683D01*
X22319749Y16150500D01*
X22319748Y16150500D01*
X17880252Y16150500D01*
X17880251Y16150500D01*
X17821769Y16138867D01*
X17755447Y16094552D01*
X17711132Y16028230D01*
X17699500Y15969749D01*
X17699500Y14130251D01*
X12500500Y14130251D01*
X12500500Y15969749D01*
X12488867Y16028230D01*
X12488867Y16028231D01*
X12444552Y16094552D01*
X12378231Y16138867D01*
X12348989Y16144683D01*
X12319749Y16150500D01*
X12319748Y16150500D01*
X7880252Y16150500D01*
X7880251Y16150500D01*
X7821769Y16138867D01*
X7755447Y16094552D01*
X7711132Y16028230D01*
X7699500Y15969749D01*
X7699500Y14130251D01*
X1409956Y14130251D01*
X1409957Y14130252D01*
X1491815Y14232898D01*
X1626743Y14466602D01*
X1725334Y14717805D01*
X1785383Y14980897D01*
X1805549Y15250000D01*
X1785383Y15519103D01*
X1725334Y15782195D01*
X1626743Y16033398D01*
X1491815Y16267102D01*
X1323561Y16478085D01*
X1125741Y16661635D01*
X902775Y16813651D01*
X728505Y16897575D01*
X4199500Y16897575D01*
X4204529Y16844914D01*
X4214472Y16740779D01*
X4273683Y16539126D01*
X4369990Y16352315D01*
X4499906Y16187115D01*
X4658745Y16049479D01*
X4840754Y15944396D01*
X5039366Y15875655D01*
X5247396Y15845746D01*
X5247397Y15845746D01*
X5247398Y15845746D01*
X5457330Y15855746D01*
X5661576Y15905296D01*
X5661580Y15905297D01*
X5852752Y15992602D01*
X6023949Y16114512D01*
X6023952Y16114514D01*
X6168986Y16266622D01*
X6224060Y16352318D01*
X6282612Y16443425D01*
X6320924Y16539125D01*
X6360725Y16638543D01*
X6400500Y16844915D01*
X6400500Y16897575D01*
X14199500Y16897575D01*
X14204529Y16844914D01*
X14214472Y16740779D01*
X14273683Y16539126D01*
X14369990Y16352315D01*
X14499906Y16187115D01*
X14658745Y16049479D01*
X14840754Y15944396D01*
X15039366Y15875655D01*
X15247396Y15845746D01*
X15247397Y15845746D01*
X15247398Y15845746D01*
X15457330Y15855746D01*
X15661576Y15905296D01*
X15661580Y15905297D01*
X15852752Y15992602D01*
X16023949Y16114512D01*
X16023952Y16114514D01*
X16168986Y16266622D01*
X16224060Y16352318D01*
X16282612Y16443425D01*
X16320924Y16539125D01*
X16360725Y16638543D01*
X16400500Y16844915D01*
X16400500Y16897575D01*
X24199500Y16897575D01*
X24204529Y16844914D01*
X24214472Y16740779D01*
X24273683Y16539126D01*
X24369990Y16352315D01*
X24499906Y16187115D01*
X24658745Y16049479D01*
X24840754Y15944396D01*
X25039366Y15875655D01*
X25247396Y15845746D01*
X25247397Y15845746D01*
X25247398Y15845746D01*
X25457330Y15855746D01*
X25661576Y15905296D01*
X25661580Y15905297D01*
X25852752Y15992602D01*
X26023949Y16114512D01*
X26023952Y16114514D01*
X26168986Y16266622D01*
X26224060Y16352318D01*
X26282612Y16443425D01*
X26320924Y16539125D01*
X26360725Y16638543D01*
X26400500Y16844915D01*
X26400500Y16897575D01*
X34199500Y16897575D01*
X34204529Y16844914D01*
X34214472Y16740779D01*
X34273683Y16539126D01*
X34369990Y16352315D01*
X34499906Y16187115D01*
X34658745Y16049479D01*
X34840754Y15944396D01*
X35039366Y15875655D01*
X35247396Y15845746D01*
X35247397Y15845746D01*
X35247398Y15845746D01*
X35457330Y15855746D01*
X35661576Y15905296D01*
X35661580Y15905297D01*
X35852752Y15992602D01*
X36023949Y16114512D01*
X36023952Y16114514D01*
X36168986Y16266622D01*
X36224060Y16352318D01*
X36282612Y16443425D01*
X36320924Y16539125D01*
X36360725Y16638543D01*
X36400500Y16844915D01*
X36400500Y19202425D01*
X36385528Y19359218D01*
X36326316Y19560875D01*
X36230011Y19747682D01*
X36100092Y19912886D01*
X35941256Y20050519D01*
X35759244Y20155604D01*
X35560633Y20224344D01*
X35352602Y20254254D01*
X35142670Y20244254D01*
X34938424Y20194704D01*
X34938420Y20194702D01*
X34938419Y20194702D01*
X34747247Y20107397D01*
X34667374Y20050519D01*
X34576048Y19985486D01*
X34431014Y19833378D01*
X34431013Y19833376D01*
X34317387Y19656574D01*
X34279076Y19560875D01*
X34239275Y19461457D01*
X34199500Y19255085D01*
X34199500Y16897575D01*
X26400500Y16897575D01*
X26400500Y19202425D01*
X26385528Y19359218D01*
X26326316Y19560875D01*
X26230011Y19747682D01*
X26100092Y19912886D01*
X25941256Y20050519D01*
X25759244Y20155604D01*
X25560633Y20224344D01*
X25352602Y20254254D01*
X25142670Y20244254D01*
X24938424Y20194704D01*
X24938420Y20194702D01*
X24938419Y20194702D01*
X24747247Y20107397D01*
X24667374Y20050519D01*
X24576048Y19985486D01*
X24431014Y19833378D01*
X24431013Y19833376D01*
X24317387Y19656574D01*
X24279076Y19560875D01*
X24239275Y19461457D01*
X24199500Y19255085D01*
X24199500Y16897575D01*
X16400500Y16897575D01*
X16400500Y19202425D01*
X16385528Y19359218D01*
X16326316Y19560875D01*
X16230011Y19747682D01*
X16100092Y19912886D01*
X15941256Y20050519D01*
X15759244Y20155604D01*
X15560633Y20224344D01*
X15352602Y20254254D01*
X15142670Y20244254D01*
X14938424Y20194704D01*
X14938420Y20194702D01*
X14938419Y20194702D01*
X14747247Y20107397D01*
X14667374Y20050519D01*
X14576048Y19985486D01*
X14431014Y19833378D01*
X14431013Y19833376D01*
X14317387Y19656574D01*
X14279076Y19560875D01*
X14239275Y19461457D01*
X14199500Y19255085D01*
X14199500Y16897575D01*
X6400500Y16897575D01*
X6400500Y19202425D01*
X6385528Y19359218D01*
X6326316Y19560875D01*
X6230011Y19747682D01*
X6100092Y19912886D01*
X5941256Y20050519D01*
X5759244Y20155604D01*
X5560633Y20224344D01*
X5352602Y20254254D01*
X5142670Y20244254D01*
X4938424Y20194704D01*
X4938420Y20194702D01*
X4938419Y20194702D01*
X4747247Y20107397D01*
X4667374Y20050519D01*
X4576048Y19985486D01*
X4431014Y19833378D01*
X4431013Y19833376D01*
X4317387Y19656574D01*
X4279076Y19560875D01*
X4239275Y19461457D01*
X4199500Y19255085D01*
X4199500Y16897575D01*
X728505Y16897575D01*
X659641Y16930738D01*
X401772Y17010280D01*
X134929Y17050500D01*
X-134929Y17050500D01*
X-401772Y17010280D01*
X-659641Y16930738D01*
X-902774Y16813651D01*
X-1125741Y16661635D01*
X-1323561Y16478085D01*
X-1491815Y16267102D01*
X-1626743Y16033398D01*
X-1725334Y15782195D01*
X-1785383Y15519103D01*
X-1805549Y15250000D01*
X-7999500Y15250000D01*
X-7999500Y22994584D01*
X-7999028Y23005397D01*
X-7995581Y23044776D01*
X-7995456Y23046116D01*
X-7983082Y23171759D01*
X-7979454Y23191699D01*
X-7962127Y23256366D01*
X-7961013Y23260269D01*
X-7933319Y23351563D01*
X-7927040Y23367972D01*
X-7896329Y23433832D01*
X-7893305Y23439880D01*
X-7850985Y23519056D01*
X-7843201Y23531727D01*
X-7800380Y23592881D01*
X-7794659Y23600422D01*
X-7738821Y23668461D01*
X-7730649Y23677477D01*
X-7677477Y23730649D01*
X-7668461Y23738821D01*
X-7600422Y23794659D01*
X-7592881Y23800380D01*
X-7531727Y23843201D01*
X-7519056Y23850985D01*
X-7439880Y23893305D01*
X-7433832Y23896329D01*
X-7367972Y23927040D01*
X-7351563Y23933319D01*
X-7260269Y23961013D01*
X-7256366Y23962127D01*
X-7191699Y23979454D01*
X-7171759Y23983082D01*
X-7046116Y23995456D01*
X-7044776Y23995581D01*
X-7009760Y23998646D01*
X-7005392Y23999028D01*
X-6994584Y23999500D01*
X53994584Y23999500D01*
X54005392Y23999028D01*
G37*
%TD.AperFunction*%
%TD*%
%TA.AperFunction,Conductor*%
%TO.N,GND*%
G36*
X-8162000Y6483387D02*
G01*
X-8116613Y6438000D01*
X-8100000Y6376000D01*
X-8100000Y3124000D01*
X-8116613Y3062000D01*
X-8162000Y3016613D01*
X-8224000Y3000000D01*
X-11539793Y3000000D01*
X-11587246Y3009439D01*
X-11627474Y3036319D01*
X-11654354Y3076548D01*
X-11697300Y3180230D01*
X-11697302Y3180233D01*
X-11789549Y3300451D01*
X-11909767Y3392698D01*
X-12049764Y3450687D01*
X-12162279Y3465500D01*
X-12162280Y3465500D01*
X-12237720Y3465500D01*
X-12237721Y3465500D01*
X-12293977Y3458093D01*
X-12350236Y3450687D01*
X-12490233Y3392698D01*
X-12610451Y3300451D01*
X-12702698Y3180233D01*
X-12702699Y3180230D01*
X-12745646Y3076548D01*
X-12772526Y3036319D01*
X-12812754Y3009439D01*
X-12860207Y3000000D01*
X-12876000Y3000000D01*
X-12938000Y3016613D01*
X-12983387Y3062000D01*
X-13000000Y3124000D01*
X-13000000Y6376000D01*
X-12983387Y6438000D01*
X-12938000Y6483387D01*
X-12876000Y6500000D01*
X-8224000Y6500000D01*
X-8162000Y6483387D01*
G37*
%TD.AperFunction*%
%TD*%
%TA.AperFunction,Conductor*%
%TO.N,GND*%
G36*
X23187400Y-1640142D02*
G01*
X23232049Y-1680610D01*
X23252350Y-1737346D01*
X23243508Y-1796953D01*
X23216034Y-1833995D01*
X23216865Y-1834677D01*
X23209119Y-1844115D01*
X23209117Y-1844117D01*
X23109723Y-1965228D01*
X23084089Y-1996463D01*
X22991185Y-2170273D01*
X22933976Y-2358865D01*
X22931092Y-2388153D01*
X22910792Y-2444890D01*
X22866143Y-2485358D01*
X22807689Y-2500000D01*
X17412311Y-2500000D01*
X17353857Y-2485358D01*
X17309208Y-2444890D01*
X17288908Y-2388153D01*
X17286024Y-2358868D01*
X17228814Y-2170273D01*
X17135910Y-1996462D01*
X17010883Y-1844117D01*
X17010880Y-1844115D01*
X17003135Y-1834677D01*
X17003965Y-1833995D01*
X16976492Y-1796953D01*
X16967650Y-1737346D01*
X16987951Y-1680610D01*
X17032600Y-1640142D01*
X17091053Y-1625500D01*
X23128947Y-1625500D01*
X23187400Y-1640142D01*
G37*
%TD.AperFunction*%
%TA.AperFunction,Conductor*%
G36*
X4361265Y9865061D02*
G01*
X4401493Y9838181D01*
X5995161Y8244511D01*
X6028054Y8185777D01*
X6025411Y8118512D01*
X5988011Y8062539D01*
X5926877Y8034357D01*
X5860030Y8042268D01*
X5756762Y8085044D01*
X5600000Y8105682D01*
X5443238Y8085044D01*
X5320869Y8034357D01*
X5297159Y8024536D01*
X5171718Y7928282D01*
X5149260Y7899014D01*
X5105728Y7863288D01*
X5050884Y7850500D01*
X4960311Y7850500D01*
X4901858Y7865142D01*
X4857210Y7905608D01*
X4844552Y7924552D01*
X4778231Y7968867D01*
X4748989Y7974683D01*
X4719749Y7980500D01*
X4719748Y7980500D01*
X3580252Y7980500D01*
X3580251Y7980500D01*
X3521769Y7968867D01*
X3455447Y7924552D01*
X3411132Y7858230D01*
X3399500Y7799749D01*
X3399500Y7250251D01*
X3411132Y7191769D01*
X3459842Y7118870D01*
X3491943Y7083452D01*
X3506584Y7025000D01*
X3491943Y6966548D01*
X3459842Y6931129D01*
X3411132Y6858230D01*
X3399500Y6799749D01*
X3399500Y6250251D01*
X3411132Y6191769D01*
X3459844Y6118868D01*
X3491945Y6083446D01*
X3506584Y6024994D01*
X3491941Y5966543D01*
X3459844Y5931132D01*
X3411132Y5858230D01*
X3399500Y5799749D01*
X3399500Y5250251D01*
X3411132Y5191769D01*
X3459842Y5118870D01*
X3491943Y5083452D01*
X3506584Y5025000D01*
X3491943Y4966548D01*
X3459842Y4931129D01*
X3411132Y4858230D01*
X3399500Y4799749D01*
X3399500Y4250251D01*
X3411132Y4191769D01*
X3459842Y4118870D01*
X3491943Y4083452D01*
X3506584Y4025000D01*
X3491943Y3966548D01*
X3459842Y3931129D01*
X3411132Y3858230D01*
X3399500Y3799749D01*
X3399500Y3250251D01*
X3411132Y3191769D01*
X3455447Y3125447D01*
X3521769Y3081132D01*
X3580251Y3069500D01*
X3580252Y3069500D01*
X3700500Y3069500D01*
X3762500Y3052887D01*
X3807887Y3007500D01*
X3824500Y2945500D01*
X3824500Y2645802D01*
X3809767Y2587179D01*
X3769070Y2542486D01*
X3729320Y2528437D01*
X3729597Y2527648D01*
X3715302Y2522646D01*
X3715301Y2522646D01*
X3638391Y2495734D01*
X3587115Y2477792D01*
X3477849Y2397150D01*
X3397207Y2287884D01*
X3352353Y2159696D01*
X3349500Y2129269D01*
X3349500Y1070731D01*
X3352353Y1040303D01*
X3397207Y912115D01*
X3477849Y802849D01*
X3587117Y722206D01*
X3726697Y673365D01*
X3772692Y644731D01*
X3802087Y599218D01*
X3809270Y545517D01*
X3808235Y533692D01*
X3818012Y497204D01*
X3820352Y486648D01*
X3827097Y448399D01*
X3837331Y423693D01*
X3859606Y391880D01*
X3865414Y382764D01*
X3884305Y350045D01*
X3913244Y325762D01*
X3921216Y318456D01*
X5755950Y-1516276D01*
X5763258Y-1524250D01*
X5787545Y-1553194D01*
X5806745Y-1564279D01*
X5820256Y-1572080D01*
X5829379Y-1577892D01*
X5860316Y-1599554D01*
X5860317Y-1599554D01*
X5861198Y-1600171D01*
X5885891Y-1610400D01*
X5886954Y-1610587D01*
X5886955Y-1610588D01*
X5924143Y-1617145D01*
X5934701Y-1619485D01*
X5971193Y-1629264D01*
X6008823Y-1625971D01*
X6019630Y-1625500D01*
X15508947Y-1625500D01*
X15567400Y-1640142D01*
X15612049Y-1680610D01*
X15632350Y-1737346D01*
X15623508Y-1796953D01*
X15596034Y-1833995D01*
X15596865Y-1834677D01*
X15589119Y-1844115D01*
X15589117Y-1844117D01*
X15553387Y-1887654D01*
X15464090Y-1996461D01*
X15374563Y-2163954D01*
X15328954Y-2211858D01*
X15265205Y-2229500D01*
X3841189Y-2229500D01*
X3793736Y-2220061D01*
X3753508Y-2193181D01*
X424319Y1136007D01*
X397439Y1176235D01*
X388000Y1223688D01*
X388000Y4017881D01*
X388472Y4028688D01*
X391763Y4066304D01*
X391762Y4066304D01*
X391763Y4066307D01*
X381979Y4102816D01*
X379650Y4113322D01*
X373088Y4150545D01*
X373085Y4150549D01*
X372898Y4151612D01*
X362673Y4176299D01*
X362054Y4177182D01*
X362054Y4177184D01*
X340387Y4208125D01*
X334591Y4217222D01*
X315694Y4249955D01*
X286741Y4274248D01*
X278789Y4281535D01*
X-163181Y4723507D01*
X-190061Y4763735D01*
X-194928Y4788204D01*
X-197117Y4787769D01*
X-211132Y4858230D01*
X-267130Y4942036D01*
X-285358Y4962147D01*
X-300000Y5020600D01*
X-300000Y5029400D01*
X-285358Y5087853D01*
X-267130Y5107963D01*
X-211132Y5191769D01*
X-199500Y5250251D01*
X-199500Y5799749D01*
X-211132Y5858230D01*
X-267130Y5942036D01*
X-285358Y5962147D01*
X-300000Y6020600D01*
X-300000Y6029400D01*
X-285358Y6087853D01*
X-267130Y6107963D01*
X-211132Y6191769D01*
X-199500Y6250251D01*
X-199500Y6799749D01*
X-211132Y6858230D01*
X-267130Y6942036D01*
X-285358Y6962147D01*
X-300000Y7020600D01*
X-300000Y7029400D01*
X-285358Y7087853D01*
X-267130Y7107963D01*
X-211132Y7191769D01*
X-199500Y7250251D01*
X-199500Y7571379D01*
X-191798Y7614400D01*
X-169648Y7652077D01*
X299998Y8199998D01*
X300000Y8200000D01*
X300000Y8491259D01*
X301370Y8505165D01*
X300954Y8505207D01*
X305500Y8551363D01*
X305500Y9698064D01*
X324506Y9764036D01*
X375699Y9809784D01*
X443384Y9821284D01*
X506813Y9795011D01*
X546542Y9739018D01*
X547207Y9737115D01*
X627849Y9627849D01*
X737115Y9547207D01*
X865303Y9502353D01*
X895731Y9499500D01*
X895734Y9499500D01*
X1704266Y9499500D01*
X1704269Y9499500D01*
X1734696Y9502353D01*
X1862884Y9547207D01*
X1972150Y9627849D01*
X2052792Y9737115D01*
X2071806Y9791454D01*
X2097949Y9834841D01*
X2139261Y9864154D01*
X2188848Y9874500D01*
X4313812Y9874500D01*
X4361265Y9865061D01*
G37*
%TD.AperFunction*%
%TA.AperFunction,Conductor*%
G36*
X6344511Y7895161D02*
G01*
X8955958Y5283714D01*
X8963264Y5275741D01*
X8987544Y5246806D01*
X9020264Y5227914D01*
X9029380Y5222106D01*
X9061193Y5199831D01*
X9085899Y5189597D01*
X9124148Y5182852D01*
X9134704Y5180512D01*
X9171191Y5170735D01*
X9206121Y5173791D01*
X9208823Y5174028D01*
X9219630Y5174500D01*
X20758812Y5174500D01*
X20806265Y5165061D01*
X20846493Y5138181D01*
X22958125Y3026546D01*
X22990728Y2968995D01*
X22989105Y2902870D01*
X22933975Y2721131D01*
X22914659Y2525000D01*
X22933976Y2328866D01*
X22991185Y2140273D01*
X23084089Y1966463D01*
X23209117Y1814117D01*
X23361461Y1689090D01*
X23528954Y1599563D01*
X23576858Y1553954D01*
X23594500Y1490205D01*
X23594500Y1019795D01*
X23576858Y956046D01*
X23528954Y910437D01*
X23453303Y870000D01*
X23361462Y820910D01*
X23209117Y695883D01*
X23084090Y543538D01*
X23084089Y543536D01*
X22991185Y369726D01*
X22933976Y181133D01*
X22914659Y-14999D01*
X22933976Y-211133D01*
X22991185Y-399726D01*
X23063328Y-534696D01*
X23084090Y-573538D01*
X23209117Y-725883D01*
X23244168Y-754649D01*
X23280063Y-803047D01*
X23288905Y-862654D01*
X23268604Y-919391D01*
X23223955Y-959858D01*
X23165502Y-974500D01*
X17054498Y-974500D01*
X16996045Y-959858D01*
X16951396Y-919391D01*
X16931095Y-862654D01*
X16939937Y-803047D01*
X16975831Y-754649D01*
X17010883Y-725883D01*
X17135910Y-573538D01*
X17228814Y-399727D01*
X17286024Y-211132D01*
X17305341Y-15000D01*
X17286024Y181132D01*
X17228814Y369727D01*
X17135910Y543538D01*
X17010883Y695883D01*
X16858538Y820910D01*
X16684727Y913814D01*
X16496132Y971024D01*
X16300000Y990341D01*
X16103868Y971024D01*
X15915273Y913814D01*
X15741462Y820910D01*
X15589117Y695883D01*
X15464090Y543538D01*
X15400032Y423693D01*
X15382582Y391047D01*
X15336973Y343142D01*
X15273224Y325500D01*
X15024500Y325500D01*
X14962500Y342113D01*
X14917113Y387500D01*
X14900500Y449500D01*
X14900500Y504269D01*
X14897646Y534696D01*
X14897646Y534699D01*
X14852793Y662882D01*
X14850930Y665406D01*
X14772150Y772150D01*
X14662884Y852792D01*
X14662882Y852792D01*
X14662882Y852793D01*
X14534699Y897646D01*
X14534697Y897646D01*
X14520403Y902648D01*
X14521067Y904546D01*
X14481469Y919189D01*
X14440518Y968299D01*
X14431143Y1021791D01*
X14429263Y1028803D01*
X14429264Y1028807D01*
X14419478Y1065324D01*
X14417149Y1075830D01*
X14410588Y1113045D01*
X14410586Y1113047D01*
X14410399Y1114112D01*
X14400173Y1138799D01*
X14399554Y1139682D01*
X14399554Y1139684D01*
X14377887Y1170625D01*
X14372091Y1179722D01*
X14353194Y1212455D01*
X14324241Y1236748D01*
X14316288Y1244036D01*
X13844034Y1716290D01*
X13836734Y1724258D01*
X13812457Y1753192D01*
X13812456Y1753192D01*
X13812455Y1753194D01*
X13779722Y1772091D01*
X13770625Y1777887D01*
X13739684Y1799554D01*
X13739682Y1799554D01*
X13738799Y1800173D01*
X13714112Y1810399D01*
X13713047Y1810586D01*
X13713045Y1810588D01*
X13675830Y1817149D01*
X13665324Y1819478D01*
X13628807Y1829264D01*
X13591181Y1825972D01*
X13580373Y1825500D01*
X7816188Y1825500D01*
X7768735Y1834939D01*
X7728507Y1861819D01*
X4936819Y4653507D01*
X4909939Y4693735D01*
X4900500Y4741188D01*
X4900500Y4799749D01*
X4888867Y4858230D01*
X4888867Y4858231D01*
X4844552Y4924552D01*
X4844551Y4924552D01*
X4840157Y4931129D01*
X4808057Y4966547D01*
X4793415Y5025000D01*
X4808057Y5083453D01*
X4848524Y5128102D01*
X4863674Y5138225D01*
X4873924Y5147985D01*
X4925520Y5165033D01*
X4979452Y5158383D01*
X5025361Y5129312D01*
X5870958Y4283714D01*
X5878264Y4275741D01*
X5902544Y4246806D01*
X5935264Y4227914D01*
X5944380Y4222106D01*
X5976193Y4199831D01*
X6000899Y4189597D01*
X6039148Y4182852D01*
X6049704Y4180512D01*
X6086192Y4170735D01*
X6123820Y4174028D01*
X6134628Y4174500D01*
X13413812Y4174500D01*
X13461265Y4165061D01*
X13501490Y4138183D01*
X13544480Y4095194D01*
X13582596Y4057078D01*
X13614068Y4003723D01*
X13615804Y3941801D01*
X13587371Y3886767D01*
X13542813Y3856997D01*
X13427849Y3772150D01*
X13347207Y3662884D01*
X13302353Y3534696D01*
X13299500Y3504269D01*
X13299500Y2495731D01*
X13302353Y2465303D01*
X13347207Y2337115D01*
X13427849Y2227849D01*
X13537115Y2147207D01*
X13665303Y2102353D01*
X13695731Y2099500D01*
X13695734Y2099500D01*
X14504266Y2099500D01*
X14504269Y2099500D01*
X14534696Y2102353D01*
X14662884Y2147207D01*
X14772150Y2227849D01*
X14852792Y2337115D01*
X14873799Y2397150D01*
X14897646Y2465301D01*
X14898817Y2477792D01*
X14900500Y2495731D01*
X14900500Y2550500D01*
X14917113Y2612500D01*
X14962500Y2657887D01*
X15024500Y2674500D01*
X15175500Y2674500D01*
X15237500Y2657887D01*
X15282887Y2612500D01*
X15299500Y2550500D01*
X15299500Y1705251D01*
X15311132Y1646769D01*
X15355447Y1580447D01*
X15421769Y1536132D01*
X15480251Y1524500D01*
X15480252Y1524500D01*
X17119748Y1524500D01*
X17119749Y1524500D01*
X17178230Y1536132D01*
X17244552Y1580447D01*
X17288867Y1646769D01*
X17300500Y1705251D01*
X17300500Y3344749D01*
X17288867Y3403230D01*
X17288867Y3403231D01*
X17244552Y3469552D01*
X17178231Y3513867D01*
X17148989Y3519683D01*
X17119749Y3525500D01*
X17119748Y3525500D01*
X15480252Y3525500D01*
X15480251Y3525500D01*
X15421769Y3513867D01*
X15355447Y3469552D01*
X15297430Y3382723D01*
X15296505Y3383340D01*
X15292271Y3373999D01*
X15248742Y3338284D01*
X15193907Y3325500D01*
X15024500Y3325500D01*
X14962500Y3342113D01*
X14917113Y3387500D01*
X14900500Y3449500D01*
X14900500Y3504269D01*
X14898452Y3526107D01*
X14897646Y3534699D01*
X14852793Y3662882D01*
X14772150Y3772150D01*
X14734756Y3799748D01*
X14662884Y3852792D01*
X14662882Y3852792D01*
X14662882Y3852793D01*
X14534699Y3897646D01*
X14534697Y3897646D01*
X14520403Y3902648D01*
X14521067Y3904546D01*
X14481469Y3919189D01*
X14440518Y3968299D01*
X14431143Y4021791D01*
X14429263Y4028803D01*
X14429264Y4028807D01*
X14419478Y4065324D01*
X14417149Y4075830D01*
X14410588Y4113045D01*
X14410586Y4113047D01*
X14410399Y4114112D01*
X14400173Y4138799D01*
X14399554Y4139682D01*
X14399554Y4139684D01*
X14377887Y4170625D01*
X14372091Y4179722D01*
X14353194Y4212455D01*
X14324241Y4236748D01*
X14316288Y4244036D01*
X13844034Y4716290D01*
X13836734Y4724258D01*
X13812457Y4753192D01*
X13812456Y4753192D01*
X13812455Y4753194D01*
X13779722Y4772091D01*
X13770625Y4777887D01*
X13739684Y4799554D01*
X13739682Y4799554D01*
X13738799Y4800173D01*
X13714112Y4810399D01*
X13713047Y4810586D01*
X13713045Y4810588D01*
X13675830Y4817149D01*
X13665324Y4819478D01*
X13628807Y4829264D01*
X13591181Y4825972D01*
X13580373Y4825500D01*
X6301188Y4825500D01*
X6253735Y4834939D01*
X6213507Y4861819D01*
X6005826Y5069500D01*
X5375208Y5700116D01*
X5343997Y5752577D01*
X5341601Y5813576D01*
X5368600Y5868326D01*
X5418453Y5903559D01*
X5479076Y5910734D01*
X5599999Y5894814D01*
X5756762Y5915453D01*
X5902840Y5975960D01*
X6028282Y6072214D01*
X6124536Y6197656D01*
X6125300Y6199500D01*
X6185044Y6343735D01*
X6205682Y6500497D01*
X6185044Y6657259D01*
X6124536Y6803338D01*
X6031362Y6924764D01*
X6008679Y6973409D01*
X6008679Y7027086D01*
X6031364Y7075734D01*
X6124536Y7197159D01*
X6125954Y7200583D01*
X6185044Y7343238D01*
X6205682Y7500000D01*
X6185044Y7656762D01*
X6142268Y7760030D01*
X6134357Y7826877D01*
X6162539Y7888011D01*
X6218512Y7925411D01*
X6285777Y7928054D01*
X6344511Y7895161D01*
G37*
%TD.AperFunction*%
%TA.AperFunction,Conductor*%
G36*
X5062818Y3587743D02*
G01*
X5112181Y3557493D01*
X7385958Y1283714D01*
X7393264Y1275741D01*
X7417544Y1246806D01*
X7450264Y1227914D01*
X7459380Y1222106D01*
X7491193Y1199831D01*
X7515899Y1189597D01*
X7554148Y1182852D01*
X7564704Y1180512D01*
X7601192Y1170735D01*
X7638820Y1174028D01*
X7649628Y1174500D01*
X13413812Y1174500D01*
X13461265Y1165061D01*
X13501490Y1138183D01*
X13554841Y1084833D01*
X13582596Y1057078D01*
X13614068Y1003723D01*
X13615804Y941801D01*
X13587371Y886767D01*
X13542813Y856997D01*
X13427849Y772150D01*
X13347207Y662884D01*
X13302353Y534696D01*
X13299500Y504269D01*
X13299500Y-504269D01*
X13302353Y-534696D01*
X13347207Y-662884D01*
X13431330Y-776867D01*
X13455121Y-840078D01*
X13442254Y-906381D01*
X13396547Y-956106D01*
X13331560Y-974500D01*
X6186188Y-974500D01*
X6138735Y-965061D01*
X6098507Y-938181D01*
X5371458Y-211132D01*
X4642402Y517923D01*
X4610931Y571275D01*
X4609194Y633195D01*
X4637626Y688230D01*
X4682209Y718019D01*
X4797150Y802849D01*
X4877792Y912115D01*
X4896988Y966974D01*
X4922646Y1040301D01*
X4925450Y1070196D01*
X4925500Y1070731D01*
X4925500Y2129269D01*
X4922646Y2159696D01*
X4922646Y2159699D01*
X4877793Y2287882D01*
X4841455Y2337118D01*
X4797150Y2397150D01*
X4687884Y2477792D01*
X4687882Y2477792D01*
X4687882Y2477793D01*
X4559699Y2522646D01*
X4559697Y2522646D01*
X4558546Y2523049D01*
X4515159Y2549192D01*
X4485846Y2590504D01*
X4475500Y2640091D01*
X4475500Y2945500D01*
X4492113Y3007500D01*
X4537500Y3052887D01*
X4599500Y3069500D01*
X4719749Y3069500D01*
X4778230Y3081132D01*
X4844552Y3125447D01*
X4888867Y3191769D01*
X4900500Y3250251D01*
X4900500Y3469812D01*
X4914015Y3526107D01*
X4951615Y3570130D01*
X5005102Y3592285D01*
X5062818Y3587743D01*
G37*
%TD.AperFunction*%
%TD*%
%TA.AperFunction,Conductor*%
%TO.N,GND*%
G36*
X-12812754Y-3009439D02*
G01*
X-12772526Y-3036319D01*
X-12745645Y-3076548D01*
X-12702698Y-3180233D01*
X-12610451Y-3300451D01*
X-12490233Y-3392698D01*
X-12350236Y-3450687D01*
X-12293977Y-3458093D01*
X-12237721Y-3465500D01*
X-12237720Y-3465500D01*
X-12162280Y-3465500D01*
X-12162279Y-3465500D01*
X-12049764Y-3450687D01*
X-12049763Y-3450686D01*
X-11909767Y-3392698D01*
X-11789549Y-3300451D01*
X-11697302Y-3180233D01*
X-11697301Y-3180232D01*
X-11697300Y-3180230D01*
X-11654354Y-3076548D01*
X-11627474Y-3036319D01*
X-11587246Y-3009439D01*
X-11539793Y-3000000D01*
X-8224000Y-3000000D01*
X-8162000Y-3016613D01*
X-8116613Y-3062000D01*
X-8100000Y-3124000D01*
X-8100000Y-6376000D01*
X-8116613Y-6438000D01*
X-8162000Y-6483387D01*
X-8224000Y-6500000D01*
X-12876000Y-6500000D01*
X-12938000Y-6483387D01*
X-12983387Y-6438000D01*
X-13000000Y-6376000D01*
X-13000000Y-3124000D01*
X-12983387Y-3062000D01*
X-12938000Y-3016613D01*
X-12876000Y-3000000D01*
X-12860207Y-3000000D01*
X-12812754Y-3009439D01*
G37*
%TD.AperFunction*%
%TD*%
%TA.AperFunction,Conductor*%
%TO.N,VBUS*%
G36*
X38000Y11983387D02*
G01*
X83387Y11938000D01*
X100000Y11876000D01*
X100000Y8551362D01*
X90561Y8503909D01*
X63681Y8463681D01*
X-383181Y8016819D01*
X-423409Y7989939D01*
X-470862Y7980500D01*
X-1519749Y7980500D01*
X-1548989Y7974683D01*
X-1578231Y7968867D01*
X-1644552Y7924552D01*
X-1657210Y7905608D01*
X-1701858Y7865142D01*
X-1760311Y7850500D01*
X-2150884Y7850500D01*
X-2205728Y7863288D01*
X-2249260Y7899014D01*
X-2271718Y7928282D01*
X-2397159Y8024536D01*
X-2543238Y8085044D01*
X-2700000Y8105682D01*
X-2856762Y8085044D01*
X-3002841Y8024536D01*
X-3128282Y7928282D01*
X-3224536Y7802841D01*
X-3285044Y7656762D01*
X-3305682Y7500000D01*
X-3285044Y7343238D01*
X-3224536Y7197159D01*
X-3131171Y7075483D01*
X-3108488Y7026839D01*
X-3108488Y6973161D01*
X-3131171Y6924516D01*
X-3224536Y6802841D01*
X-3285044Y6656762D01*
X-3305682Y6500000D01*
X-3285044Y6343238D01*
X-3255598Y6272150D01*
X-3224536Y6197159D01*
X-3118344Y6058766D01*
X-3118545Y6058611D01*
X-3091998Y6024934D01*
X-3081660Y5964770D01*
X-3101283Y5906964D01*
X-3146111Y5865527D01*
X-3205278Y5850500D01*
X-3875500Y5850500D01*
X-3937500Y5867113D01*
X-3982887Y5912500D01*
X-3999500Y5974500D01*
X-3999500Y6004269D01*
X-4002353Y6034696D01*
X-4047207Y6162884D01*
X-4127849Y6272150D01*
X-4237115Y6352792D01*
X-4245621Y6355768D01*
X-4365301Y6397646D01*
X-4377474Y6398787D01*
X-4395731Y6400500D01*
X-4395734Y6400500D01*
X-5404266Y6400500D01*
X-5404269Y6400500D01*
X-5419482Y6399072D01*
X-5434699Y6397646D01*
X-5562882Y6352793D01*
X-5562882Y6352792D01*
X-5562884Y6352792D01*
X-5672150Y6272150D01*
X-5752793Y6162882D01*
X-5797646Y6034699D01*
X-5797646Y6034696D01*
X-5800500Y6004269D01*
X-5800500Y5195731D01*
X-5799296Y5182891D01*
X-5797646Y5165301D01*
X-5781398Y5118868D01*
X-5752792Y5037115D01*
X-5672150Y4927849D01*
X-5562884Y4847207D01*
X-5434696Y4802353D01*
X-5404269Y4799500D01*
X-5404266Y4799500D01*
X-4395734Y4799500D01*
X-4395731Y4799500D01*
X-4365303Y4802353D01*
X-4237115Y4847207D01*
X-4127849Y4927849D01*
X-4047208Y5037114D01*
X-4019446Y5116455D01*
X-3993302Y5159841D01*
X-3951991Y5189154D01*
X-3902404Y5199500D01*
X-1760311Y5199500D01*
X-1701858Y5184858D01*
X-1657210Y5144391D01*
X-1644552Y5125448D01*
X-1640155Y5118868D01*
X-1608057Y5083453D01*
X-1593415Y5025000D01*
X-1608057Y4966547D01*
X-1640157Y4931129D01*
X-1644551Y4924552D01*
X-1644552Y4924552D01*
X-1688867Y4858231D01*
X-1688867Y4858230D01*
X-1700500Y4799749D01*
X-1700500Y4250251D01*
X-1688867Y4191769D01*
X-1640157Y4118870D01*
X-1608057Y4083453D01*
X-1593415Y4025000D01*
X-1608057Y3966547D01*
X-1640157Y3931129D01*
X-1644551Y3924552D01*
X-1644552Y3924552D01*
X-1688867Y3858231D01*
X-1688867Y3858230D01*
X-1700500Y3799749D01*
X-1700500Y3250251D01*
X-1688867Y3191769D01*
X-1644552Y3125447D01*
X-1578230Y3081132D01*
X-1519749Y3069500D01*
X-1519748Y3069500D01*
X-1399500Y3069500D01*
X-1337500Y3052887D01*
X-1292113Y3007500D01*
X-1275500Y2945500D01*
X-1275500Y-5675500D01*
X-1292113Y-5737500D01*
X-1337500Y-5782887D01*
X-1399500Y-5799500D01*
X-1620763Y-5799500D01*
X-1688890Y-5809426D01*
X-1688891Y-5809426D01*
X-1688893Y-5809427D01*
X-1729585Y-5829320D01*
X-1793984Y-5860802D01*
X-1821361Y-5888180D01*
X-1861590Y-5915061D01*
X-1909043Y-5924500D01*
X-2441698Y-5924500D01*
X-2500321Y-5909767D01*
X-2545014Y-5869070D01*
X-2559062Y-5829320D01*
X-2559852Y-5829597D01*
X-2566910Y-5809427D01*
X-2576196Y-5782887D01*
X-2609707Y-5687115D01*
X-2690349Y-5577849D01*
X-2799615Y-5497207D01*
X-2927803Y-5452353D01*
X-2958231Y-5449500D01*
X-2958234Y-5449500D01*
X-3966766Y-5449500D01*
X-3966769Y-5449500D01*
X-3997196Y-5452353D01*
X-4125384Y-5497207D01*
X-4234650Y-5577849D01*
X-4315292Y-5687115D01*
X-4315293Y-5687118D01*
X-4360146Y-5815301D01*
X-4363000Y-5845734D01*
X-4363000Y-6654266D01*
X-4360146Y-6684699D01*
X-4316021Y-6810802D01*
X-4315292Y-6812884D01*
X-4234650Y-6922150D01*
X-4125384Y-7002792D01*
X-4125382Y-7002792D01*
X-4125382Y-7002793D01*
X-3997199Y-7047646D01*
X-3981982Y-7049072D01*
X-3966769Y-7050500D01*
X-3966766Y-7050500D01*
X-2958234Y-7050500D01*
X-2958231Y-7050500D01*
X-2939974Y-7048787D01*
X-2927801Y-7047646D01*
X-2799618Y-7002793D01*
X-2799615Y-7002792D01*
X-2690349Y-6922150D01*
X-2609707Y-6812884D01*
X-2572133Y-6705500D01*
X-2564854Y-6684699D01*
X-2564853Y-6684697D01*
X-2559852Y-6670403D01*
X-2559062Y-6670679D01*
X-2545014Y-6630930D01*
X-2500321Y-6590233D01*
X-2441698Y-6575500D01*
X-1993693Y-6575500D01*
X-1928031Y-6594312D01*
X-1882292Y-6645039D01*
X-1876698Y-6656483D01*
X-1793983Y-6739198D01*
X-1688893Y-6790573D01*
X-1654826Y-6795536D01*
X-1620763Y-6800500D01*
X-1620760Y-6800500D01*
X-379240Y-6800500D01*
X-379237Y-6800500D01*
X-338360Y-6794543D01*
X-311107Y-6790573D01*
X-206017Y-6739198D01*
X-206016Y-6739197D01*
X-206015Y-6739197D01*
X-111681Y-6644863D01*
X-62318Y-6614613D01*
X-4602Y-6610071D01*
X48885Y-6632226D01*
X86485Y-6676249D01*
X100000Y-6732544D01*
X100000Y-6740457D01*
X90561Y-6787910D01*
X63683Y-6828135D01*
X-1698Y-6893517D01*
X-53073Y-6998607D01*
X-63000Y-7066740D01*
X-63000Y-7433260D01*
X-53073Y-7501393D01*
X-1698Y-7606483D01*
X63683Y-7671864D01*
X90561Y-7712090D01*
X100000Y-7759543D01*
X100000Y-11876000D01*
X83387Y-11938000D01*
X38000Y-11983387D01*
X-24000Y-12000000D01*
X-7898784Y-12000000D01*
X-7904502Y-11999500D01*
X-7912468Y-11999500D01*
X-7999901Y-11999500D01*
X-13351015Y-11999500D01*
X-13361139Y-11999086D01*
X-13364435Y-11998816D01*
X-13391662Y-11996585D01*
X-13393339Y-11996436D01*
X-13520677Y-11984258D01*
X-13538971Y-11981112D01*
X-13598415Y-11966238D01*
X-13603304Y-11964909D01*
X-13693808Y-11938291D01*
X-13708092Y-11933119D01*
X-13769657Y-11906461D01*
X-13777286Y-11902845D01*
X-13856414Y-11861978D01*
X-13866644Y-11856060D01*
X-13924151Y-11819031D01*
X-13933772Y-11812166D01*
X-14003695Y-11757061D01*
X-14010146Y-11751612D01*
X-14059910Y-11706578D01*
X-14070528Y-11695714D01*
X-14132205Y-11624344D01*
X-14135438Y-11620444D01*
X-14173580Y-11572479D01*
X-14184014Y-11557126D01*
X-14247811Y-11446210D01*
X-14248642Y-11444743D01*
X-14263531Y-11418023D01*
X-14268097Y-11408977D01*
X-16555814Y-6376000D01*
X-13205500Y-6376000D01*
X-13198498Y-6429188D01*
X-13181885Y-6491188D01*
X-13161355Y-6540750D01*
X-13128697Y-6583310D01*
X-13083310Y-6628697D01*
X-13040750Y-6661355D01*
X-12991188Y-6681885D01*
X-12929188Y-6698498D01*
X-12893729Y-6703165D01*
X-12876001Y-6705500D01*
X-12876000Y-6705500D01*
X-11309515Y-6705500D01*
X-11300000Y-6706123D01*
X-11290485Y-6705500D01*
X-10409515Y-6705500D01*
X-10400000Y-6706123D01*
X-10390485Y-6705500D01*
X-9509515Y-6705500D01*
X-9500000Y-6706123D01*
X-9490485Y-6705500D01*
X-8609515Y-6705500D01*
X-8600000Y-6706123D01*
X-8590485Y-6705500D01*
X-8223999Y-6705500D01*
X-8197405Y-6701998D01*
X-8170812Y-6698498D01*
X-8108812Y-6681885D01*
X-8059250Y-6661355D01*
X-8016690Y-6628697D01*
X-8016688Y-6628695D01*
X-8016684Y-6628692D01*
X-7971307Y-6583315D01*
X-7965310Y-6575500D01*
X-7938645Y-6540750D01*
X-7938643Y-6540746D01*
X-7918116Y-6491192D01*
X-7901501Y-6429186D01*
X-7894500Y-6376001D01*
X-7894500Y-3123999D01*
X-7901501Y-3070813D01*
X-7918116Y-3008807D01*
X-7938643Y-2959253D01*
X-7971307Y-2916684D01*
X-8016684Y-2871307D01*
X-8059253Y-2838643D01*
X-8108807Y-2818116D01*
X-8170813Y-2801501D01*
X-8223999Y-2794500D01*
X-8224000Y-2794500D01*
X-8590485Y-2794500D01*
X-8600000Y-2793876D01*
X-8609515Y-2794500D01*
X-9864218Y-2794500D01*
X-9900214Y-2789160D01*
X-9933110Y-2773601D01*
X-9951769Y-2761132D01*
X-10010251Y-2749500D01*
X-10010252Y-2749500D01*
X-11499748Y-2749500D01*
X-11499750Y-2749500D01*
X-11525154Y-2754553D01*
X-11581438Y-2752711D01*
X-11631103Y-2726165D01*
X-11663906Y-2680390D01*
X-11697301Y-2599768D01*
X-11789549Y-2479549D01*
X-11909768Y-2387301D01*
X-12049764Y-2329312D01*
X-12162279Y-2314500D01*
X-12162280Y-2314500D01*
X-12237720Y-2314500D01*
X-12237721Y-2314500D01*
X-12350235Y-2329312D01*
X-12490231Y-2387301D01*
X-12490233Y-2387302D01*
X-12610451Y-2479549D01*
X-12702698Y-2599767D01*
X-12702698Y-2599768D01*
X-12702699Y-2599769D01*
X-12751652Y-2717952D01*
X-12778532Y-2758181D01*
X-12818760Y-2785061D01*
X-12866213Y-2794500D01*
X-12876001Y-2794500D01*
X-12929186Y-2801501D01*
X-12991192Y-2818116D01*
X-13040746Y-2838643D01*
X-13040750Y-2838645D01*
X-13083310Y-2871303D01*
X-13083315Y-2871307D01*
X-13128692Y-2916684D01*
X-13128695Y-2916688D01*
X-13128697Y-2916690D01*
X-13161355Y-2959250D01*
X-13181885Y-3008812D01*
X-13198498Y-3070812D01*
X-13205500Y-3124000D01*
X-13205500Y-6376000D01*
X-16555814Y-6376000D01*
X-16908080Y-5601014D01*
X-16911445Y-5592851D01*
X-16914015Y-5585927D01*
X-16915472Y-5581780D01*
X-16966312Y-5428348D01*
X-16969794Y-5415598D01*
X-16978958Y-5373294D01*
X-16981064Y-5360243D01*
X-16998268Y-5199557D01*
X-16998658Y-5195182D01*
X-16999185Y-5187797D01*
X-16999500Y-5178971D01*
X-16999500Y-4711849D01*
X-16982384Y-4648986D01*
X-16935762Y-4603477D01*
X-16872504Y-4587885D01*
X-16810073Y-4606515D01*
X-16765703Y-4654223D01*
X-16730734Y-4720852D01*
X-16617929Y-4848183D01*
X-16477930Y-4944818D01*
X-16318872Y-5005140D01*
X-16192372Y-5020500D01*
X-15507629Y-5020500D01*
X-15507628Y-5020500D01*
X-15381128Y-5005140D01*
X-15222070Y-4944818D01*
X-15082071Y-4848183D01*
X-14969266Y-4720852D01*
X-14931547Y-4648986D01*
X-14890209Y-4570224D01*
X-14849500Y-4405055D01*
X-14849500Y-4234945D01*
X-14890209Y-4069775D01*
X-14969265Y-3919149D01*
X-15082072Y-3791815D01*
X-15222069Y-3695182D01*
X-15381127Y-3634860D01*
X-15444377Y-3627180D01*
X-15507628Y-3619500D01*
X-16192372Y-3619500D01*
X-16318871Y-3634859D01*
X-16318872Y-3634860D01*
X-16477930Y-3695182D01*
X-16617927Y-3791815D01*
X-16617928Y-3791816D01*
X-16617929Y-3791817D01*
X-16730734Y-3919148D01*
X-16730735Y-3919150D01*
X-16765704Y-3985777D01*
X-16810073Y-4033485D01*
X-16872504Y-4052115D01*
X-16935762Y-4036523D01*
X-16982384Y-3991014D01*
X-16999500Y-3928151D01*
X-16999500Y-1400000D01*
X-13405682Y-1400000D01*
X-13385044Y-1556762D01*
X-13324536Y-1702841D01*
X-13228282Y-1828282D01*
X-13102841Y-1924536D01*
X-12956762Y-1985044D01*
X-12800000Y-2005682D01*
X-12643238Y-1985044D01*
X-12497159Y-1924536D01*
X-12490919Y-1919748D01*
X-12444028Y-1883768D01*
X-12390074Y-1860028D01*
X-12331254Y-1863883D01*
X-12280863Y-1894461D01*
X-12209034Y-1966290D01*
X-12201736Y-1974255D01*
X-12177455Y-2003194D01*
X-12144722Y-2022091D01*
X-12135625Y-2027887D01*
X-12104684Y-2049554D01*
X-12104682Y-2049554D01*
X-12103799Y-2050173D01*
X-12079112Y-2060399D01*
X-12078047Y-2060586D01*
X-12078045Y-2060588D01*
X-12040830Y-2067149D01*
X-12030324Y-2069478D01*
X-11993807Y-2079264D01*
X-11956176Y-2075971D01*
X-11945370Y-2075500D01*
X-11615851Y-2075500D01*
X-11579856Y-2080839D01*
X-11566258Y-2087270D01*
X-11558231Y-2088866D01*
X-11558231Y-2088867D01*
X-11524793Y-2095518D01*
X-11499749Y-2100500D01*
X-11499748Y-2100500D01*
X-10010252Y-2100500D01*
X-10010251Y-2100500D01*
X-9951769Y-2088867D01*
X-9885447Y-2044552D01*
X-9841132Y-1978230D01*
X-9829500Y-1919749D01*
X-9829500Y-1580253D01*
X-9840651Y-1524190D01*
X-9840651Y-1475810D01*
X-9829500Y-1419747D01*
X-9829500Y-1202094D01*
X-9817883Y-1149690D01*
X-9785207Y-1107106D01*
X-9737596Y-1082320D01*
X-9697286Y-1071518D01*
X-9689701Y-1069485D01*
X-9679160Y-1067148D01*
X-9665386Y-1064719D01*
X-9606568Y-1068572D01*
X-9556173Y-1099151D01*
X-9489034Y-1166290D01*
X-9481736Y-1174255D01*
X-9457455Y-1203194D01*
X-9424722Y-1222091D01*
X-9415625Y-1227887D01*
X-9384684Y-1249554D01*
X-9384682Y-1249554D01*
X-9383799Y-1250173D01*
X-9359112Y-1260399D01*
X-9358047Y-1260586D01*
X-9358045Y-1260588D01*
X-9320830Y-1267149D01*
X-9310324Y-1269478D01*
X-9273807Y-1279264D01*
X-9236176Y-1275971D01*
X-9225370Y-1275500D01*
X-7721543Y-1275500D01*
X-7674090Y-1284939D01*
X-7633864Y-1311816D01*
X-7556483Y-1389198D01*
X-7451393Y-1440573D01*
X-7417326Y-1445536D01*
X-7383263Y-1450500D01*
X-7383260Y-1450500D01*
X-6291740Y-1450500D01*
X-6291737Y-1450500D01*
X-6250860Y-1444543D01*
X-6223607Y-1440573D01*
X-6118517Y-1389198D01*
X-6118516Y-1389197D01*
X-6118515Y-1389197D01*
X-6035802Y-1306484D01*
X-5997572Y-1228282D01*
X-5984427Y-1201393D01*
X-5984426Y-1201391D01*
X-5984426Y-1201390D01*
X-5974500Y-1133263D01*
X-5425500Y-1133263D01*
X-5423106Y-1149690D01*
X-5415573Y-1201393D01*
X-5364198Y-1306483D01*
X-5281483Y-1389198D01*
X-5176393Y-1440573D01*
X-5142326Y-1445536D01*
X-5108263Y-1450500D01*
X-5108260Y-1450500D01*
X-4016740Y-1450500D01*
X-4016737Y-1450500D01*
X-3975860Y-1444543D01*
X-3948607Y-1440573D01*
X-3843517Y-1389198D01*
X-3766135Y-1311816D01*
X-3725910Y-1284939D01*
X-3678457Y-1275500D01*
X-3308838Y-1275500D01*
X-3268979Y-1282081D01*
X-3233350Y-1301125D01*
X-3202841Y-1324536D01*
X-3056762Y-1385044D01*
X-2900000Y-1405682D01*
X-2743238Y-1385044D01*
X-2597159Y-1324536D01*
X-2538159Y-1279264D01*
X-2471717Y-1228282D01*
X-2375463Y-1102840D01*
X-2314956Y-956762D01*
X-2294317Y-799999D01*
X-2314956Y-643237D01*
X-2375463Y-497159D01*
X-2471717Y-371717D01*
X-2597159Y-275463D01*
X-2743237Y-214956D01*
X-2900000Y-194317D01*
X-3056762Y-214956D01*
X-3202840Y-275463D01*
X-3328282Y-371717D01*
X-3420033Y-491290D01*
X-3424536Y-497159D01*
X-3445576Y-547955D01*
X-3472454Y-588181D01*
X-3512683Y-615061D01*
X-3560136Y-624500D01*
X-3678457Y-624500D01*
X-3725910Y-615061D01*
X-3766135Y-588183D01*
X-3807246Y-547073D01*
X-3843517Y-510801D01*
X-3948609Y-459426D01*
X-4016737Y-449500D01*
X-4016740Y-449500D01*
X-5108260Y-449500D01*
X-5108263Y-449500D01*
X-5176390Y-459426D01*
X-5176391Y-459426D01*
X-5176393Y-459427D01*
X-5208248Y-475000D01*
X-5281484Y-510802D01*
X-5364197Y-593515D01*
X-5364197Y-593516D01*
X-5364198Y-593517D01*
X-5415573Y-698607D01*
X-5415573Y-698609D01*
X-5425500Y-766737D01*
X-5425500Y-1133263D01*
X-5974500Y-1133263D01*
X-5974500Y-766737D01*
X-5984426Y-698609D01*
X-6035802Y-593515D01*
X-6066637Y-562681D01*
X-6098731Y-507094D01*
X-6098731Y-442906D01*
X-6066637Y-387319D01*
X-6035802Y-356484D01*
X-5995994Y-275054D01*
X-5984427Y-251393D01*
X-5984426Y-251391D01*
X-5984426Y-251390D01*
X-5974500Y-183263D01*
X-5974500Y183263D01*
X-5984426Y251390D01*
X-5988481Y259684D01*
X-6020655Y325500D01*
X-6035802Y356484D01*
X-6066637Y387319D01*
X-6098731Y442906D01*
X-6098731Y507094D01*
X-6066637Y562681D01*
X-6035802Y593515D01*
X-5984426Y698609D01*
X-5974500Y766737D01*
X-5974500Y766740D01*
X-5425500Y766740D01*
X-5415573Y698607D01*
X-5374730Y615061D01*
X-5364197Y593515D01*
X-5281484Y510802D01*
X-5227712Y484515D01*
X-5176393Y459427D01*
X-5176391Y459426D01*
X-5176390Y459426D01*
X-5108263Y449500D01*
X-5108260Y449500D01*
X-4016740Y449500D01*
X-4016737Y449500D01*
X-3948609Y459426D01*
X-3843517Y510801D01*
X-3791638Y562681D01*
X-3766135Y588183D01*
X-3725910Y615061D01*
X-3678457Y624500D01*
X-3601557Y624500D01*
X-3554104Y615061D01*
X-3513875Y588181D01*
X-3486996Y547952D01*
X-3485044Y543240D01*
X-3485044Y543238D01*
X-3431908Y414956D01*
X-3424536Y397159D01*
X-3328282Y271717D01*
X-3202840Y175463D01*
X-3056762Y114956D01*
X-2900000Y94317D01*
X-2743237Y114956D01*
X-2597159Y175463D01*
X-2471717Y271717D01*
X-2375463Y397159D01*
X-2314956Y543237D01*
X-2294318Y700000D01*
X-2314956Y856762D01*
X-2375463Y1002840D01*
X-2471717Y1128282D01*
X-2597159Y1224536D01*
X-2743238Y1285044D01*
X-2900000Y1305682D01*
X-3056762Y1285044D01*
X-3056763Y1285043D01*
X-3065873Y1283844D01*
X-3090998Y1277985D01*
X-3112075Y1280061D01*
X-3121191Y1279263D01*
X-3121193Y1279264D01*
X-3158819Y1275972D01*
X-3169627Y1275500D01*
X-3678457Y1275500D01*
X-3725910Y1284939D01*
X-3766135Y1311816D01*
X-3843517Y1389198D01*
X-3948607Y1440573D01*
X-3975860Y1444543D01*
X-4016737Y1450500D01*
X-4016740Y1450500D01*
X-5108260Y1450500D01*
X-5108263Y1450500D01*
X-5142326Y1445536D01*
X-5176393Y1440573D01*
X-5281483Y1389198D01*
X-5364198Y1306483D01*
X-5415573Y1201393D01*
X-5418453Y1181623D01*
X-5424882Y1137500D01*
X-5425500Y1133260D01*
X-5425500Y766740D01*
X-5974500Y766740D01*
X-5974500Y1133263D01*
X-5984426Y1201390D01*
X-6035802Y1306484D01*
X-6118515Y1389197D01*
X-6118517Y1389198D01*
X-6223607Y1440573D01*
X-6250860Y1444543D01*
X-6291737Y1450500D01*
X-6291740Y1450500D01*
X-7383260Y1450500D01*
X-7383263Y1450500D01*
X-7417326Y1445536D01*
X-7451393Y1440573D01*
X-7556483Y1389198D01*
X-7639198Y1306483D01*
X-7690573Y1201393D01*
X-7693453Y1181623D01*
X-7715241Y1127447D01*
X-7759407Y1089249D01*
X-7816158Y1075500D01*
X-9705500Y1075500D01*
X-9767500Y1092113D01*
X-9812887Y1137500D01*
X-9829500Y1199500D01*
X-9829500Y1419747D01*
X-9840651Y1475810D01*
X-9840651Y1524190D01*
X-9829500Y1580253D01*
X-9829500Y1919749D01*
X-9841132Y1978230D01*
X-9885447Y2044552D01*
X-9951769Y2088867D01*
X-10010251Y2100500D01*
X-10010252Y2100500D01*
X-11499748Y2100500D01*
X-11499749Y2100500D01*
X-11528989Y2094683D01*
X-11558231Y2088867D01*
X-11624552Y2044552D01*
X-11668867Y1978231D01*
X-11668867Y1978230D01*
X-11680500Y1919749D01*
X-11680500Y1699500D01*
X-11697113Y1637500D01*
X-11742500Y1592113D01*
X-11804500Y1575500D01*
X-12530384Y1575500D01*
X-12541192Y1575972D01*
X-12587928Y1580061D01*
X-12608997Y1577985D01*
X-12634132Y1583845D01*
X-12643237Y1585043D01*
X-12643238Y1585044D01*
X-12729633Y1596418D01*
X-12799999Y1605682D01*
X-12799999Y1605681D01*
X-12800000Y1605682D01*
X-12956762Y1585044D01*
X-13102841Y1524536D01*
X-13228282Y1428282D01*
X-13324536Y1302841D01*
X-13385044Y1156762D01*
X-13405682Y1000000D01*
X-13385044Y843238D01*
X-13377508Y825045D01*
X-13324536Y697159D01*
X-13228282Y571717D01*
X-13102840Y475463D01*
X-12956762Y414956D01*
X-12800000Y394317D01*
X-12643237Y414956D01*
X-12496952Y475549D01*
X-12437345Y484391D01*
X-12380609Y464090D01*
X-12340142Y419441D01*
X-12325500Y360988D01*
X-12325500Y-80373D01*
X-12325971Y-91180D01*
X-12329264Y-128807D01*
X-12319478Y-165324D01*
X-12317149Y-175830D01*
X-12310588Y-213045D01*
X-12310586Y-213047D01*
X-12310399Y-214112D01*
X-12300173Y-238799D01*
X-12299554Y-239682D01*
X-12299554Y-239684D01*
X-12277887Y-270625D01*
X-12272091Y-279722D01*
X-12253194Y-312455D01*
X-12224248Y-336742D01*
X-12216295Y-344029D01*
X-12069024Y-491301D01*
X-12061736Y-499254D01*
X-12037455Y-528194D01*
X-12004738Y-547082D01*
X-11995635Y-552881D01*
X-11964684Y-574554D01*
X-11964682Y-574554D01*
X-11963799Y-575173D01*
X-11939112Y-585398D01*
X-11938049Y-585585D01*
X-11938045Y-585588D01*
X-11900822Y-592150D01*
X-11890316Y-594479D01*
X-11853807Y-604263D01*
X-11816188Y-600971D01*
X-11805382Y-600500D01*
X-11804500Y-600500D01*
X-11742500Y-617113D01*
X-11697113Y-662500D01*
X-11680500Y-724500D01*
X-11680500Y-919748D01*
X-11669348Y-975813D01*
X-11669348Y-1024187D01*
X-11680303Y-1079264D01*
X-11680500Y-1080253D01*
X-11680500Y-1274812D01*
X-11694015Y-1331107D01*
X-11731615Y-1375130D01*
X-11785103Y-1397285D01*
X-11842819Y-1392743D01*
X-11892178Y-1362494D01*
X-12070958Y-1183714D01*
X-12078264Y-1175741D01*
X-12102544Y-1146806D01*
X-12135264Y-1127914D01*
X-12144380Y-1122106D01*
X-12176193Y-1099831D01*
X-12200899Y-1089597D01*
X-12239148Y-1082852D01*
X-12249705Y-1080512D01*
X-12257550Y-1078410D01*
X-12294347Y-1061738D01*
X-12323832Y-1034122D01*
X-12371716Y-971718D01*
X-12497159Y-875463D01*
X-12643237Y-814956D01*
X-12800000Y-794317D01*
X-12956762Y-814956D01*
X-13102840Y-875463D01*
X-13228282Y-971717D01*
X-13324170Y-1096682D01*
X-13324536Y-1097159D01*
X-13385044Y-1243238D01*
X-13405682Y-1400000D01*
X-16999500Y-1400000D01*
X-16999500Y3124000D01*
X-13205500Y3124000D01*
X-13198498Y3070812D01*
X-13181885Y3008812D01*
X-13161355Y2959250D01*
X-13128697Y2916690D01*
X-13128692Y2916684D01*
X-13083315Y2871307D01*
X-13083310Y2871303D01*
X-13040750Y2838645D01*
X-13040746Y2838643D01*
X-12991192Y2818116D01*
X-12929186Y2801501D01*
X-12876001Y2794500D01*
X-12866213Y2794500D01*
X-12818760Y2785061D01*
X-12778532Y2758181D01*
X-12751652Y2717952D01*
X-12702698Y2599767D01*
X-12610451Y2479549D01*
X-12490233Y2387302D01*
X-12490231Y2387301D01*
X-12350235Y2329312D01*
X-12237721Y2314500D01*
X-12237720Y2314500D01*
X-12162280Y2314500D01*
X-12162279Y2314500D01*
X-12049764Y2329312D01*
X-11909768Y2387301D01*
X-11789549Y2479549D01*
X-11697301Y2599768D01*
X-11663906Y2680390D01*
X-11631103Y2726165D01*
X-11581438Y2752711D01*
X-11525154Y2754553D01*
X-11499750Y2749500D01*
X-11499748Y2749500D01*
X-10010252Y2749500D01*
X-10010251Y2749500D01*
X-9951769Y2761132D01*
X-9933110Y2773601D01*
X-9900214Y2789160D01*
X-9864218Y2794500D01*
X-8609515Y2794500D01*
X-8600000Y2793876D01*
X-8590485Y2794500D01*
X-8223999Y2794500D01*
X-8170813Y2801501D01*
X-8108807Y2818116D01*
X-8059253Y2838643D01*
X-8016684Y2871307D01*
X-7971307Y2916684D01*
X-7938643Y2959253D01*
X-7918116Y3008807D01*
X-7901501Y3070813D01*
X-7894500Y3123999D01*
X-7894500Y6376001D01*
X-7901501Y6429186D01*
X-7918116Y6491192D01*
X-7938643Y6540746D01*
X-7938645Y6540750D01*
X-7971303Y6583310D01*
X-7971307Y6583315D01*
X-8016684Y6628692D01*
X-8016688Y6628695D01*
X-8016690Y6628697D01*
X-8059250Y6661355D01*
X-8108812Y6681885D01*
X-8170812Y6698498D01*
X-8197405Y6701998D01*
X-8223999Y6705500D01*
X-8224000Y6705500D01*
X-8590485Y6705500D01*
X-8600000Y6706123D01*
X-8609515Y6705500D01*
X-9490485Y6705500D01*
X-9500000Y6706123D01*
X-9509515Y6705500D01*
X-10390485Y6705500D01*
X-10400000Y6706123D01*
X-10409515Y6705500D01*
X-11290485Y6705500D01*
X-11300000Y6706123D01*
X-11309515Y6705500D01*
X-12876001Y6705500D01*
X-12893729Y6703165D01*
X-12929188Y6698498D01*
X-12991188Y6681885D01*
X-13040750Y6661355D01*
X-13083310Y6628697D01*
X-13128697Y6583310D01*
X-13161355Y6540750D01*
X-13181885Y6491188D01*
X-13198498Y6429188D01*
X-13205500Y6376000D01*
X-13205500Y3124000D01*
X-16999500Y3124000D01*
X-16999500Y3928151D01*
X-16982384Y3991014D01*
X-16935762Y4036523D01*
X-16872504Y4052115D01*
X-16810073Y4033485D01*
X-16765704Y3985777D01*
X-16730734Y3919148D01*
X-16624956Y3799749D01*
X-16617927Y3791815D01*
X-16477930Y3695182D01*
X-16318872Y3634860D01*
X-16192372Y3619500D01*
X-15507629Y3619500D01*
X-15507628Y3619500D01*
X-15444377Y3627180D01*
X-15381127Y3634860D01*
X-15222069Y3695182D01*
X-15082072Y3791815D01*
X-14969265Y3919149D01*
X-14890209Y4069775D01*
X-14849500Y4234945D01*
X-14849500Y4405055D01*
X-14890209Y4570224D01*
X-14969265Y4720850D01*
X-14969266Y4720852D01*
X-15082071Y4848183D01*
X-15222070Y4944818D01*
X-15381128Y5005140D01*
X-15507628Y5020500D01*
X-16192372Y5020500D01*
X-16318872Y5005140D01*
X-16477930Y4944818D01*
X-16617929Y4848183D01*
X-16730734Y4720852D01*
X-16735459Y4711849D01*
X-16765704Y4654223D01*
X-16810073Y4606515D01*
X-16872504Y4587885D01*
X-16935762Y4603477D01*
X-16982384Y4648986D01*
X-16999500Y4711849D01*
X-16999500Y5178985D01*
X-16999186Y5187790D01*
X-16998662Y5195154D01*
X-16998271Y5199530D01*
X-16981064Y5360251D01*
X-16978959Y5373301D01*
X-16969798Y5415595D01*
X-16966314Y5428348D01*
X-16915471Y5581784D01*
X-16914012Y5585941D01*
X-16911445Y5592855D01*
X-16908083Y5601007D01*
X-14268098Y11408973D01*
X-14263532Y11418018D01*
X-14248603Y11444810D01*
X-14247771Y11446279D01*
X-14184011Y11557129D01*
X-14173579Y11572480D01*
X-14135451Y11620428D01*
X-14132216Y11624330D01*
X-14070524Y11695717D01*
X-14059907Y11706580D01*
X-14010155Y11751603D01*
X-14003704Y11757053D01*
X-13933770Y11812166D01*
X-13924151Y11819029D01*
X-13866642Y11856061D01*
X-13856410Y11861980D01*
X-13777282Y11902847D01*
X-13769653Y11906464D01*
X-13708099Y11933117D01*
X-13693814Y11938288D01*
X-13603289Y11964912D01*
X-13598401Y11966241D01*
X-13538973Y11981111D01*
X-13520680Y11984257D01*
X-13393318Y11996438D01*
X-13391639Y11996587D01*
X-13362626Y11998964D01*
X-13361140Y11999086D01*
X-13351015Y11999500D01*
X-8904502Y11999500D01*
X-8898784Y12000000D01*
X-24000Y12000000D01*
X38000Y11983387D01*
G37*
%TD.AperFunction*%
%TD*%
M02*
