%TF.GenerationSoftware,KiCad,Pcbnew,7.0.1*%
%TF.CreationDate,2024-06-10T22:25:48+03:00*%
%TF.ProjectId,PedalPower,50656461-6c50-46f7-9765-722e6b696361,rev?*%
%TF.SameCoordinates,Original*%
%TF.FileFunction,Paste,Top*%
%TF.FilePolarity,Positive*%
%FSLAX46Y46*%
G04 Gerber Fmt 4.6, Leading zero omitted, Abs format (unit mm)*
G04 Created by KiCad (PCBNEW 7.0.1) date 2024-06-10 22:25:48*
%MOMM*%
%LPD*%
G01*
G04 APERTURE LIST*
G04 Aperture macros list*
%AMRoundRect*
0 Rectangle with rounded corners*
0 $1 Rounding radius*
0 $2 $3 $4 $5 $6 $7 $8 $9 X,Y pos of 4 corners*
0 Add a 4 corners polygon primitive as box body*
4,1,4,$2,$3,$4,$5,$6,$7,$8,$9,$2,$3,0*
0 Add four circle primitives for the rounded corners*
1,1,$1+$1,$2,$3*
1,1,$1+$1,$4,$5*
1,1,$1+$1,$6,$7*
1,1,$1+$1,$8,$9*
0 Add four rect primitives between the rounded corners*
20,1,$1+$1,$2,$3,$4,$5,0*
20,1,$1+$1,$4,$5,$6,$7,0*
20,1,$1+$1,$6,$7,$8,$9,0*
20,1,$1+$1,$8,$9,$2,$3,0*%
G04 Aperture macros list end*
%ADD10RoundRect,0.150000X-0.512500X-0.150000X0.512500X-0.150000X0.512500X0.150000X-0.512500X0.150000X0*%
%ADD11RoundRect,0.250000X-0.350000X-0.450000X0.350000X-0.450000X0.350000X0.450000X-0.350000X0.450000X0*%
%ADD12RoundRect,0.250000X-0.400000X-0.625000X0.400000X-0.625000X0.400000X0.625000X-0.400000X0.625000X0*%
%ADD13R,1.100000X0.510000*%
%ADD14RoundRect,0.210000X0.840000X1.440000X-0.840000X1.440000X-0.840000X-1.440000X0.840000X-1.440000X0*%
%ADD15R,1.450000X0.600000*%
%ADD16R,1.450000X0.300000*%
%ADD17RoundRect,0.237500X0.287500X0.237500X-0.287500X0.237500X-0.287500X-0.237500X0.287500X-0.237500X0*%
%ADD18RoundRect,0.250000X-0.450000X0.350000X-0.450000X-0.350000X0.450000X-0.350000X0.450000X0.350000X0*%
%ADD19RoundRect,0.250000X0.337500X0.475000X-0.337500X0.475000X-0.337500X-0.475000X0.337500X-0.475000X0*%
%ADD20RoundRect,0.150000X-0.587500X-0.150000X0.587500X-0.150000X0.587500X0.150000X-0.587500X0.150000X0*%
G04 APERTURE END LIST*
D10*
%TO.C,U1*%
X-6837500Y950000D03*
X-6837500Y0D03*
X-6837500Y-950000D03*
X-4562500Y-950000D03*
X-4562500Y0D03*
X-4562500Y950000D03*
%TD*%
D11*
%TO.C,R5*%
X12100000Y-4000000D03*
X14100000Y-4000000D03*
%TD*%
D12*
%TO.C,R7*%
X34625000Y1925000D03*
X37725000Y1925000D03*
%TD*%
D13*
%TO.C,U2*%
X4150000Y3525000D03*
X4150000Y4525000D03*
X4150000Y5525000D03*
X4150000Y6525000D03*
X4150000Y7525000D03*
X-950000Y7525000D03*
X-950000Y6525000D03*
X-950000Y5525000D03*
X-950000Y4525000D03*
X-950000Y3525000D03*
D14*
X1600000Y5525000D03*
%TD*%
D15*
%TO.C,J1*%
X-10755000Y3250000D03*
X-10755000Y2450000D03*
D16*
X-10755000Y1250000D03*
X-10755000Y250000D03*
X-10755000Y-250000D03*
X-10755000Y-1250000D03*
D15*
X-10755000Y-2450000D03*
X-10755000Y-3250000D03*
X-10755000Y-3250000D03*
X-10755000Y-2450000D03*
D16*
X-10755000Y-1750000D03*
X-10755000Y-750000D03*
X-10755000Y750000D03*
X-10755000Y1750000D03*
D15*
X-10755000Y2450000D03*
X-10755000Y3250000D03*
%TD*%
D17*
%TO.C,D1*%
X36875000Y-1000000D03*
X35125000Y-1000000D03*
%TD*%
D18*
%TO.C,R1*%
X-4900000Y7600000D03*
X-4900000Y5600000D03*
%TD*%
D19*
%TO.C,C1*%
X4137500Y1600000D03*
X2062500Y1600000D03*
%TD*%
D11*
%TO.C,R4*%
X12100000Y0D03*
X14100000Y0D03*
%TD*%
D18*
%TO.C,R6*%
X-3462500Y-6250000D03*
X-3462500Y-8250000D03*
%TD*%
D11*
%TO.C,R2*%
X-700000Y10400000D03*
X1300000Y10400000D03*
%TD*%
D20*
%TO.C,Q1*%
X-1000000Y-6300000D03*
X-1000000Y-8200000D03*
X875000Y-7250000D03*
%TD*%
D11*
%TO.C,R3*%
X12100000Y3000000D03*
X14100000Y3000000D03*
%TD*%
M02*
