%TF.GenerationSoftware,KiCad,Pcbnew,7.0.1*%
%TF.CreationDate,2024-06-10T22:25:48+03:00*%
%TF.ProjectId,PedalPower,50656461-6c50-46f7-9765-722e6b696361,rev?*%
%TF.SameCoordinates,Original*%
%TF.FileFunction,Legend,Top*%
%TF.FilePolarity,Positive*%
%FSLAX46Y46*%
G04 Gerber Fmt 4.6, Leading zero omitted, Abs format (unit mm)*
G04 Created by KiCad (PCBNEW 7.0.1) date 2024-06-10 22:25:48*
%MOMM*%
%LPD*%
G01*
G04 APERTURE LIST*
%ADD10C,0.357843*%
%ADD11C,0.160000*%
%ADD12C,0.200000*%
%ADD13C,0.600000*%
%ADD14C,0.150000*%
%ADD15C,0.120000*%
G04 APERTURE END LIST*
D10*
X5778921Y3000000D02*
G75*
G03*
X5778921Y3000000I-178921J0D01*
G01*
X-6621079Y2200000D02*
G75*
G03*
X-6621079Y2200000I-178921J0D01*
G01*
D11*
X13114285Y10362380D02*
X12638095Y10362380D01*
X12638095Y10362380D02*
X12590476Y9886190D01*
X12590476Y9886190D02*
X12638095Y9933809D01*
X12638095Y9933809D02*
X12733333Y9981428D01*
X12733333Y9981428D02*
X12971428Y9981428D01*
X12971428Y9981428D02*
X13066666Y9933809D01*
X13066666Y9933809D02*
X13114285Y9886190D01*
X13114285Y9886190D02*
X13161904Y9790952D01*
X13161904Y9790952D02*
X13161904Y9552857D01*
X13161904Y9552857D02*
X13114285Y9457619D01*
X13114285Y9457619D02*
X13066666Y9410000D01*
X13066666Y9410000D02*
X12971428Y9362380D01*
X12971428Y9362380D02*
X12733333Y9362380D01*
X12733333Y9362380D02*
X12638095Y9410000D01*
X12638095Y9410000D02*
X12590476Y9457619D01*
X13447619Y10362380D02*
X13780952Y9362380D01*
X13780952Y9362380D02*
X14114285Y10362380D01*
X16923808Y9362380D02*
X16352380Y9362380D01*
X16638094Y9362380D02*
X16638094Y10362380D01*
X16638094Y10362380D02*
X16542856Y10219523D01*
X16542856Y10219523D02*
X16447618Y10124285D01*
X16447618Y10124285D02*
X16352380Y10076666D01*
X17257142Y10362380D02*
X17923808Y9362380D01*
X17923808Y10362380D02*
X17257142Y9362380D01*
X18209523Y10362380D02*
X18876189Y9362380D01*
X18876189Y10362380D02*
X18209523Y9362380D01*
X20923808Y9362380D02*
X20352380Y9362380D01*
X20638094Y9362380D02*
X20638094Y10362380D01*
X20638094Y10362380D02*
X20542856Y10219523D01*
X20542856Y10219523D02*
X20447618Y10124285D01*
X20447618Y10124285D02*
X20352380Y10076666D01*
X21828570Y10362380D02*
X21352380Y10362380D01*
X21352380Y10362380D02*
X21304761Y9886190D01*
X21304761Y9886190D02*
X21352380Y9933809D01*
X21352380Y9933809D02*
X21447618Y9981428D01*
X21447618Y9981428D02*
X21685713Y9981428D01*
X21685713Y9981428D02*
X21780951Y9933809D01*
X21780951Y9933809D02*
X21828570Y9886190D01*
X21828570Y9886190D02*
X21876189Y9790952D01*
X21876189Y9790952D02*
X21876189Y9552857D01*
X21876189Y9552857D02*
X21828570Y9457619D01*
X21828570Y9457619D02*
X21780951Y9410000D01*
X21780951Y9410000D02*
X21685713Y9362380D01*
X21685713Y9362380D02*
X21447618Y9362380D01*
X21447618Y9362380D02*
X21352380Y9410000D01*
X21352380Y9410000D02*
X21304761Y9457619D01*
X22161904Y10362380D02*
X22495237Y9362380D01*
X22495237Y9362380D02*
X22828570Y10362380D01*
X24590475Y10362380D02*
X24685713Y10362380D01*
X24685713Y10362380D02*
X24780951Y10314761D01*
X24780951Y10314761D02*
X24828570Y10267142D01*
X24828570Y10267142D02*
X24876189Y10171904D01*
X24876189Y10171904D02*
X24923808Y9981428D01*
X24923808Y9981428D02*
X24923808Y9743333D01*
X24923808Y9743333D02*
X24876189Y9552857D01*
X24876189Y9552857D02*
X24828570Y9457619D01*
X24828570Y9457619D02*
X24780951Y9410000D01*
X24780951Y9410000D02*
X24685713Y9362380D01*
X24685713Y9362380D02*
X24590475Y9362380D01*
X24590475Y9362380D02*
X24495237Y9410000D01*
X24495237Y9410000D02*
X24447618Y9457619D01*
X24447618Y9457619D02*
X24399999Y9552857D01*
X24399999Y9552857D02*
X24352380Y9743333D01*
X24352380Y9743333D02*
X24352380Y9981428D01*
X24352380Y9981428D02*
X24399999Y10171904D01*
X24399999Y10171904D02*
X24447618Y10267142D01*
X24447618Y10267142D02*
X24495237Y10314761D01*
X24495237Y10314761D02*
X24590475Y10362380D01*
X25876189Y9362380D02*
X25304761Y9362380D01*
X25590475Y9362380D02*
X25590475Y10362380D01*
X25590475Y10362380D02*
X25495237Y10219523D01*
X25495237Y10219523D02*
X25399999Y10124285D01*
X25399999Y10124285D02*
X25304761Y10076666D01*
X26828570Y9362380D02*
X26257142Y9362380D01*
X26542856Y9362380D02*
X26542856Y10362380D01*
X26542856Y10362380D02*
X26447618Y10219523D01*
X26447618Y10219523D02*
X26352380Y10124285D01*
X26352380Y10124285D02*
X26257142Y10076666D01*
X12685714Y7742380D02*
X12876190Y7742380D01*
X12876190Y7742380D02*
X12971428Y7790000D01*
X12971428Y7790000D02*
X13019047Y7837619D01*
X13019047Y7837619D02*
X13114285Y7980476D01*
X13114285Y7980476D02*
X13161904Y8170952D01*
X13161904Y8170952D02*
X13161904Y8551904D01*
X13161904Y8551904D02*
X13114285Y8647142D01*
X13114285Y8647142D02*
X13066666Y8694761D01*
X13066666Y8694761D02*
X12971428Y8742380D01*
X12971428Y8742380D02*
X12780952Y8742380D01*
X12780952Y8742380D02*
X12685714Y8694761D01*
X12685714Y8694761D02*
X12638095Y8647142D01*
X12638095Y8647142D02*
X12590476Y8551904D01*
X12590476Y8551904D02*
X12590476Y8313809D01*
X12590476Y8313809D02*
X12638095Y8218571D01*
X12638095Y8218571D02*
X12685714Y8170952D01*
X12685714Y8170952D02*
X12780952Y8123333D01*
X12780952Y8123333D02*
X12971428Y8123333D01*
X12971428Y8123333D02*
X13066666Y8170952D01*
X13066666Y8170952D02*
X13114285Y8218571D01*
X13114285Y8218571D02*
X13161904Y8313809D01*
X13447619Y8742380D02*
X13780952Y7742380D01*
X13780952Y7742380D02*
X14114285Y8742380D01*
X16590475Y8742380D02*
X16685713Y8742380D01*
X16685713Y8742380D02*
X16780951Y8694761D01*
X16780951Y8694761D02*
X16828570Y8647142D01*
X16828570Y8647142D02*
X16876189Y8551904D01*
X16876189Y8551904D02*
X16923808Y8361428D01*
X16923808Y8361428D02*
X16923808Y8123333D01*
X16923808Y8123333D02*
X16876189Y7932857D01*
X16876189Y7932857D02*
X16828570Y7837619D01*
X16828570Y7837619D02*
X16780951Y7790000D01*
X16780951Y7790000D02*
X16685713Y7742380D01*
X16685713Y7742380D02*
X16590475Y7742380D01*
X16590475Y7742380D02*
X16495237Y7790000D01*
X16495237Y7790000D02*
X16447618Y7837619D01*
X16447618Y7837619D02*
X16399999Y7932857D01*
X16399999Y7932857D02*
X16352380Y8123333D01*
X16352380Y8123333D02*
X16352380Y8361428D01*
X16352380Y8361428D02*
X16399999Y8551904D01*
X16399999Y8551904D02*
X16447618Y8647142D01*
X16447618Y8647142D02*
X16495237Y8694761D01*
X16495237Y8694761D02*
X16590475Y8742380D01*
X17542856Y8742380D02*
X17638094Y8742380D01*
X17638094Y8742380D02*
X17733332Y8694761D01*
X17733332Y8694761D02*
X17780951Y8647142D01*
X17780951Y8647142D02*
X17828570Y8551904D01*
X17828570Y8551904D02*
X17876189Y8361428D01*
X17876189Y8361428D02*
X17876189Y8123333D01*
X17876189Y8123333D02*
X17828570Y7932857D01*
X17828570Y7932857D02*
X17780951Y7837619D01*
X17780951Y7837619D02*
X17733332Y7790000D01*
X17733332Y7790000D02*
X17638094Y7742380D01*
X17638094Y7742380D02*
X17542856Y7742380D01*
X17542856Y7742380D02*
X17447618Y7790000D01*
X17447618Y7790000D02*
X17399999Y7837619D01*
X17399999Y7837619D02*
X17352380Y7932857D01*
X17352380Y7932857D02*
X17304761Y8123333D01*
X17304761Y8123333D02*
X17304761Y8361428D01*
X17304761Y8361428D02*
X17352380Y8551904D01*
X17352380Y8551904D02*
X17399999Y8647142D01*
X17399999Y8647142D02*
X17447618Y8694761D01*
X17447618Y8694761D02*
X17542856Y8742380D01*
X18495237Y8742380D02*
X18590475Y8742380D01*
X18590475Y8742380D02*
X18685713Y8694761D01*
X18685713Y8694761D02*
X18733332Y8647142D01*
X18733332Y8647142D02*
X18780951Y8551904D01*
X18780951Y8551904D02*
X18828570Y8361428D01*
X18828570Y8361428D02*
X18828570Y8123333D01*
X18828570Y8123333D02*
X18780951Y7932857D01*
X18780951Y7932857D02*
X18733332Y7837619D01*
X18733332Y7837619D02*
X18685713Y7790000D01*
X18685713Y7790000D02*
X18590475Y7742380D01*
X18590475Y7742380D02*
X18495237Y7742380D01*
X18495237Y7742380D02*
X18399999Y7790000D01*
X18399999Y7790000D02*
X18352380Y7837619D01*
X18352380Y7837619D02*
X18304761Y7932857D01*
X18304761Y7932857D02*
X18257142Y8123333D01*
X18257142Y8123333D02*
X18257142Y8361428D01*
X18257142Y8361428D02*
X18304761Y8551904D01*
X18304761Y8551904D02*
X18352380Y8647142D01*
X18352380Y8647142D02*
X18399999Y8694761D01*
X18399999Y8694761D02*
X18495237Y8742380D01*
X20352380Y8647142D02*
X20399999Y8694761D01*
X20399999Y8694761D02*
X20495237Y8742380D01*
X20495237Y8742380D02*
X20733332Y8742380D01*
X20733332Y8742380D02*
X20828570Y8694761D01*
X20828570Y8694761D02*
X20876189Y8647142D01*
X20876189Y8647142D02*
X20923808Y8551904D01*
X20923808Y8551904D02*
X20923808Y8456666D01*
X20923808Y8456666D02*
X20876189Y8313809D01*
X20876189Y8313809D02*
X20304761Y7742380D01*
X20304761Y7742380D02*
X20923808Y7742380D01*
X21542856Y8742380D02*
X21638094Y8742380D01*
X21638094Y8742380D02*
X21733332Y8694761D01*
X21733332Y8694761D02*
X21780951Y8647142D01*
X21780951Y8647142D02*
X21828570Y8551904D01*
X21828570Y8551904D02*
X21876189Y8361428D01*
X21876189Y8361428D02*
X21876189Y8123333D01*
X21876189Y8123333D02*
X21828570Y7932857D01*
X21828570Y7932857D02*
X21780951Y7837619D01*
X21780951Y7837619D02*
X21733332Y7790000D01*
X21733332Y7790000D02*
X21638094Y7742380D01*
X21638094Y7742380D02*
X21542856Y7742380D01*
X21542856Y7742380D02*
X21447618Y7790000D01*
X21447618Y7790000D02*
X21399999Y7837619D01*
X21399999Y7837619D02*
X21352380Y7932857D01*
X21352380Y7932857D02*
X21304761Y8123333D01*
X21304761Y8123333D02*
X21304761Y8361428D01*
X21304761Y8361428D02*
X21352380Y8551904D01*
X21352380Y8551904D02*
X21399999Y8647142D01*
X21399999Y8647142D02*
X21447618Y8694761D01*
X21447618Y8694761D02*
X21542856Y8742380D01*
X22161904Y8742380D02*
X22495237Y7742380D01*
X22495237Y7742380D02*
X22828570Y8742380D01*
X24590475Y8742380D02*
X24685713Y8742380D01*
X24685713Y8742380D02*
X24780951Y8694761D01*
X24780951Y8694761D02*
X24828570Y8647142D01*
X24828570Y8647142D02*
X24876189Y8551904D01*
X24876189Y8551904D02*
X24923808Y8361428D01*
X24923808Y8361428D02*
X24923808Y8123333D01*
X24923808Y8123333D02*
X24876189Y7932857D01*
X24876189Y7932857D02*
X24828570Y7837619D01*
X24828570Y7837619D02*
X24780951Y7790000D01*
X24780951Y7790000D02*
X24685713Y7742380D01*
X24685713Y7742380D02*
X24590475Y7742380D01*
X24590475Y7742380D02*
X24495237Y7790000D01*
X24495237Y7790000D02*
X24447618Y7837619D01*
X24447618Y7837619D02*
X24399999Y7932857D01*
X24399999Y7932857D02*
X24352380Y8123333D01*
X24352380Y8123333D02*
X24352380Y8361428D01*
X24352380Y8361428D02*
X24399999Y8551904D01*
X24399999Y8551904D02*
X24447618Y8647142D01*
X24447618Y8647142D02*
X24495237Y8694761D01*
X24495237Y8694761D02*
X24590475Y8742380D01*
X25876189Y7742380D02*
X25304761Y7742380D01*
X25590475Y7742380D02*
X25590475Y8742380D01*
X25590475Y8742380D02*
X25495237Y8599523D01*
X25495237Y8599523D02*
X25399999Y8504285D01*
X25399999Y8504285D02*
X25304761Y8456666D01*
X26495237Y8742380D02*
X26590475Y8742380D01*
X26590475Y8742380D02*
X26685713Y8694761D01*
X26685713Y8694761D02*
X26733332Y8647142D01*
X26733332Y8647142D02*
X26780951Y8551904D01*
X26780951Y8551904D02*
X26828570Y8361428D01*
X26828570Y8361428D02*
X26828570Y8123333D01*
X26828570Y8123333D02*
X26780951Y7932857D01*
X26780951Y7932857D02*
X26733332Y7837619D01*
X26733332Y7837619D02*
X26685713Y7790000D01*
X26685713Y7790000D02*
X26590475Y7742380D01*
X26590475Y7742380D02*
X26495237Y7742380D01*
X26495237Y7742380D02*
X26399999Y7790000D01*
X26399999Y7790000D02*
X26352380Y7837619D01*
X26352380Y7837619D02*
X26304761Y7932857D01*
X26304761Y7932857D02*
X26257142Y8123333D01*
X26257142Y8123333D02*
X26257142Y8361428D01*
X26257142Y8361428D02*
X26304761Y8551904D01*
X26304761Y8551904D02*
X26352380Y8647142D01*
X26352380Y8647142D02*
X26399999Y8694761D01*
X26399999Y8694761D02*
X26495237Y8742380D01*
X13161904Y6122380D02*
X12590476Y6122380D01*
X12876190Y6122380D02*
X12876190Y7122380D01*
X12876190Y7122380D02*
X12780952Y6979523D01*
X12780952Y6979523D02*
X12685714Y6884285D01*
X12685714Y6884285D02*
X12590476Y6836666D01*
X13542857Y7027142D02*
X13590476Y7074761D01*
X13590476Y7074761D02*
X13685714Y7122380D01*
X13685714Y7122380D02*
X13923809Y7122380D01*
X13923809Y7122380D02*
X14019047Y7074761D01*
X14019047Y7074761D02*
X14066666Y7027142D01*
X14066666Y7027142D02*
X14114285Y6931904D01*
X14114285Y6931904D02*
X14114285Y6836666D01*
X14114285Y6836666D02*
X14066666Y6693809D01*
X14066666Y6693809D02*
X13495238Y6122380D01*
X13495238Y6122380D02*
X14114285Y6122380D01*
X14400000Y7122380D02*
X14733333Y6122380D01*
X14733333Y6122380D02*
X15066666Y7122380D01*
X16590475Y7122380D02*
X16685713Y7122380D01*
X16685713Y7122380D02*
X16780951Y7074761D01*
X16780951Y7074761D02*
X16828570Y7027142D01*
X16828570Y7027142D02*
X16876189Y6931904D01*
X16876189Y6931904D02*
X16923808Y6741428D01*
X16923808Y6741428D02*
X16923808Y6503333D01*
X16923808Y6503333D02*
X16876189Y6312857D01*
X16876189Y6312857D02*
X16828570Y6217619D01*
X16828570Y6217619D02*
X16780951Y6170000D01*
X16780951Y6170000D02*
X16685713Y6122380D01*
X16685713Y6122380D02*
X16590475Y6122380D01*
X16590475Y6122380D02*
X16495237Y6170000D01*
X16495237Y6170000D02*
X16447618Y6217619D01*
X16447618Y6217619D02*
X16399999Y6312857D01*
X16399999Y6312857D02*
X16352380Y6503333D01*
X16352380Y6503333D02*
X16352380Y6741428D01*
X16352380Y6741428D02*
X16399999Y6931904D01*
X16399999Y6931904D02*
X16447618Y7027142D01*
X16447618Y7027142D02*
X16495237Y7074761D01*
X16495237Y7074761D02*
X16590475Y7122380D01*
X17542856Y7122380D02*
X17638094Y7122380D01*
X17638094Y7122380D02*
X17733332Y7074761D01*
X17733332Y7074761D02*
X17780951Y7027142D01*
X17780951Y7027142D02*
X17828570Y6931904D01*
X17828570Y6931904D02*
X17876189Y6741428D01*
X17876189Y6741428D02*
X17876189Y6503333D01*
X17876189Y6503333D02*
X17828570Y6312857D01*
X17828570Y6312857D02*
X17780951Y6217619D01*
X17780951Y6217619D02*
X17733332Y6170000D01*
X17733332Y6170000D02*
X17638094Y6122380D01*
X17638094Y6122380D02*
X17542856Y6122380D01*
X17542856Y6122380D02*
X17447618Y6170000D01*
X17447618Y6170000D02*
X17399999Y6217619D01*
X17399999Y6217619D02*
X17352380Y6312857D01*
X17352380Y6312857D02*
X17304761Y6503333D01*
X17304761Y6503333D02*
X17304761Y6741428D01*
X17304761Y6741428D02*
X17352380Y6931904D01*
X17352380Y6931904D02*
X17399999Y7027142D01*
X17399999Y7027142D02*
X17447618Y7074761D01*
X17447618Y7074761D02*
X17542856Y7122380D01*
X18828570Y6122380D02*
X18257142Y6122380D01*
X18542856Y6122380D02*
X18542856Y7122380D01*
X18542856Y7122380D02*
X18447618Y6979523D01*
X18447618Y6979523D02*
X18352380Y6884285D01*
X18352380Y6884285D02*
X18257142Y6836666D01*
D12*
X34666667Y-3377619D02*
X34666667Y-2377619D01*
X34666667Y-2377619D02*
X35047619Y-2377619D01*
X35047619Y-2377619D02*
X35142857Y-2425238D01*
X35142857Y-2425238D02*
X35190476Y-2472857D01*
X35190476Y-2472857D02*
X35238095Y-2568095D01*
X35238095Y-2568095D02*
X35238095Y-2710952D01*
X35238095Y-2710952D02*
X35190476Y-2806190D01*
X35190476Y-2806190D02*
X35142857Y-2853809D01*
X35142857Y-2853809D02*
X35047619Y-2901428D01*
X35047619Y-2901428D02*
X34666667Y-2901428D01*
X35571429Y-2377619D02*
X35809524Y-3377619D01*
X35809524Y-3377619D02*
X36000000Y-2663333D01*
X36000000Y-2663333D02*
X36190476Y-3377619D01*
X36190476Y-3377619D02*
X36428572Y-2377619D01*
X37380952Y-3377619D02*
X37047619Y-2901428D01*
X36809524Y-3377619D02*
X36809524Y-2377619D01*
X36809524Y-2377619D02*
X37190476Y-2377619D01*
X37190476Y-2377619D02*
X37285714Y-2425238D01*
X37285714Y-2425238D02*
X37333333Y-2472857D01*
X37333333Y-2472857D02*
X37380952Y-2568095D01*
X37380952Y-2568095D02*
X37380952Y-2710952D01*
X37380952Y-2710952D02*
X37333333Y-2806190D01*
X37333333Y-2806190D02*
X37285714Y-2853809D01*
X37285714Y-2853809D02*
X37190476Y-2901428D01*
X37190476Y-2901428D02*
X36809524Y-2901428D01*
D13*
X40285714Y4042142D02*
X41285714Y1042142D01*
X41285714Y1042142D02*
X42285714Y4042142D01*
X45000000Y1327857D02*
X44857143Y1185000D01*
X44857143Y1185000D02*
X44428571Y1042142D01*
X44428571Y1042142D02*
X44142857Y1042142D01*
X44142857Y1042142D02*
X43714286Y1185000D01*
X43714286Y1185000D02*
X43428571Y1470714D01*
X43428571Y1470714D02*
X43285714Y1756428D01*
X43285714Y1756428D02*
X43142857Y2327857D01*
X43142857Y2327857D02*
X43142857Y2756428D01*
X43142857Y2756428D02*
X43285714Y3327857D01*
X43285714Y3327857D02*
X43428571Y3613571D01*
X43428571Y3613571D02*
X43714286Y3899285D01*
X43714286Y3899285D02*
X44142857Y4042142D01*
X44142857Y4042142D02*
X44428571Y4042142D01*
X44428571Y4042142D02*
X44857143Y3899285D01*
X44857143Y3899285D02*
X45000000Y3756428D01*
X48000000Y1327857D02*
X47857143Y1185000D01*
X47857143Y1185000D02*
X47428571Y1042142D01*
X47428571Y1042142D02*
X47142857Y1042142D01*
X47142857Y1042142D02*
X46714286Y1185000D01*
X46714286Y1185000D02*
X46428571Y1470714D01*
X46428571Y1470714D02*
X46285714Y1756428D01*
X46285714Y1756428D02*
X46142857Y2327857D01*
X46142857Y2327857D02*
X46142857Y2756428D01*
X46142857Y2756428D02*
X46285714Y3327857D01*
X46285714Y3327857D02*
X46428571Y3613571D01*
X46428571Y3613571D02*
X46714286Y3899285D01*
X46714286Y3899285D02*
X47142857Y4042142D01*
X47142857Y4042142D02*
X47428571Y4042142D01*
X47428571Y4042142D02*
X47857143Y3899285D01*
X47857143Y3899285D02*
X48000000Y3756428D01*
X42285714Y-960714D02*
X42000000Y-817857D01*
X42000000Y-817857D02*
X41571428Y-817857D01*
X41571428Y-817857D02*
X41142857Y-960714D01*
X41142857Y-960714D02*
X40857142Y-1246428D01*
X40857142Y-1246428D02*
X40714285Y-1532142D01*
X40714285Y-1532142D02*
X40571428Y-2103571D01*
X40571428Y-2103571D02*
X40571428Y-2532142D01*
X40571428Y-2532142D02*
X40714285Y-3103571D01*
X40714285Y-3103571D02*
X40857142Y-3389285D01*
X40857142Y-3389285D02*
X41142857Y-3675000D01*
X41142857Y-3675000D02*
X41571428Y-3817857D01*
X41571428Y-3817857D02*
X41857142Y-3817857D01*
X41857142Y-3817857D02*
X42285714Y-3675000D01*
X42285714Y-3675000D02*
X42428571Y-3532142D01*
X42428571Y-3532142D02*
X42428571Y-2532142D01*
X42428571Y-2532142D02*
X41857142Y-2532142D01*
X43714285Y-3817857D02*
X43714285Y-817857D01*
X43714285Y-817857D02*
X45428571Y-3817857D01*
X45428571Y-3817857D02*
X45428571Y-817857D01*
X46857142Y-3817857D02*
X46857142Y-817857D01*
X46857142Y-817857D02*
X47571428Y-817857D01*
X47571428Y-817857D02*
X47999999Y-960714D01*
X47999999Y-960714D02*
X48285714Y-1246428D01*
X48285714Y-1246428D02*
X48428571Y-1532142D01*
X48428571Y-1532142D02*
X48571428Y-2103571D01*
X48571428Y-2103571D02*
X48571428Y-2532142D01*
X48571428Y-2532142D02*
X48428571Y-3103571D01*
X48428571Y-3103571D02*
X48285714Y-3389285D01*
X48285714Y-3389285D02*
X47999999Y-3675000D01*
X47999999Y-3675000D02*
X47571428Y-3817857D01*
X47571428Y-3817857D02*
X46857142Y-3817857D01*
D14*
%TO.C,U1*%
X-4761904Y2937380D02*
X-4761904Y2127857D01*
X-4761904Y2127857D02*
X-4714285Y2032619D01*
X-4714285Y2032619D02*
X-4666666Y1985000D01*
X-4666666Y1985000D02*
X-4571428Y1937380D01*
X-4571428Y1937380D02*
X-4380952Y1937380D01*
X-4380952Y1937380D02*
X-4285714Y1985000D01*
X-4285714Y1985000D02*
X-4238095Y2032619D01*
X-4238095Y2032619D02*
X-4190476Y2127857D01*
X-4190476Y2127857D02*
X-4190476Y2937380D01*
X-3190476Y1937380D02*
X-3761904Y1937380D01*
X-3476190Y1937380D02*
X-3476190Y2937380D01*
X-3476190Y2937380D02*
X-3571428Y2794523D01*
X-3571428Y2794523D02*
X-3666666Y2699285D01*
X-3666666Y2699285D02*
X-3761904Y2651666D01*
%TO.C,R5*%
X8933333Y-4462619D02*
X8600000Y-3986428D01*
X8361905Y-4462619D02*
X8361905Y-3462619D01*
X8361905Y-3462619D02*
X8742857Y-3462619D01*
X8742857Y-3462619D02*
X8838095Y-3510238D01*
X8838095Y-3510238D02*
X8885714Y-3557857D01*
X8885714Y-3557857D02*
X8933333Y-3653095D01*
X8933333Y-3653095D02*
X8933333Y-3795952D01*
X8933333Y-3795952D02*
X8885714Y-3891190D01*
X8885714Y-3891190D02*
X8838095Y-3938809D01*
X8838095Y-3938809D02*
X8742857Y-3986428D01*
X8742857Y-3986428D02*
X8361905Y-3986428D01*
X9838095Y-3462619D02*
X9361905Y-3462619D01*
X9361905Y-3462619D02*
X9314286Y-3938809D01*
X9314286Y-3938809D02*
X9361905Y-3891190D01*
X9361905Y-3891190D02*
X9457143Y-3843571D01*
X9457143Y-3843571D02*
X9695238Y-3843571D01*
X9695238Y-3843571D02*
X9790476Y-3891190D01*
X9790476Y-3891190D02*
X9838095Y-3938809D01*
X9838095Y-3938809D02*
X9885714Y-4034047D01*
X9885714Y-4034047D02*
X9885714Y-4272142D01*
X9885714Y-4272142D02*
X9838095Y-4367380D01*
X9838095Y-4367380D02*
X9790476Y-4415000D01*
X9790476Y-4415000D02*
X9695238Y-4462619D01*
X9695238Y-4462619D02*
X9457143Y-4462619D01*
X9457143Y-4462619D02*
X9361905Y-4415000D01*
X9361905Y-4415000D02*
X9314286Y-4367380D01*
%TO.C,R7*%
X36008333Y3282380D02*
X35675000Y3758571D01*
X35436905Y3282380D02*
X35436905Y4282380D01*
X35436905Y4282380D02*
X35817857Y4282380D01*
X35817857Y4282380D02*
X35913095Y4234761D01*
X35913095Y4234761D02*
X35960714Y4187142D01*
X35960714Y4187142D02*
X36008333Y4091904D01*
X36008333Y4091904D02*
X36008333Y3949047D01*
X36008333Y3949047D02*
X35960714Y3853809D01*
X35960714Y3853809D02*
X35913095Y3806190D01*
X35913095Y3806190D02*
X35817857Y3758571D01*
X35817857Y3758571D02*
X35436905Y3758571D01*
X36341667Y4282380D02*
X37008333Y4282380D01*
X37008333Y4282380D02*
X36579762Y3282380D01*
%TO.C,U2*%
X-861904Y2137380D02*
X-861904Y1327857D01*
X-861904Y1327857D02*
X-814285Y1232619D01*
X-814285Y1232619D02*
X-766666Y1185000D01*
X-766666Y1185000D02*
X-671428Y1137380D01*
X-671428Y1137380D02*
X-480952Y1137380D01*
X-480952Y1137380D02*
X-385714Y1185000D01*
X-385714Y1185000D02*
X-338095Y1232619D01*
X-338095Y1232619D02*
X-290476Y1327857D01*
X-290476Y1327857D02*
X-290476Y2137380D01*
X138095Y2042142D02*
X185714Y2089761D01*
X185714Y2089761D02*
X280952Y2137380D01*
X280952Y2137380D02*
X519047Y2137380D01*
X519047Y2137380D02*
X614285Y2089761D01*
X614285Y2089761D02*
X661904Y2042142D01*
X661904Y2042142D02*
X709523Y1946904D01*
X709523Y1946904D02*
X709523Y1851666D01*
X709523Y1851666D02*
X661904Y1708809D01*
X661904Y1708809D02*
X90476Y1137380D01*
X90476Y1137380D02*
X709523Y1137380D01*
%TO.C,R1*%
X-5066666Y8937380D02*
X-5399999Y9413571D01*
X-5638094Y8937380D02*
X-5638094Y9937380D01*
X-5638094Y9937380D02*
X-5257142Y9937380D01*
X-5257142Y9937380D02*
X-5161904Y9889761D01*
X-5161904Y9889761D02*
X-5114285Y9842142D01*
X-5114285Y9842142D02*
X-5066666Y9746904D01*
X-5066666Y9746904D02*
X-5066666Y9604047D01*
X-5066666Y9604047D02*
X-5114285Y9508809D01*
X-5114285Y9508809D02*
X-5161904Y9461190D01*
X-5161904Y9461190D02*
X-5257142Y9413571D01*
X-5257142Y9413571D02*
X-5638094Y9413571D01*
X-4114285Y8937380D02*
X-4685713Y8937380D01*
X-4399999Y8937380D02*
X-4399999Y9937380D01*
X-4399999Y9937380D02*
X-4495237Y9794523D01*
X-4495237Y9794523D02*
X-4590475Y9699285D01*
X-4590475Y9699285D02*
X-4685713Y9651666D01*
%TO.C,C1*%
X5933333Y1232619D02*
X5885714Y1185000D01*
X5885714Y1185000D02*
X5742857Y1137380D01*
X5742857Y1137380D02*
X5647619Y1137380D01*
X5647619Y1137380D02*
X5504762Y1185000D01*
X5504762Y1185000D02*
X5409524Y1280238D01*
X5409524Y1280238D02*
X5361905Y1375476D01*
X5361905Y1375476D02*
X5314286Y1565952D01*
X5314286Y1565952D02*
X5314286Y1708809D01*
X5314286Y1708809D02*
X5361905Y1899285D01*
X5361905Y1899285D02*
X5409524Y1994523D01*
X5409524Y1994523D02*
X5504762Y2089761D01*
X5504762Y2089761D02*
X5647619Y2137380D01*
X5647619Y2137380D02*
X5742857Y2137380D01*
X5742857Y2137380D02*
X5885714Y2089761D01*
X5885714Y2089761D02*
X5933333Y2042142D01*
X6885714Y1137380D02*
X6314286Y1137380D01*
X6600000Y1137380D02*
X6600000Y2137380D01*
X6600000Y2137380D02*
X6504762Y1994523D01*
X6504762Y1994523D02*
X6409524Y1899285D01*
X6409524Y1899285D02*
X6314286Y1851666D01*
%TO.C,R4*%
X8933333Y-462619D02*
X8600000Y13571D01*
X8361905Y-462619D02*
X8361905Y537380D01*
X8361905Y537380D02*
X8742857Y537380D01*
X8742857Y537380D02*
X8838095Y489761D01*
X8838095Y489761D02*
X8885714Y442142D01*
X8885714Y442142D02*
X8933333Y346904D01*
X8933333Y346904D02*
X8933333Y204047D01*
X8933333Y204047D02*
X8885714Y108809D01*
X8885714Y108809D02*
X8838095Y61190D01*
X8838095Y61190D02*
X8742857Y13571D01*
X8742857Y13571D02*
X8361905Y13571D01*
X9790476Y204047D02*
X9790476Y-462619D01*
X9552381Y585000D02*
X9314286Y-129285D01*
X9314286Y-129285D02*
X9933333Y-129285D01*
%TO.C,R6*%
X-3629166Y-10512619D02*
X-3962499Y-10036428D01*
X-4200594Y-10512619D02*
X-4200594Y-9512619D01*
X-4200594Y-9512619D02*
X-3819642Y-9512619D01*
X-3819642Y-9512619D02*
X-3724404Y-9560238D01*
X-3724404Y-9560238D02*
X-3676785Y-9607857D01*
X-3676785Y-9607857D02*
X-3629166Y-9703095D01*
X-3629166Y-9703095D02*
X-3629166Y-9845952D01*
X-3629166Y-9845952D02*
X-3676785Y-9941190D01*
X-3676785Y-9941190D02*
X-3724404Y-9988809D01*
X-3724404Y-9988809D02*
X-3819642Y-10036428D01*
X-3819642Y-10036428D02*
X-4200594Y-10036428D01*
X-2772023Y-9512619D02*
X-2962499Y-9512619D01*
X-2962499Y-9512619D02*
X-3057737Y-9560238D01*
X-3057737Y-9560238D02*
X-3105356Y-9607857D01*
X-3105356Y-9607857D02*
X-3200594Y-9750714D01*
X-3200594Y-9750714D02*
X-3248213Y-9941190D01*
X-3248213Y-9941190D02*
X-3248213Y-10322142D01*
X-3248213Y-10322142D02*
X-3200594Y-10417380D01*
X-3200594Y-10417380D02*
X-3152975Y-10465000D01*
X-3152975Y-10465000D02*
X-3057737Y-10512619D01*
X-3057737Y-10512619D02*
X-2867261Y-10512619D01*
X-2867261Y-10512619D02*
X-2772023Y-10465000D01*
X-2772023Y-10465000D02*
X-2724404Y-10417380D01*
X-2724404Y-10417380D02*
X-2676785Y-10322142D01*
X-2676785Y-10322142D02*
X-2676785Y-10084047D01*
X-2676785Y-10084047D02*
X-2724404Y-9988809D01*
X-2724404Y-9988809D02*
X-2772023Y-9941190D01*
X-2772023Y-9941190D02*
X-2867261Y-9893571D01*
X-2867261Y-9893571D02*
X-3057737Y-9893571D01*
X-3057737Y-9893571D02*
X-3152975Y-9941190D01*
X-3152975Y-9941190D02*
X-3200594Y-9988809D01*
X-3200594Y-9988809D02*
X-3248213Y-10084047D01*
%TO.C,R2*%
X3133333Y9937380D02*
X2800000Y10413571D01*
X2561905Y9937380D02*
X2561905Y10937380D01*
X2561905Y10937380D02*
X2942857Y10937380D01*
X2942857Y10937380D02*
X3038095Y10889761D01*
X3038095Y10889761D02*
X3085714Y10842142D01*
X3085714Y10842142D02*
X3133333Y10746904D01*
X3133333Y10746904D02*
X3133333Y10604047D01*
X3133333Y10604047D02*
X3085714Y10508809D01*
X3085714Y10508809D02*
X3038095Y10461190D01*
X3038095Y10461190D02*
X2942857Y10413571D01*
X2942857Y10413571D02*
X2561905Y10413571D01*
X3514286Y10842142D02*
X3561905Y10889761D01*
X3561905Y10889761D02*
X3657143Y10937380D01*
X3657143Y10937380D02*
X3895238Y10937380D01*
X3895238Y10937380D02*
X3990476Y10889761D01*
X3990476Y10889761D02*
X4038095Y10842142D01*
X4038095Y10842142D02*
X4085714Y10746904D01*
X4085714Y10746904D02*
X4085714Y10651666D01*
X4085714Y10651666D02*
X4038095Y10508809D01*
X4038095Y10508809D02*
X3466667Y9937380D01*
X3466667Y9937380D02*
X4085714Y9937380D01*
%TO.C,Q1*%
X2804761Y-8757857D02*
X2709523Y-8710238D01*
X2709523Y-8710238D02*
X2614285Y-8615000D01*
X2614285Y-8615000D02*
X2471428Y-8472142D01*
X2471428Y-8472142D02*
X2376190Y-8424523D01*
X2376190Y-8424523D02*
X2280952Y-8424523D01*
X2328571Y-8662619D02*
X2233333Y-8615000D01*
X2233333Y-8615000D02*
X2138095Y-8519761D01*
X2138095Y-8519761D02*
X2090476Y-8329285D01*
X2090476Y-8329285D02*
X2090476Y-7995952D01*
X2090476Y-7995952D02*
X2138095Y-7805476D01*
X2138095Y-7805476D02*
X2233333Y-7710238D01*
X2233333Y-7710238D02*
X2328571Y-7662619D01*
X2328571Y-7662619D02*
X2519047Y-7662619D01*
X2519047Y-7662619D02*
X2614285Y-7710238D01*
X2614285Y-7710238D02*
X2709523Y-7805476D01*
X2709523Y-7805476D02*
X2757142Y-7995952D01*
X2757142Y-7995952D02*
X2757142Y-8329285D01*
X2757142Y-8329285D02*
X2709523Y-8519761D01*
X2709523Y-8519761D02*
X2614285Y-8615000D01*
X2614285Y-8615000D02*
X2519047Y-8662619D01*
X2519047Y-8662619D02*
X2328571Y-8662619D01*
X3709523Y-8662619D02*
X3138095Y-8662619D01*
X3423809Y-8662619D02*
X3423809Y-7662619D01*
X3423809Y-7662619D02*
X3328571Y-7805476D01*
X3328571Y-7805476D02*
X3233333Y-7900714D01*
X3233333Y-7900714D02*
X3138095Y-7948333D01*
%TO.C,R3*%
X8933333Y2537380D02*
X8600000Y3013571D01*
X8361905Y2537380D02*
X8361905Y3537380D01*
X8361905Y3537380D02*
X8742857Y3537380D01*
X8742857Y3537380D02*
X8838095Y3489761D01*
X8838095Y3489761D02*
X8885714Y3442142D01*
X8885714Y3442142D02*
X8933333Y3346904D01*
X8933333Y3346904D02*
X8933333Y3204047D01*
X8933333Y3204047D02*
X8885714Y3108809D01*
X8885714Y3108809D02*
X8838095Y3061190D01*
X8838095Y3061190D02*
X8742857Y3013571D01*
X8742857Y3013571D02*
X8361905Y3013571D01*
X9266667Y3537380D02*
X9885714Y3537380D01*
X9885714Y3537380D02*
X9552381Y3156428D01*
X9552381Y3156428D02*
X9695238Y3156428D01*
X9695238Y3156428D02*
X9790476Y3108809D01*
X9790476Y3108809D02*
X9838095Y3061190D01*
X9838095Y3061190D02*
X9885714Y2965952D01*
X9885714Y2965952D02*
X9885714Y2727857D01*
X9885714Y2727857D02*
X9838095Y2632619D01*
X9838095Y2632619D02*
X9790476Y2585000D01*
X9790476Y2585000D02*
X9695238Y2537380D01*
X9695238Y2537380D02*
X9409524Y2537380D01*
X9409524Y2537380D02*
X9314286Y2585000D01*
X9314286Y2585000D02*
X9266667Y2632619D01*
D15*
%TO.C,TP2*%
X49800000Y-800000D02*
X54200000Y-800000D01*
X49800000Y-5200000D02*
X49800000Y-800000D01*
X54200000Y-800000D02*
X54200000Y-5200000D01*
X54200000Y-5200000D02*
X49800000Y-5200000D01*
%TO.C,U1*%
X-5700000Y1560000D02*
X-7500000Y1560000D01*
X-5700000Y1560000D02*
X-4900000Y1560000D01*
X-5700000Y-1560000D02*
X-6500000Y-1560000D01*
X-5700000Y-1560000D02*
X-4900000Y-1560000D01*
%TO.C,R5*%
X12872936Y-3265000D02*
X13327064Y-3265000D01*
X12872936Y-4735000D02*
X13327064Y-4735000D01*
%TO.C,R7*%
X35447936Y2835000D02*
X36902064Y2835000D01*
X35447936Y1015000D02*
X36902064Y1015000D01*
D14*
%TO.C,U2*%
X4600000Y2955000D02*
X-470000Y2955000D01*
X3670000Y8095000D02*
X-470000Y8095000D01*
D15*
%TO.C,J1*%
X-12900000Y4700000D02*
X-14900000Y4700000D01*
X-12900000Y-4700000D02*
X-14900000Y-4700000D01*
%TO.C,D1*%
X37660000Y-1735000D02*
X37660000Y-265000D01*
X37660000Y-265000D02*
X35200000Y-265000D01*
X35200000Y-1735000D02*
X37660000Y-1735000D01*
%TO.C,R1*%
X-4165000Y6827064D02*
X-4165000Y6372936D01*
X-5635000Y6827064D02*
X-5635000Y6372936D01*
%TO.C,C1*%
X3361252Y865000D02*
X2838748Y865000D01*
X3361252Y2335000D02*
X2838748Y2335000D01*
%TO.C,TP1*%
X49800000Y5200000D02*
X54200000Y5200000D01*
X49800000Y800000D02*
X49800000Y5200000D01*
X54200000Y5200000D02*
X54200000Y800000D01*
X54200000Y800000D02*
X49800000Y800000D01*
%TO.C,R4*%
X12872936Y735000D02*
X13327064Y735000D01*
X12872936Y-735000D02*
X13327064Y-735000D01*
%TO.C,R6*%
X-2727500Y-7022936D02*
X-2727500Y-7477064D01*
X-4197500Y-7022936D02*
X-4197500Y-7477064D01*
%TO.C,R2*%
X72936Y11135000D02*
X527064Y11135000D01*
X72936Y9665000D02*
X527064Y9665000D01*
%TO.C,Q1*%
X-62500Y-5690000D02*
X-1737500Y-5690000D01*
X-62500Y-5690000D02*
X587500Y-5690000D01*
X-62500Y-8810000D02*
X-712500Y-8810000D01*
X-62500Y-8810000D02*
X587500Y-8810000D01*
%TO.C,R3*%
X12872936Y3735000D02*
X13327064Y3735000D01*
X12872936Y2265000D02*
X13327064Y2265000D01*
%TD*%
M02*
