%TF.GenerationSoftware,KiCad,Pcbnew,7.0.1*%
%TF.CreationDate,2024-06-10T22:25:48+03:00*%
%TF.ProjectId,PedalPower,50656461-6c50-46f7-9765-722e6b696361,rev?*%
%TF.SameCoordinates,Original*%
%TF.FileFunction,Copper,L2,Bot*%
%TF.FilePolarity,Positive*%
%FSLAX46Y46*%
G04 Gerber Fmt 4.6, Leading zero omitted, Abs format (unit mm)*
G04 Created by KiCad (PCBNEW 7.0.1) date 2024-06-10 22:25:48*
%MOMM*%
%LPD*%
G01*
G04 APERTURE LIST*
%TA.AperFunction,ComponentPad*%
%ADD10R,4.000000X4.000000*%
%TD*%
%TA.AperFunction,ComponentPad*%
%ADD11R,4.400000X1.800000*%
%TD*%
%TA.AperFunction,ComponentPad*%
%ADD12O,4.000000X1.800000*%
%TD*%
%TA.AperFunction,ComponentPad*%
%ADD13O,1.800000X4.000000*%
%TD*%
%TA.AperFunction,ComponentPad*%
%ADD14R,1.600000X1.600000*%
%TD*%
%TA.AperFunction,ComponentPad*%
%ADD15O,1.600000X1.600000*%
%TD*%
%TA.AperFunction,ComponentPad*%
%ADD16O,2.100000X1.000000*%
%TD*%
%TA.AperFunction,ComponentPad*%
%ADD17O,1.600000X1.000000*%
%TD*%
%TA.AperFunction,ViaPad*%
%ADD18C,0.800000*%
%TD*%
%TA.AperFunction,Conductor*%
%ADD19C,0.250000*%
%TD*%
G04 APERTURE END LIST*
D10*
%TO.P,TP2,1,1*%
%TO.N,GND*%
X52000000Y-3000000D03*
%TD*%
D11*
%TO.P,J8,1*%
%TO.N,GND*%
X10100000Y15050000D03*
D12*
%TO.P,J8,2*%
%TO.N,VCC*%
X10100000Y20850000D03*
D13*
%TO.P,J8,3*%
%TO.N,unconnected-(J8-Pad3)*%
X5300000Y18050000D03*
%TD*%
D11*
%TO.P,J7,1*%
%TO.N,GND*%
X30100000Y-15050000D03*
D12*
%TO.P,J7,2*%
%TO.N,VCC*%
X30100000Y-20850000D03*
D13*
%TO.P,J7,3*%
%TO.N,unconnected-(J7-Pad3)*%
X34900000Y-18050000D03*
%TD*%
D11*
%TO.P,J9,1*%
%TO.N,GND*%
X40100000Y-15050000D03*
D12*
%TO.P,J9,2*%
%TO.N,VCC*%
X40100000Y-20850000D03*
D13*
%TO.P,J9,3*%
%TO.N,unconnected-(J9-Pad3)*%
X44900000Y-18050000D03*
%TD*%
D11*
%TO.P,J3,1*%
%TO.N,GND*%
X10100000Y-15050000D03*
D12*
%TO.P,J3,2*%
%TO.N,VCC*%
X10100000Y-20850000D03*
D13*
%TO.P,J3,3*%
%TO.N,unconnected-(J3-Pad3)*%
X14900000Y-18050000D03*
%TD*%
D14*
%TO.P,SW1,1*%
%TO.N,Net-(U2-CFG3)*%
X16300000Y2525000D03*
D15*
%TO.P,SW1,2*%
%TO.N,Net-(U2-CFG2)*%
X16300000Y-15000D03*
%TO.P,SW1,3*%
%TO.N,Net-(U2-CFG1)*%
X16300000Y-2555000D03*
%TO.P,SW1,4*%
%TO.N,VDD*%
X23920000Y-2555000D03*
%TO.P,SW1,5*%
X23920000Y-15000D03*
%TO.P,SW1,6*%
X23920000Y2525000D03*
%TD*%
D16*
%TO.P,J1,S1,SHIELD*%
%TO.N,GND*%
X-11670000Y4320000D03*
D17*
X-15850000Y4320000D03*
D16*
X-11670000Y-4320000D03*
D17*
X-15850000Y-4320000D03*
%TD*%
D11*
%TO.P,J5,1*%
%TO.N,GND*%
X20100000Y-15050000D03*
D12*
%TO.P,J5,2*%
%TO.N,VCC*%
X20100000Y-20850000D03*
D13*
%TO.P,J5,3*%
%TO.N,unconnected-(J5-Pad3)*%
X24900000Y-18050000D03*
%TD*%
D11*
%TO.P,J2,1*%
%TO.N,GND*%
X40100000Y15050000D03*
D12*
%TO.P,J2,2*%
%TO.N,VCC*%
X40100000Y20850000D03*
D13*
%TO.P,J2,3*%
%TO.N,unconnected-(J2-Pad3)*%
X35300000Y18050000D03*
%TD*%
D10*
%TO.P,TP1,1,1*%
%TO.N,VCC*%
X52000000Y3000000D03*
%TD*%
D11*
%TO.P,J4,1*%
%TO.N,GND*%
X30100000Y15050000D03*
D12*
%TO.P,J4,2*%
%TO.N,VCC*%
X30100000Y20850000D03*
D13*
%TO.P,J4,3*%
%TO.N,unconnected-(J4-Pad3)*%
X25300000Y18050000D03*
%TD*%
D11*
%TO.P,J6,1*%
%TO.N,GND*%
X20100000Y15050000D03*
D12*
%TO.P,J6,2*%
%TO.N,VCC*%
X20100000Y20850000D03*
D13*
%TO.P,J6,3*%
%TO.N,unconnected-(J6-Pad3)*%
X15300000Y18050000D03*
%TD*%
D18*
%TO.N,Net-(U2-D+)*%
X-2900000Y-800000D03*
X5600000Y6500497D03*
%TO.N,Net-(U2-D-)*%
X-2900000Y700000D03*
X5600000Y7500000D03*
%TO.N,GND*%
X19600000Y-2100000D03*
X2600000Y8800000D03*
X-8600000Y-3400000D03*
X-9500000Y6100000D03*
X3600000Y-1000000D03*
X-11300000Y6100000D03*
X19600000Y2500000D03*
X-8600000Y4300000D03*
X-8600000Y0D03*
X-8600000Y-6100000D03*
X-8600000Y-5200000D03*
X-10400000Y-6100000D03*
X10600000Y0D03*
X10600000Y-4000000D03*
X-8600000Y-4300000D03*
X-8600000Y5200000D03*
X34600000Y3700000D03*
X-9500000Y-6100000D03*
X-8600000Y3400000D03*
X800000Y8800000D03*
X10600000Y3000000D03*
X-8600000Y6100000D03*
X-10400000Y6100000D03*
X-11300000Y-6100000D03*
X1700000Y8800000D03*
%TO.N,Net-(J1-CC1)*%
X-12800000Y1000000D03*
X-2700000Y6500000D03*
%TO.N,Net-(J1-CC2)*%
X-12800000Y-1400000D03*
X-2700000Y7500000D03*
%TD*%
D19*
%TO.N,Net-(U2-D+)*%
X4400497Y6500497D02*
X-2900000Y-800000D01*
X5600000Y6500497D02*
X4400497Y6500497D01*
%TO.N,Net-(U2-D-)*%
X-2900000Y700000D02*
X3900000Y7500000D01*
X3900000Y7500000D02*
X5600000Y7500000D01*
%TO.N,Net-(J1-CC1)*%
X-12474190Y1325810D02*
X-7874190Y1325810D01*
X-12800000Y1000000D02*
X-12474190Y1325810D01*
X-7874190Y1325810D02*
X-2700000Y6500000D01*
%TO.N,Net-(J1-CC2)*%
X-1975000Y6800305D02*
X-2674695Y7500000D01*
X-1975000Y4925000D02*
X-1975000Y6800305D01*
X-8600000Y-1700000D02*
X-1975000Y4925000D01*
X-2674695Y7500000D02*
X-2700000Y7500000D01*
X-12800000Y-1400000D02*
X-12500000Y-1700000D01*
X-12500000Y-1700000D02*
X-8600000Y-1700000D01*
%TD*%
%TA.AperFunction,Conductor*%
%TO.N,GND*%
G36*
X54005392Y23999028D02*
G01*
X54009760Y23998646D01*
X54044776Y23995581D01*
X54046116Y23995456D01*
X54171760Y23983082D01*
X54191700Y23979454D01*
X54256382Y23962123D01*
X54260285Y23961008D01*
X54351562Y23933319D01*
X54367971Y23927041D01*
X54433835Y23896328D01*
X54439884Y23893304D01*
X54519046Y23850990D01*
X54531715Y23843207D01*
X54592889Y23800373D01*
X54600430Y23794652D01*
X54668455Y23738826D01*
X54677472Y23730653D01*
X54730653Y23677472D01*
X54738826Y23668455D01*
X54794652Y23600430D01*
X54800373Y23592889D01*
X54843207Y23531715D01*
X54850990Y23519046D01*
X54893304Y23439884D01*
X54896328Y23433835D01*
X54927041Y23367971D01*
X54933319Y23351562D01*
X54961008Y23260285D01*
X54962123Y23256382D01*
X54979454Y23191700D01*
X54983082Y23171760D01*
X54995456Y23046116D01*
X54995581Y23044776D01*
X54999028Y23005397D01*
X54999500Y22994584D01*
X54999500Y-21994584D01*
X54999028Y-22005397D01*
X54995581Y-22044776D01*
X54995456Y-22046116D01*
X54983082Y-22171760D01*
X54979454Y-22191700D01*
X54962123Y-22256382D01*
X54961008Y-22260285D01*
X54933319Y-22351562D01*
X54927041Y-22367971D01*
X54896328Y-22433835D01*
X54893304Y-22439884D01*
X54850990Y-22519046D01*
X54843207Y-22531715D01*
X54800373Y-22592889D01*
X54794652Y-22600430D01*
X54738826Y-22668455D01*
X54730653Y-22677472D01*
X54677472Y-22730653D01*
X54668455Y-22738826D01*
X54600430Y-22794652D01*
X54592889Y-22800373D01*
X54531715Y-22843207D01*
X54519046Y-22850990D01*
X54439884Y-22893304D01*
X54433835Y-22896328D01*
X54367971Y-22927041D01*
X54351562Y-22933319D01*
X54260285Y-22961008D01*
X54256382Y-22962123D01*
X54191700Y-22979454D01*
X54171760Y-22983082D01*
X54046116Y-22995456D01*
X54044776Y-22995581D01*
X54009760Y-22998646D01*
X54005392Y-22999028D01*
X53994584Y-22999500D01*
X-5994584Y-22999500D01*
X-6005392Y-22999028D01*
X-6009760Y-22998646D01*
X-6044776Y-22995581D01*
X-6046116Y-22995456D01*
X-6171759Y-22983082D01*
X-6191699Y-22979454D01*
X-6256366Y-22962127D01*
X-6260269Y-22961013D01*
X-6351563Y-22933319D01*
X-6367972Y-22927040D01*
X-6433832Y-22896329D01*
X-6439880Y-22893305D01*
X-6519056Y-22850985D01*
X-6531727Y-22843201D01*
X-6592881Y-22800380D01*
X-6600422Y-22794659D01*
X-6668461Y-22738821D01*
X-6677477Y-22730649D01*
X-6730649Y-22677477D01*
X-6738821Y-22668461D01*
X-6794659Y-22600422D01*
X-6800380Y-22592881D01*
X-6843201Y-22531727D01*
X-6850985Y-22519056D01*
X-6893305Y-22439880D01*
X-6896329Y-22433832D01*
X-6927040Y-22367972D01*
X-6933319Y-22351563D01*
X-6961013Y-22260269D01*
X-6962127Y-22256366D01*
X-6979454Y-22191699D01*
X-6983082Y-22171759D01*
X-6995456Y-22046116D01*
X-6995581Y-22044776D01*
X-6999028Y-22005397D01*
X-6999500Y-21994584D01*
X-6999500Y-20797396D01*
X7895746Y-20797396D01*
X7905746Y-21007330D01*
X7955297Y-21211580D01*
X8042602Y-21402752D01*
X8152846Y-21557566D01*
X8164514Y-21573952D01*
X8316622Y-21718986D01*
X8388964Y-21765478D01*
X8493425Y-21832612D01*
X8532580Y-21848287D01*
X8688543Y-21910725D01*
X8817228Y-21935527D01*
X8894914Y-21950500D01*
X8894915Y-21950500D01*
X11252420Y-21950500D01*
X11252425Y-21950500D01*
X11409218Y-21935528D01*
X11610875Y-21876316D01*
X11797682Y-21780011D01*
X11962886Y-21650092D01*
X12100519Y-21491256D01*
X12205604Y-21309244D01*
X12274344Y-21110633D01*
X12304254Y-20902602D01*
X12299243Y-20797396D01*
X17895746Y-20797396D01*
X17905746Y-21007330D01*
X17955297Y-21211580D01*
X18042602Y-21402752D01*
X18152846Y-21557566D01*
X18164514Y-21573952D01*
X18316622Y-21718986D01*
X18388964Y-21765478D01*
X18493425Y-21832612D01*
X18532580Y-21848287D01*
X18688543Y-21910725D01*
X18817228Y-21935527D01*
X18894914Y-21950500D01*
X18894915Y-21950500D01*
X21252420Y-21950500D01*
X21252425Y-21950500D01*
X21409218Y-21935528D01*
X21610875Y-21876316D01*
X21797682Y-21780011D01*
X21962886Y-21650092D01*
X22100519Y-21491256D01*
X22205604Y-21309244D01*
X22274344Y-21110633D01*
X22304254Y-20902602D01*
X22299243Y-20797396D01*
X27895746Y-20797396D01*
X27905746Y-21007330D01*
X27955297Y-21211580D01*
X28042602Y-21402752D01*
X28152846Y-21557566D01*
X28164514Y-21573952D01*
X28316622Y-21718986D01*
X28388964Y-21765478D01*
X28493425Y-21832612D01*
X28532580Y-21848287D01*
X28688543Y-21910725D01*
X28817228Y-21935527D01*
X28894914Y-21950500D01*
X28894915Y-21950500D01*
X31252420Y-21950500D01*
X31252425Y-21950500D01*
X31409218Y-21935528D01*
X31610875Y-21876316D01*
X31797682Y-21780011D01*
X31962886Y-21650092D01*
X32100519Y-21491256D01*
X32205604Y-21309244D01*
X32274344Y-21110633D01*
X32304254Y-20902602D01*
X32299243Y-20797396D01*
X37895746Y-20797396D01*
X37905746Y-21007330D01*
X37955297Y-21211580D01*
X38042602Y-21402752D01*
X38152846Y-21557566D01*
X38164514Y-21573952D01*
X38316622Y-21718986D01*
X38388964Y-21765478D01*
X38493425Y-21832612D01*
X38532580Y-21848287D01*
X38688543Y-21910725D01*
X38817228Y-21935527D01*
X38894914Y-21950500D01*
X38894915Y-21950500D01*
X41252420Y-21950500D01*
X41252425Y-21950500D01*
X41409218Y-21935528D01*
X41610875Y-21876316D01*
X41797682Y-21780011D01*
X41962886Y-21650092D01*
X42100519Y-21491256D01*
X42205604Y-21309244D01*
X42274344Y-21110633D01*
X42304254Y-20902602D01*
X42294254Y-20692670D01*
X42244704Y-20488424D01*
X42244702Y-20488419D01*
X42157397Y-20297247D01*
X42035487Y-20126050D01*
X42035486Y-20126048D01*
X41883378Y-19981014D01*
X41851257Y-19960371D01*
X41706574Y-19867387D01*
X41550609Y-19804949D01*
X41511457Y-19789275D01*
X41511456Y-19789274D01*
X41511454Y-19789274D01*
X41305086Y-19749500D01*
X41305085Y-19749500D01*
X38947575Y-19749500D01*
X38849579Y-19758857D01*
X38790779Y-19764472D01*
X38589126Y-19823683D01*
X38402315Y-19919990D01*
X38237115Y-20049906D01*
X38099479Y-20208745D01*
X37994396Y-20390754D01*
X37925655Y-20589366D01*
X37895746Y-20797396D01*
X32299243Y-20797396D01*
X32294254Y-20692670D01*
X32244704Y-20488424D01*
X32244702Y-20488419D01*
X32157397Y-20297247D01*
X32035487Y-20126050D01*
X32035486Y-20126048D01*
X31883378Y-19981014D01*
X31851257Y-19960371D01*
X31706574Y-19867387D01*
X31550609Y-19804949D01*
X31511457Y-19789275D01*
X31511456Y-19789274D01*
X31511454Y-19789274D01*
X31305086Y-19749500D01*
X31305085Y-19749500D01*
X28947575Y-19749500D01*
X28849579Y-19758857D01*
X28790779Y-19764472D01*
X28589126Y-19823683D01*
X28402315Y-19919990D01*
X28237115Y-20049906D01*
X28099479Y-20208745D01*
X27994396Y-20390754D01*
X27925655Y-20589366D01*
X27895746Y-20797396D01*
X22299243Y-20797396D01*
X22294254Y-20692670D01*
X22244704Y-20488424D01*
X22244702Y-20488419D01*
X22157397Y-20297247D01*
X22035487Y-20126050D01*
X22035486Y-20126048D01*
X21883378Y-19981014D01*
X21851257Y-19960371D01*
X21706574Y-19867387D01*
X21550609Y-19804949D01*
X21511457Y-19789275D01*
X21511456Y-19789274D01*
X21511454Y-19789274D01*
X21305086Y-19749500D01*
X21305085Y-19749500D01*
X18947575Y-19749500D01*
X18849579Y-19758857D01*
X18790779Y-19764472D01*
X18589126Y-19823683D01*
X18402315Y-19919990D01*
X18237115Y-20049906D01*
X18099479Y-20208745D01*
X17994396Y-20390754D01*
X17925655Y-20589366D01*
X17895746Y-20797396D01*
X12299243Y-20797396D01*
X12294254Y-20692670D01*
X12244704Y-20488424D01*
X12244702Y-20488419D01*
X12157397Y-20297247D01*
X12035487Y-20126050D01*
X12035486Y-20126048D01*
X11883378Y-19981014D01*
X11851257Y-19960371D01*
X11706574Y-19867387D01*
X11550609Y-19804949D01*
X11511457Y-19789275D01*
X11511456Y-19789274D01*
X11511454Y-19789274D01*
X11305086Y-19749500D01*
X11305085Y-19749500D01*
X8947575Y-19749500D01*
X8849579Y-19758857D01*
X8790779Y-19764472D01*
X8589126Y-19823683D01*
X8402315Y-19919990D01*
X8237115Y-20049906D01*
X8099479Y-20208745D01*
X7994396Y-20390754D01*
X7925655Y-20589366D01*
X7895746Y-20797396D01*
X-6999500Y-20797396D01*
X-6999500Y-19202425D01*
X13799500Y-19202425D01*
X13804529Y-19255086D01*
X13814472Y-19359220D01*
X13873683Y-19560873D01*
X13969990Y-19747684D01*
X14099906Y-19912884D01*
X14099908Y-19912886D01*
X14183692Y-19985486D01*
X14258745Y-20050520D01*
X14389567Y-20126050D01*
X14440756Y-20155604D01*
X14534241Y-20187959D01*
X14639366Y-20224344D01*
X14674298Y-20229366D01*
X14847398Y-20254254D01*
X15057330Y-20244254D01*
X15261576Y-20194704D01*
X15411907Y-20126050D01*
X15452752Y-20107397D01*
X15532624Y-20050520D01*
X15623952Y-19985486D01*
X15768986Y-19833378D01*
X15882613Y-19656572D01*
X15960725Y-19461457D01*
X16000500Y-19255085D01*
X16000500Y-19202425D01*
X23799500Y-19202425D01*
X23804529Y-19255086D01*
X23814472Y-19359220D01*
X23873683Y-19560873D01*
X23969990Y-19747684D01*
X24099906Y-19912884D01*
X24099908Y-19912886D01*
X24183692Y-19985486D01*
X24258745Y-20050520D01*
X24389567Y-20126050D01*
X24440756Y-20155604D01*
X24534241Y-20187959D01*
X24639366Y-20224344D01*
X24674298Y-20229366D01*
X24847398Y-20254254D01*
X25057330Y-20244254D01*
X25261576Y-20194704D01*
X25411907Y-20126050D01*
X25452752Y-20107397D01*
X25532624Y-20050520D01*
X25623952Y-19985486D01*
X25768986Y-19833378D01*
X25882613Y-19656572D01*
X25960725Y-19461457D01*
X26000500Y-19255085D01*
X26000500Y-19202425D01*
X33799500Y-19202425D01*
X33804529Y-19255086D01*
X33814472Y-19359220D01*
X33873683Y-19560873D01*
X33969990Y-19747684D01*
X34099906Y-19912884D01*
X34099908Y-19912886D01*
X34183692Y-19985486D01*
X34258745Y-20050520D01*
X34389567Y-20126050D01*
X34440756Y-20155604D01*
X34534241Y-20187959D01*
X34639366Y-20224344D01*
X34674298Y-20229366D01*
X34847398Y-20254254D01*
X35057330Y-20244254D01*
X35261576Y-20194704D01*
X35411907Y-20126050D01*
X35452752Y-20107397D01*
X35532624Y-20050520D01*
X35623952Y-19985486D01*
X35768986Y-19833378D01*
X35882613Y-19656572D01*
X35960725Y-19461457D01*
X36000500Y-19255085D01*
X36000500Y-19202425D01*
X43799500Y-19202425D01*
X43804529Y-19255086D01*
X43814472Y-19359220D01*
X43873683Y-19560873D01*
X43969990Y-19747684D01*
X44099906Y-19912884D01*
X44099908Y-19912886D01*
X44183692Y-19985486D01*
X44258745Y-20050520D01*
X44389567Y-20126050D01*
X44440756Y-20155604D01*
X44534241Y-20187959D01*
X44639366Y-20224344D01*
X44674298Y-20229366D01*
X44847398Y-20254254D01*
X45057330Y-20244254D01*
X45261576Y-20194704D01*
X45411907Y-20126050D01*
X45452752Y-20107397D01*
X45532624Y-20050520D01*
X45623952Y-19985486D01*
X45768986Y-19833378D01*
X45882613Y-19656572D01*
X45960725Y-19461457D01*
X46000500Y-19255085D01*
X46000500Y-16897575D01*
X45985528Y-16740782D01*
X45926316Y-16539125D01*
X45830011Y-16352318D01*
X45762994Y-16267100D01*
X45700093Y-16187115D01*
X45541254Y-16049479D01*
X45359245Y-15944396D01*
X45160633Y-15875655D01*
X44952603Y-15845746D01*
X44952602Y-15845746D01*
X44847635Y-15850746D01*
X44742669Y-15855746D01*
X44538419Y-15905297D01*
X44347247Y-15992602D01*
X44176050Y-16114512D01*
X44031013Y-16266623D01*
X43917387Y-16443425D01*
X43839274Y-16638545D01*
X43805525Y-16813652D01*
X43799500Y-16844915D01*
X43799500Y-19202425D01*
X36000500Y-19202425D01*
X36000500Y-16897575D01*
X35985528Y-16740782D01*
X35926316Y-16539125D01*
X35830011Y-16352318D01*
X35762994Y-16267100D01*
X35700093Y-16187115D01*
X35541254Y-16049479D01*
X35359245Y-15944396D01*
X35160633Y-15875655D01*
X34952603Y-15845746D01*
X34952602Y-15845746D01*
X34847635Y-15850746D01*
X34742669Y-15855746D01*
X34538419Y-15905297D01*
X34347247Y-15992602D01*
X34176050Y-16114512D01*
X34031013Y-16266623D01*
X33917387Y-16443425D01*
X33839274Y-16638545D01*
X33805525Y-16813652D01*
X33799500Y-16844915D01*
X33799500Y-19202425D01*
X26000500Y-19202425D01*
X26000500Y-16897575D01*
X25985528Y-16740782D01*
X25926316Y-16539125D01*
X25830011Y-16352318D01*
X25762994Y-16267100D01*
X25700093Y-16187115D01*
X25541254Y-16049479D01*
X25359245Y-15944396D01*
X25160633Y-15875655D01*
X24952603Y-15845746D01*
X24952602Y-15845746D01*
X24847635Y-15850746D01*
X24742669Y-15855746D01*
X24538419Y-15905297D01*
X24347247Y-15992602D01*
X24176050Y-16114512D01*
X24031013Y-16266623D01*
X23917387Y-16443425D01*
X23839274Y-16638545D01*
X23805525Y-16813652D01*
X23799500Y-16844915D01*
X23799500Y-19202425D01*
X16000500Y-19202425D01*
X16000500Y-16897575D01*
X15985528Y-16740782D01*
X15926316Y-16539125D01*
X15830011Y-16352318D01*
X15762994Y-16267100D01*
X15700093Y-16187115D01*
X15541254Y-16049479D01*
X15359245Y-15944396D01*
X15160633Y-15875655D01*
X14952603Y-15845746D01*
X14952602Y-15845746D01*
X14847635Y-15850746D01*
X14742669Y-15855746D01*
X14538419Y-15905297D01*
X14347247Y-15992602D01*
X14176050Y-16114512D01*
X14031013Y-16266623D01*
X13917387Y-16443425D01*
X13839274Y-16638545D01*
X13805525Y-16813652D01*
X13799500Y-16844915D01*
X13799500Y-19202425D01*
X-6999500Y-19202425D01*
X-6999500Y-15250000D01*
X-1805549Y-15250000D01*
X-1785383Y-15519103D01*
X-1725334Y-15782195D01*
X-1626743Y-16033398D01*
X-1491815Y-16267102D01*
X-1323561Y-16478085D01*
X-1125741Y-16661635D01*
X-902774Y-16813651D01*
X-659641Y-16930738D01*
X-401772Y-17010280D01*
X-134929Y-17050500D01*
X134929Y-17050500D01*
X401772Y-17010280D01*
X659641Y-16930738D01*
X902775Y-16813651D01*
X1125741Y-16661635D01*
X1323561Y-16478085D01*
X1491815Y-16267102D01*
X1626743Y-16033398D01*
X1725334Y-15782195D01*
X1785383Y-15519103D01*
X1805549Y-15250000D01*
X48394450Y-15250000D01*
X48414616Y-15519100D01*
X48414617Y-15519103D01*
X48474666Y-15782195D01*
X48573257Y-16033398D01*
X48708185Y-16267102D01*
X48876439Y-16478085D01*
X49074259Y-16661635D01*
X49297226Y-16813651D01*
X49540359Y-16930738D01*
X49798228Y-17010280D01*
X50065071Y-17050500D01*
X50334929Y-17050500D01*
X50601772Y-17010280D01*
X50859641Y-16930738D01*
X51102775Y-16813651D01*
X51325741Y-16661635D01*
X51523561Y-16478085D01*
X51691815Y-16267102D01*
X51826743Y-16033398D01*
X51925334Y-15782195D01*
X51985383Y-15519103D01*
X52005549Y-15250000D01*
X51985383Y-14980897D01*
X51925334Y-14717805D01*
X51826743Y-14466602D01*
X51691815Y-14232898D01*
X51523561Y-14021915D01*
X51523560Y-14021914D01*
X51325743Y-13838366D01*
X51268205Y-13799137D01*
X51102775Y-13686349D01*
X50859641Y-13569262D01*
X50780097Y-13544726D01*
X50601771Y-13489719D01*
X50334929Y-13449500D01*
X50065071Y-13449500D01*
X49798228Y-13489719D01*
X49540359Y-13569262D01*
X49297228Y-13686347D01*
X49074257Y-13838366D01*
X48876439Y-14021915D01*
X48708184Y-14232899D01*
X48573257Y-14466601D01*
X48474666Y-14717804D01*
X48414616Y-14980899D01*
X48394450Y-15250000D01*
X1805549Y-15250000D01*
X1785383Y-14980897D01*
X1725334Y-14717805D01*
X1626743Y-14466602D01*
X1491815Y-14232898D01*
X1323561Y-14021915D01*
X1323560Y-14021914D01*
X1125743Y-13838366D01*
X1068205Y-13799137D01*
X902775Y-13686349D01*
X659641Y-13569262D01*
X580097Y-13544726D01*
X401771Y-13489719D01*
X134929Y-13449500D01*
X-134929Y-13449500D01*
X-401771Y-13489719D01*
X-580097Y-13544726D01*
X-659641Y-13569262D01*
X-772564Y-13623643D01*
X-902771Y-13686347D01*
X-902773Y-13686348D01*
X-902774Y-13686349D01*
X-1125741Y-13838365D01*
X-1323561Y-14021915D01*
X-1491815Y-14232898D01*
X-1626743Y-14466602D01*
X-1725334Y-14717805D01*
X-1785383Y-14980897D01*
X-1805549Y-15250000D01*
X-6999500Y-15250000D01*
X-6999500Y-12912467D01*
X-7029898Y-12740064D01*
X-7089777Y-12575549D01*
X-7177305Y-12423946D01*
X-7289837Y-12289837D01*
X-7423946Y-12177305D01*
X-7575549Y-12089777D01*
X-7740064Y-12029898D01*
X-7912467Y-11999500D01*
X-7912468Y-11999500D01*
X-7999901Y-11999500D01*
X-13351015Y-11999500D01*
X-13361139Y-11999086D01*
X-13364435Y-11998816D01*
X-13391662Y-11996585D01*
X-13393339Y-11996436D01*
X-13520677Y-11984258D01*
X-13538971Y-11981112D01*
X-13598415Y-11966238D01*
X-13603304Y-11964909D01*
X-13693808Y-11938291D01*
X-13708092Y-11933119D01*
X-13769657Y-11906461D01*
X-13777286Y-11902845D01*
X-13856414Y-11861978D01*
X-13866644Y-11856060D01*
X-13924151Y-11819031D01*
X-13933772Y-11812166D01*
X-14003695Y-11757061D01*
X-14010146Y-11751612D01*
X-14059910Y-11706578D01*
X-14070528Y-11695714D01*
X-14132205Y-11624344D01*
X-14135438Y-11620444D01*
X-14173580Y-11572479D01*
X-14184014Y-11557126D01*
X-14247811Y-11446210D01*
X-14248642Y-11444743D01*
X-14263531Y-11418023D01*
X-14268097Y-11408977D01*
X-16908080Y-5601014D01*
X-16911445Y-5592851D01*
X-16914015Y-5585927D01*
X-16915472Y-5581780D01*
X-16966312Y-5428348D01*
X-16969794Y-5415598D01*
X-16978958Y-5373294D01*
X-16981064Y-5360243D01*
X-16998268Y-5199557D01*
X-16998658Y-5195182D01*
X-16999185Y-5187797D01*
X-16999500Y-5178971D01*
X-16999500Y-2890000D01*
X-12780466Y-2890000D01*
X-12760687Y-3040236D01*
X-12702698Y-3180233D01*
X-12610451Y-3300451D01*
X-12490233Y-3392698D01*
X-12350236Y-3450687D01*
X-12293977Y-3458093D01*
X-12237721Y-3465500D01*
X-12237720Y-3465500D01*
X-12162280Y-3465500D01*
X-12162279Y-3465500D01*
X-12049764Y-3450687D01*
X-12049763Y-3450686D01*
X-11909767Y-3392698D01*
X-11789549Y-3300451D01*
X-11697302Y-3180233D01*
X-11697301Y-3180231D01*
X-11639312Y-3040235D01*
X-11619533Y-2890000D01*
X-11639312Y-2739764D01*
X-11697301Y-2599768D01*
X-11731653Y-2555000D01*
X15294659Y-2555000D01*
X15313976Y-2751133D01*
X15371185Y-2939726D01*
X15371186Y-2939727D01*
X15464090Y-3113538D01*
X15589117Y-3265883D01*
X15741462Y-3390910D01*
X15915273Y-3483814D01*
X16103868Y-3541024D01*
X16300000Y-3560341D01*
X16496132Y-3541024D01*
X16684727Y-3483814D01*
X16858538Y-3390910D01*
X17010883Y-3265883D01*
X17135910Y-3113538D01*
X17228814Y-2939727D01*
X17286024Y-2751132D01*
X17305341Y-2555000D01*
X22914659Y-2555000D01*
X22933976Y-2751133D01*
X22991185Y-2939726D01*
X22991186Y-2939727D01*
X23084090Y-3113538D01*
X23209117Y-3265883D01*
X23361462Y-3390910D01*
X23535273Y-3483814D01*
X23723868Y-3541024D01*
X23920000Y-3560341D01*
X24116132Y-3541024D01*
X24304727Y-3483814D01*
X24478538Y-3390910D01*
X24630883Y-3265883D01*
X24755910Y-3113538D01*
X24848814Y-2939727D01*
X24906024Y-2751132D01*
X24925341Y-2555000D01*
X24906024Y-2358868D01*
X24848814Y-2170273D01*
X24755910Y-1996462D01*
X24630883Y-1844117D01*
X24478538Y-1719090D01*
X24448136Y-1702840D01*
X24304726Y-1626185D01*
X24116133Y-1568976D01*
X23920000Y-1549659D01*
X23723866Y-1568976D01*
X23535273Y-1626185D01*
X23361463Y-1719089D01*
X23209117Y-1844117D01*
X23084089Y-1996463D01*
X22991185Y-2170273D01*
X22933976Y-2358866D01*
X22914659Y-2555000D01*
X17305341Y-2555000D01*
X17286024Y-2358868D01*
X17228814Y-2170273D01*
X17135910Y-1996462D01*
X17010883Y-1844117D01*
X16858538Y-1719090D01*
X16828136Y-1702840D01*
X16684726Y-1626185D01*
X16496133Y-1568976D01*
X16300000Y-1549659D01*
X16103866Y-1568976D01*
X15915273Y-1626185D01*
X15741463Y-1719089D01*
X15589117Y-1844117D01*
X15464089Y-1996463D01*
X15371185Y-2170273D01*
X15313976Y-2358866D01*
X15294659Y-2555000D01*
X-11731653Y-2555000D01*
X-11789549Y-2479549D01*
X-11909768Y-2387301D01*
X-12049764Y-2329312D01*
X-12162279Y-2314500D01*
X-12162280Y-2314500D01*
X-12237720Y-2314500D01*
X-12237721Y-2314500D01*
X-12350235Y-2329312D01*
X-12490231Y-2387301D01*
X-12490233Y-2387302D01*
X-12610451Y-2479549D01*
X-12702698Y-2599767D01*
X-12760687Y-2739764D01*
X-12780466Y-2890000D01*
X-16999500Y-2890000D01*
X-16999500Y-1400000D01*
X-13405682Y-1400000D01*
X-13385044Y-1556762D01*
X-13324536Y-1702841D01*
X-13228282Y-1828282D01*
X-13102841Y-1924536D01*
X-12956762Y-1985044D01*
X-12800000Y-2005682D01*
X-12701622Y-1992730D01*
X-12653356Y-1995891D01*
X-12641413Y-1999090D01*
X-12614113Y-2010398D01*
X-12613049Y-2010585D01*
X-12613045Y-2010588D01*
X-12575830Y-2017149D01*
X-12565324Y-2019478D01*
X-12528807Y-2029264D01*
X-12491180Y-2025971D01*
X-12480373Y-2025500D01*
X-8619627Y-2025500D01*
X-8608819Y-2025971D01*
X-8571193Y-2029264D01*
X-8571192Y-2029263D01*
X-8571192Y-2029264D01*
X-8534706Y-2019487D01*
X-8524143Y-2017145D01*
X-8486955Y-2010588D01*
X-8486954Y-2010587D01*
X-8485891Y-2010400D01*
X-8461198Y-2000171D01*
X-8460317Y-1999554D01*
X-8460316Y-1999554D01*
X-8429379Y-1977892D01*
X-8420256Y-1972080D01*
X-8387544Y-1953194D01*
X-8363262Y-1924255D01*
X-8355954Y-1916280D01*
X-7239674Y-800000D01*
X-3505682Y-800000D01*
X-3485044Y-956762D01*
X-3424536Y-1102841D01*
X-3328282Y-1228282D01*
X-3202841Y-1324536D01*
X-3056762Y-1385044D01*
X-2900000Y-1405682D01*
X-2743238Y-1385044D01*
X-2597159Y-1324536D01*
X-2521767Y-1266686D01*
X-2471717Y-1228282D01*
X-2375463Y-1102840D01*
X-2314956Y-956762D01*
X-2294317Y-799999D01*
X-2303246Y-732180D01*
X-2297726Y-676136D01*
X-2267988Y-628314D01*
X-1654673Y-14999D01*
X15294659Y-14999D01*
X15313976Y-211133D01*
X15371185Y-399726D01*
X15452092Y-551091D01*
X15464090Y-573538D01*
X15589117Y-725883D01*
X15741462Y-850910D01*
X15915273Y-943814D01*
X16103868Y-1001024D01*
X16300000Y-1020341D01*
X16496132Y-1001024D01*
X16684727Y-943814D01*
X16858538Y-850910D01*
X17010883Y-725883D01*
X17135910Y-573538D01*
X17228814Y-399727D01*
X17286024Y-211132D01*
X17305341Y-15000D01*
X17305341Y-14999D01*
X22914659Y-14999D01*
X22933976Y-211133D01*
X22991185Y-399726D01*
X23072091Y-551091D01*
X23084090Y-573538D01*
X23209117Y-725883D01*
X23361462Y-850910D01*
X23535273Y-943814D01*
X23723868Y-1001024D01*
X23920000Y-1020341D01*
X24116132Y-1001024D01*
X24304727Y-943814D01*
X24478538Y-850910D01*
X24630883Y-725883D01*
X24755910Y-573538D01*
X24848814Y-399727D01*
X24906024Y-211132D01*
X24925341Y-15000D01*
X24906024Y181132D01*
X24848814Y369727D01*
X24755910Y543538D01*
X24630883Y695883D01*
X24478538Y820910D01*
X24304727Y913814D01*
X24116132Y971024D01*
X24022447Y980251D01*
X49799500Y980251D01*
X49811132Y921769D01*
X49855447Y855447D01*
X49921769Y811132D01*
X49980251Y799500D01*
X49980252Y799500D01*
X54019748Y799500D01*
X54019749Y799500D01*
X54078230Y811132D01*
X54144552Y855447D01*
X54188867Y921769D01*
X54200500Y980251D01*
X54200500Y5019749D01*
X54188867Y5078230D01*
X54188867Y5078231D01*
X54144552Y5144552D01*
X54078231Y5188867D01*
X54024625Y5199530D01*
X54019749Y5200500D01*
X54019748Y5200500D01*
X49980252Y5200500D01*
X49980251Y5200500D01*
X49921769Y5188867D01*
X49855447Y5144552D01*
X49811132Y5078230D01*
X49799500Y5019749D01*
X49799500Y980251D01*
X24022447Y980251D01*
X23920000Y990341D01*
X23723868Y971024D01*
X23535273Y913814D01*
X23361462Y820910D01*
X23209117Y695883D01*
X23084090Y543538D01*
X23084089Y543536D01*
X22991185Y369726D01*
X22933976Y181133D01*
X22914659Y-14999D01*
X17305341Y-14999D01*
X17286024Y181132D01*
X17228814Y369727D01*
X17135910Y543538D01*
X17010883Y695883D01*
X16858538Y820910D01*
X16684727Y913814D01*
X16496132Y971024D01*
X16300000Y990341D01*
X16103868Y971024D01*
X15915273Y913814D01*
X15741462Y820910D01*
X15589117Y695883D01*
X15464090Y543538D01*
X15464089Y543536D01*
X15371185Y369726D01*
X15313976Y181133D01*
X15294659Y-14999D01*
X-1654673Y-14999D01*
X65577Y1705251D01*
X15299500Y1705251D01*
X15311132Y1646769D01*
X15355447Y1580447D01*
X15421769Y1536132D01*
X15480251Y1524500D01*
X15480252Y1524500D01*
X17119748Y1524500D01*
X17119749Y1524500D01*
X17178230Y1536132D01*
X17244552Y1580447D01*
X17288867Y1646769D01*
X17300500Y1705251D01*
X17300500Y2525000D01*
X22914659Y2525000D01*
X22933976Y2328866D01*
X22991185Y2140273D01*
X23084089Y1966463D01*
X23209117Y1814117D01*
X23361463Y1689089D01*
X23535273Y1596185D01*
X23723866Y1538976D01*
X23920000Y1519659D01*
X24116133Y1538976D01*
X24304726Y1596185D01*
X24478536Y1689089D01*
X24478538Y1689090D01*
X24630883Y1814117D01*
X24755910Y1966462D01*
X24848814Y2140273D01*
X24906024Y2328868D01*
X24925341Y2525000D01*
X24906024Y2721132D01*
X24848814Y2909727D01*
X24755910Y3083538D01*
X24630883Y3235883D01*
X24478538Y3360910D01*
X24304727Y3453814D01*
X24116132Y3511024D01*
X23920000Y3530341D01*
X23723868Y3511024D01*
X23535273Y3453814D01*
X23361462Y3360910D01*
X23209117Y3235883D01*
X23084090Y3083538D01*
X23084089Y3083536D01*
X22991185Y2909726D01*
X22933976Y2721133D01*
X22914659Y2525000D01*
X17300500Y2525000D01*
X17300500Y3344749D01*
X17288867Y3403230D01*
X17288867Y3403231D01*
X17244552Y3469552D01*
X17178231Y3513867D01*
X17148989Y3519683D01*
X17119749Y3525500D01*
X17119748Y3525500D01*
X15480252Y3525500D01*
X15480251Y3525500D01*
X15421769Y3513867D01*
X15355447Y3469552D01*
X15311132Y3403230D01*
X15299500Y3344749D01*
X15299500Y1705251D01*
X65577Y1705251D01*
X4499004Y6138678D01*
X4539232Y6165558D01*
X4586685Y6174997D01*
X5031701Y6174997D01*
X5086545Y6162209D01*
X5130077Y6126483D01*
X5171718Y6072214D01*
X5297159Y5975960D01*
X5443237Y5915453D01*
X5600000Y5894814D01*
X5756762Y5915453D01*
X5902840Y5975960D01*
X6028282Y6072214D01*
X6124536Y6197656D01*
X6185044Y6343735D01*
X6205682Y6500497D01*
X6185044Y6657259D01*
X6124536Y6803338D01*
X6031362Y6924764D01*
X6008679Y6973409D01*
X6008679Y7027086D01*
X6031364Y7075734D01*
X6124536Y7197159D01*
X6124537Y7197161D01*
X6185044Y7343238D01*
X6205682Y7500000D01*
X6185044Y7656762D01*
X6124536Y7802841D01*
X6028282Y7928282D01*
X5902841Y8024536D01*
X5756762Y8085044D01*
X5600000Y8105682D01*
X5443238Y8085044D01*
X5297159Y8024536D01*
X5171718Y7928282D01*
X5130077Y7874014D01*
X5086545Y7838288D01*
X5031701Y7825500D01*
X3919619Y7825500D01*
X3908812Y7825972D01*
X3903553Y7826432D01*
X3871193Y7829263D01*
X3871192Y7829262D01*
X3871191Y7829263D01*
X3834704Y7819486D01*
X3824146Y7817145D01*
X3786955Y7810588D01*
X3786954Y7810587D01*
X3785891Y7810400D01*
X3761201Y7800173D01*
X3760317Y7799554D01*
X3760316Y7799554D01*
X3729360Y7777878D01*
X3720266Y7772085D01*
X3687545Y7753194D01*
X3687543Y7753192D01*
X3663267Y7724261D01*
X3655959Y7716286D01*
X-2728315Y1332009D01*
X-2776136Y1302273D01*
X-2832180Y1296753D01*
X-2900000Y1305682D01*
X-3056762Y1285044D01*
X-3202841Y1224536D01*
X-3328282Y1128282D01*
X-3424536Y1002841D01*
X-3485044Y856762D01*
X-3505682Y700000D01*
X-3485044Y543238D01*
X-3437019Y427296D01*
X-3424536Y397159D01*
X-3328282Y271717D01*
X-3202840Y175463D01*
X-3056762Y114956D01*
X-2900000Y94317D01*
X-2811336Y105990D01*
X-2762373Y112436D01*
X-2701753Y105262D01*
X-2651900Y70030D01*
X-2624900Y15279D01*
X-2627296Y-45720D01*
X-2658509Y-98183D01*
X-2728314Y-167988D01*
X-2776136Y-197726D01*
X-2832180Y-203246D01*
X-2899999Y-194317D01*
X-3056762Y-214956D01*
X-3202840Y-275463D01*
X-3328282Y-371717D01*
X-3424536Y-497159D01*
X-3485044Y-643238D01*
X-3505682Y-800000D01*
X-7239674Y-800000D01*
X-1758714Y4680958D01*
X-1750741Y4688264D01*
X-1721806Y4712544D01*
X-1702914Y4745264D01*
X-1697106Y4754380D01*
X-1674831Y4786193D01*
X-1664597Y4810899D01*
X-1657852Y4849148D01*
X-1655512Y4859704D01*
X-1645735Y4896191D01*
X-1649028Y4933822D01*
X-1649500Y4944630D01*
X-1649500Y6780686D01*
X-1649028Y6791494D01*
X-1645736Y6829113D01*
X-1655511Y6865593D01*
X-1657852Y6876150D01*
X-1664599Y6914412D01*
X-1674830Y6939111D01*
X-1697105Y6970922D01*
X-1702916Y6980044D01*
X-1721803Y7012756D01*
X-1721804Y7012757D01*
X-1721806Y7012760D01*
X-1750750Y7037047D01*
X-1758712Y7044344D01*
X-2065044Y7350675D01*
X-2094782Y7398497D01*
X-2100302Y7454540D01*
X-2094318Y7500000D01*
X-2114956Y7656762D01*
X-2175463Y7802840D01*
X-2271717Y7928282D01*
X-2397159Y8024536D01*
X-2543238Y8085044D01*
X-2700000Y8105682D01*
X-2856762Y8085044D01*
X-3002841Y8024536D01*
X-3128282Y7928282D01*
X-3224536Y7802841D01*
X-3285044Y7656762D01*
X-3305682Y7500000D01*
X-3285044Y7343238D01*
X-3224536Y7197159D01*
X-3131171Y7075483D01*
X-3108488Y7026839D01*
X-3108488Y6973161D01*
X-3131171Y6924516D01*
X-3224536Y6802841D01*
X-3285044Y6656762D01*
X-3305617Y6500497D01*
X-3305682Y6500000D01*
X-3296753Y6432180D01*
X-3302273Y6376136D01*
X-3332009Y6328315D01*
X-6920562Y2739764D01*
X-7972697Y1687629D01*
X-8012925Y1660749D01*
X-8060378Y1651310D01*
X-12454563Y1651310D01*
X-12465371Y1651782D01*
X-12502997Y1655074D01*
X-12539514Y1645288D01*
X-12550020Y1642959D01*
X-12587235Y1636398D01*
X-12587237Y1636396D01*
X-12588302Y1636209D01*
X-12612986Y1625984D01*
X-12613869Y1625365D01*
X-12613874Y1625364D01*
X-12627492Y1615828D01*
X-12669139Y1596957D01*
X-12714796Y1594464D01*
X-12800000Y1605682D01*
X-12956762Y1585044D01*
X-13102841Y1524536D01*
X-13228282Y1428282D01*
X-13324536Y1302841D01*
X-13385044Y1156762D01*
X-13405682Y1000000D01*
X-13385044Y843238D01*
X-13371745Y811132D01*
X-13324536Y697159D01*
X-13228282Y571717D01*
X-13102840Y475463D01*
X-12956762Y414956D01*
X-12800000Y394317D01*
X-12643237Y414956D01*
X-12497159Y475463D01*
X-12371717Y571717D01*
X-12275463Y697159D01*
X-12214956Y843237D01*
X-12208471Y892496D01*
X-12187107Y947434D01*
X-12142789Y986299D01*
X-12085532Y1000310D01*
X-7893818Y1000310D01*
X-7883010Y999838D01*
X-7845382Y996545D01*
X-7808894Y1006322D01*
X-7798338Y1008662D01*
X-7760089Y1015407D01*
X-7735383Y1025641D01*
X-7703570Y1047916D01*
X-7694454Y1053724D01*
X-7661735Y1072615D01*
X-7637452Y1101554D01*
X-7630146Y1109526D01*
X-2871684Y5867988D01*
X-2823862Y5897726D01*
X-2767818Y5903246D01*
X-2700000Y5894317D01*
X-2543237Y5914956D01*
X-2471952Y5944483D01*
X-2412345Y5953325D01*
X-2355609Y5933024D01*
X-2315142Y5888375D01*
X-2300500Y5829922D01*
X-2300500Y5111188D01*
X-2309939Y5063735D01*
X-2336819Y5023507D01*
X-8698507Y-1338181D01*
X-8738735Y-1365061D01*
X-8786188Y-1374500D01*
X-12088930Y-1374500D01*
X-12146187Y-1360489D01*
X-12190505Y-1321624D01*
X-12211869Y-1266686D01*
X-12214956Y-1243238D01*
X-12275464Y-1097158D01*
X-12371717Y-971717D01*
X-12497159Y-875463D01*
X-12643237Y-814956D01*
X-12800000Y-794317D01*
X-12956762Y-814956D01*
X-13102840Y-875463D01*
X-13228282Y-971717D01*
X-13265591Y-1020340D01*
X-13324536Y-1097159D01*
X-13385044Y-1243238D01*
X-13405682Y-1400000D01*
X-16999500Y-1400000D01*
X-16999500Y2890000D01*
X-12780466Y2890000D01*
X-12760687Y2739764D01*
X-12702698Y2599767D01*
X-12610451Y2479549D01*
X-12490233Y2387302D01*
X-12490231Y2387301D01*
X-12350235Y2329312D01*
X-12237721Y2314500D01*
X-12237720Y2314500D01*
X-12162280Y2314500D01*
X-12162279Y2314500D01*
X-12049764Y2329312D01*
X-11909768Y2387301D01*
X-11789549Y2479549D01*
X-11697301Y2599768D01*
X-11639312Y2739764D01*
X-11619533Y2890000D01*
X-11639312Y3040235D01*
X-11697301Y3180231D01*
X-11697302Y3180233D01*
X-11789549Y3300451D01*
X-11909767Y3392698D01*
X-12049764Y3450687D01*
X-12073516Y3453814D01*
X-12162279Y3465500D01*
X-12162280Y3465500D01*
X-12237720Y3465500D01*
X-12237721Y3465500D01*
X-12293977Y3458093D01*
X-12350236Y3450687D01*
X-12490233Y3392698D01*
X-12610451Y3300451D01*
X-12702698Y3180233D01*
X-12760687Y3040236D01*
X-12780466Y2890000D01*
X-16999500Y2890000D01*
X-16999500Y5178985D01*
X-16999186Y5187790D01*
X-16998662Y5195154D01*
X-16998271Y5199530D01*
X-16981064Y5360251D01*
X-16978959Y5373301D01*
X-16969798Y5415595D01*
X-16966314Y5428348D01*
X-16915471Y5581784D01*
X-16914012Y5585941D01*
X-16911445Y5592855D01*
X-16908083Y5601007D01*
X-14268098Y11408973D01*
X-14263532Y11418018D01*
X-14248603Y11444810D01*
X-14247771Y11446279D01*
X-14184011Y11557129D01*
X-14173579Y11572480D01*
X-14135451Y11620428D01*
X-14132216Y11624330D01*
X-14070524Y11695717D01*
X-14059907Y11706580D01*
X-14010155Y11751603D01*
X-14003704Y11757053D01*
X-13933770Y11812166D01*
X-13924151Y11819029D01*
X-13866642Y11856061D01*
X-13856410Y11861980D01*
X-13777282Y11902847D01*
X-13769653Y11906464D01*
X-13708099Y11933117D01*
X-13693814Y11938288D01*
X-13603289Y11964912D01*
X-13598401Y11966241D01*
X-13538973Y11981111D01*
X-13520680Y11984257D01*
X-13393318Y11996438D01*
X-13391639Y11996587D01*
X-13362626Y11998964D01*
X-13361140Y11999086D01*
X-13351015Y11999500D01*
X-8912467Y11999500D01*
X-8740064Y12029898D01*
X-8575549Y12089777D01*
X-8423946Y12177305D01*
X-8289837Y12289837D01*
X-8177305Y12423946D01*
X-8089777Y12575549D01*
X-8029898Y12740064D01*
X-7999500Y12912467D01*
X-7999500Y15250000D01*
X-1805549Y15250000D01*
X-1785383Y14980897D01*
X-1725334Y14717805D01*
X-1626743Y14466602D01*
X-1491815Y14232898D01*
X-1323561Y14021915D01*
X-1130838Y13843094D01*
X-1125742Y13838366D01*
X-902771Y13686347D01*
X-772564Y13623643D01*
X-659641Y13569262D01*
X-580097Y13544726D01*
X-401771Y13489719D01*
X-134929Y13449500D01*
X134929Y13449500D01*
X401771Y13489719D01*
X580097Y13544726D01*
X659641Y13569262D01*
X902775Y13686349D01*
X1068205Y13799137D01*
X1125743Y13838366D01*
X1323560Y14021914D01*
X1326842Y14026029D01*
X1491815Y14232898D01*
X1626743Y14466602D01*
X1725334Y14717805D01*
X1785383Y14980897D01*
X1805549Y15250000D01*
X48394450Y15250000D01*
X48414616Y14980899D01*
X48474666Y14717804D01*
X48573257Y14466601D01*
X48708184Y14232899D01*
X48876439Y14021915D01*
X49074257Y13838366D01*
X49297228Y13686347D01*
X49540359Y13569262D01*
X49798228Y13489719D01*
X50065071Y13449500D01*
X50334929Y13449500D01*
X50601771Y13489719D01*
X50780097Y13544726D01*
X50859641Y13569262D01*
X51102775Y13686349D01*
X51268205Y13799137D01*
X51325743Y13838366D01*
X51523560Y14021914D01*
X51526842Y14026029D01*
X51691815Y14232898D01*
X51826743Y14466602D01*
X51925334Y14717805D01*
X51985383Y14980897D01*
X52005549Y15250000D01*
X51985383Y15519103D01*
X51925334Y15782195D01*
X51826743Y16033398D01*
X51691815Y16267102D01*
X51523561Y16478085D01*
X51325741Y16661635D01*
X51102775Y16813651D01*
X50859641Y16930738D01*
X50601772Y17010280D01*
X50334929Y17050500D01*
X50065071Y17050500D01*
X49798228Y17010280D01*
X49540359Y16930738D01*
X49297226Y16813651D01*
X49074259Y16661635D01*
X48876439Y16478085D01*
X48708185Y16267102D01*
X48662005Y16187115D01*
X48573257Y16033398D01*
X48474666Y15782195D01*
X48414616Y15519100D01*
X48394450Y15250000D01*
X1805549Y15250000D01*
X1785383Y15519103D01*
X1725334Y15782195D01*
X1626743Y16033398D01*
X1491815Y16267102D01*
X1323561Y16478085D01*
X1125741Y16661635D01*
X902775Y16813651D01*
X728505Y16897575D01*
X4199500Y16897575D01*
X4204529Y16844914D01*
X4214472Y16740779D01*
X4273683Y16539126D01*
X4369990Y16352315D01*
X4499906Y16187115D01*
X4658745Y16049479D01*
X4840754Y15944396D01*
X5039366Y15875655D01*
X5247396Y15845746D01*
X5247397Y15845746D01*
X5247398Y15845746D01*
X5457330Y15855746D01*
X5661576Y15905296D01*
X5661580Y15905297D01*
X5852752Y15992602D01*
X6023949Y16114512D01*
X6023952Y16114514D01*
X6168986Y16266622D01*
X6224060Y16352318D01*
X6282612Y16443425D01*
X6320924Y16539125D01*
X6360725Y16638543D01*
X6400500Y16844915D01*
X6400500Y16897575D01*
X14199500Y16897575D01*
X14204529Y16844914D01*
X14214472Y16740779D01*
X14273683Y16539126D01*
X14369990Y16352315D01*
X14499906Y16187115D01*
X14658745Y16049479D01*
X14840754Y15944396D01*
X15039366Y15875655D01*
X15247396Y15845746D01*
X15247397Y15845746D01*
X15247398Y15845746D01*
X15457330Y15855746D01*
X15661576Y15905296D01*
X15661580Y15905297D01*
X15852752Y15992602D01*
X16023949Y16114512D01*
X16023952Y16114514D01*
X16168986Y16266622D01*
X16224060Y16352318D01*
X16282612Y16443425D01*
X16320924Y16539125D01*
X16360725Y16638543D01*
X16400500Y16844915D01*
X16400500Y16897575D01*
X24199500Y16897575D01*
X24204529Y16844914D01*
X24214472Y16740779D01*
X24273683Y16539126D01*
X24369990Y16352315D01*
X24499906Y16187115D01*
X24658745Y16049479D01*
X24840754Y15944396D01*
X25039366Y15875655D01*
X25247396Y15845746D01*
X25247397Y15845746D01*
X25247398Y15845746D01*
X25457330Y15855746D01*
X25661576Y15905296D01*
X25661580Y15905297D01*
X25852752Y15992602D01*
X26023949Y16114512D01*
X26023952Y16114514D01*
X26168986Y16266622D01*
X26224060Y16352318D01*
X26282612Y16443425D01*
X26320924Y16539125D01*
X26360725Y16638543D01*
X26400500Y16844915D01*
X26400500Y16897575D01*
X34199500Y16897575D01*
X34204529Y16844914D01*
X34214472Y16740779D01*
X34273683Y16539126D01*
X34369990Y16352315D01*
X34499906Y16187115D01*
X34658745Y16049479D01*
X34840754Y15944396D01*
X35039366Y15875655D01*
X35247396Y15845746D01*
X35247397Y15845746D01*
X35247398Y15845746D01*
X35457330Y15855746D01*
X35661576Y15905296D01*
X35661580Y15905297D01*
X35852752Y15992602D01*
X36023949Y16114512D01*
X36023952Y16114514D01*
X36168986Y16266622D01*
X36224060Y16352318D01*
X36282612Y16443425D01*
X36320924Y16539125D01*
X36360725Y16638543D01*
X36400500Y16844915D01*
X36400500Y19202425D01*
X36385528Y19359218D01*
X36326316Y19560875D01*
X36230011Y19747682D01*
X36100092Y19912886D01*
X35941256Y20050519D01*
X35759244Y20155604D01*
X35560633Y20224344D01*
X35352602Y20254254D01*
X35142670Y20244254D01*
X34938424Y20194704D01*
X34938420Y20194702D01*
X34938419Y20194702D01*
X34747247Y20107397D01*
X34667374Y20050519D01*
X34576048Y19985486D01*
X34431014Y19833378D01*
X34410371Y19801257D01*
X34317387Y19656574D01*
X34279076Y19560875D01*
X34239275Y19461457D01*
X34199500Y19255085D01*
X34199500Y16897575D01*
X26400500Y16897575D01*
X26400500Y19202425D01*
X26385528Y19359218D01*
X26326316Y19560875D01*
X26230011Y19747682D01*
X26100092Y19912886D01*
X25941256Y20050519D01*
X25759244Y20155604D01*
X25560633Y20224344D01*
X25352602Y20254254D01*
X25142670Y20244254D01*
X24938424Y20194704D01*
X24938420Y20194702D01*
X24938419Y20194702D01*
X24747247Y20107397D01*
X24667374Y20050519D01*
X24576048Y19985486D01*
X24431014Y19833378D01*
X24410371Y19801257D01*
X24317387Y19656574D01*
X24279076Y19560875D01*
X24239275Y19461457D01*
X24199500Y19255085D01*
X24199500Y16897575D01*
X16400500Y16897575D01*
X16400500Y19202425D01*
X16385528Y19359218D01*
X16326316Y19560875D01*
X16230011Y19747682D01*
X16100092Y19912886D01*
X15941256Y20050519D01*
X15759244Y20155604D01*
X15560633Y20224344D01*
X15352602Y20254254D01*
X15142670Y20244254D01*
X14938424Y20194704D01*
X14938420Y20194702D01*
X14938419Y20194702D01*
X14747247Y20107397D01*
X14667374Y20050519D01*
X14576048Y19985486D01*
X14431014Y19833378D01*
X14410371Y19801257D01*
X14317387Y19656574D01*
X14279076Y19560875D01*
X14239275Y19461457D01*
X14199500Y19255085D01*
X14199500Y16897575D01*
X6400500Y16897575D01*
X6400500Y19202425D01*
X6385528Y19359218D01*
X6326316Y19560875D01*
X6230011Y19747682D01*
X6100092Y19912886D01*
X5941256Y20050519D01*
X5759244Y20155604D01*
X5560633Y20224344D01*
X5352602Y20254254D01*
X5142670Y20244254D01*
X4938424Y20194704D01*
X4938420Y20194702D01*
X4938419Y20194702D01*
X4747247Y20107397D01*
X4667374Y20050519D01*
X4576048Y19985486D01*
X4431014Y19833378D01*
X4410371Y19801257D01*
X4317387Y19656574D01*
X4279076Y19560875D01*
X4239275Y19461457D01*
X4199500Y19255085D01*
X4199500Y16897575D01*
X728505Y16897575D01*
X659641Y16930738D01*
X401772Y17010280D01*
X134929Y17050500D01*
X-134929Y17050500D01*
X-401772Y17010280D01*
X-659641Y16930738D01*
X-902774Y16813651D01*
X-1125741Y16661635D01*
X-1323561Y16478085D01*
X-1491815Y16267102D01*
X-1626743Y16033398D01*
X-1725334Y15782195D01*
X-1785383Y15519103D01*
X-1805549Y15250000D01*
X-7999500Y15250000D01*
X-7999500Y20902603D01*
X7895746Y20902603D01*
X7905746Y20692669D01*
X7955297Y20488419D01*
X8042602Y20297247D01*
X8164512Y20126050D01*
X8316623Y19981013D01*
X8493425Y19867387D01*
X8688545Y19789274D01*
X8894914Y19749500D01*
X8894915Y19749500D01*
X11252420Y19749500D01*
X11252425Y19749500D01*
X11364419Y19760194D01*
X11409220Y19764472D01*
X11610873Y19823683D01*
X11797684Y19919990D01*
X11962884Y20049906D01*
X12100520Y20208745D01*
X12205603Y20390754D01*
X12274344Y20589366D01*
X12289196Y20692669D01*
X12304254Y20797398D01*
X12299243Y20902603D01*
X17895746Y20902603D01*
X17905746Y20692669D01*
X17955297Y20488419D01*
X18042602Y20297247D01*
X18164512Y20126050D01*
X18316623Y19981013D01*
X18493425Y19867387D01*
X18688545Y19789274D01*
X18894914Y19749500D01*
X18894915Y19749500D01*
X21252420Y19749500D01*
X21252425Y19749500D01*
X21364419Y19760194D01*
X21409220Y19764472D01*
X21610873Y19823683D01*
X21797684Y19919990D01*
X21962884Y20049906D01*
X22100520Y20208745D01*
X22205603Y20390754D01*
X22274344Y20589366D01*
X22289196Y20692669D01*
X22304254Y20797398D01*
X22299243Y20902603D01*
X27895746Y20902603D01*
X27905746Y20692669D01*
X27955297Y20488419D01*
X28042602Y20297247D01*
X28164512Y20126050D01*
X28316623Y19981013D01*
X28493425Y19867387D01*
X28688545Y19789274D01*
X28894914Y19749500D01*
X28894915Y19749500D01*
X31252420Y19749500D01*
X31252425Y19749500D01*
X31364419Y19760194D01*
X31409220Y19764472D01*
X31610873Y19823683D01*
X31797684Y19919990D01*
X31962884Y20049906D01*
X32100520Y20208745D01*
X32205603Y20390754D01*
X32274344Y20589366D01*
X32289196Y20692669D01*
X32304254Y20797398D01*
X32299243Y20902603D01*
X37895746Y20902603D01*
X37905746Y20692669D01*
X37955297Y20488419D01*
X38042602Y20297247D01*
X38164512Y20126050D01*
X38316623Y19981013D01*
X38493425Y19867387D01*
X38688545Y19789274D01*
X38894914Y19749500D01*
X38894915Y19749500D01*
X41252420Y19749500D01*
X41252425Y19749500D01*
X41364419Y19760194D01*
X41409220Y19764472D01*
X41610873Y19823683D01*
X41797684Y19919990D01*
X41962884Y20049906D01*
X42100520Y20208745D01*
X42205603Y20390754D01*
X42274344Y20589366D01*
X42289196Y20692669D01*
X42304254Y20797398D01*
X42294254Y21007330D01*
X42244704Y21211576D01*
X42223593Y21257802D01*
X42157397Y21402752D01*
X42132752Y21437360D01*
X42035486Y21573952D01*
X41883378Y21718986D01*
X41706572Y21832613D01*
X41511457Y21910725D01*
X41356678Y21940556D01*
X41305086Y21950500D01*
X41305085Y21950500D01*
X38947575Y21950500D01*
X38790782Y21935528D01*
X38589125Y21876316D01*
X38402318Y21780011D01*
X38402316Y21780009D01*
X38402315Y21780009D01*
X38237115Y21650093D01*
X38099479Y21491254D01*
X37994396Y21309245D01*
X37925655Y21110633D01*
X37895746Y20902603D01*
X32299243Y20902603D01*
X32294254Y21007330D01*
X32244704Y21211576D01*
X32223593Y21257802D01*
X32157397Y21402752D01*
X32132752Y21437360D01*
X32035486Y21573952D01*
X31883378Y21718986D01*
X31706572Y21832613D01*
X31511457Y21910725D01*
X31356678Y21940556D01*
X31305086Y21950500D01*
X31305085Y21950500D01*
X28947575Y21950500D01*
X28790782Y21935528D01*
X28589125Y21876316D01*
X28402318Y21780011D01*
X28402316Y21780009D01*
X28402315Y21780009D01*
X28237115Y21650093D01*
X28099479Y21491254D01*
X27994396Y21309245D01*
X27925655Y21110633D01*
X27895746Y20902603D01*
X22299243Y20902603D01*
X22294254Y21007330D01*
X22244704Y21211576D01*
X22223593Y21257802D01*
X22157397Y21402752D01*
X22132752Y21437360D01*
X22035486Y21573952D01*
X21883378Y21718986D01*
X21706572Y21832613D01*
X21511457Y21910725D01*
X21356678Y21940556D01*
X21305086Y21950500D01*
X21305085Y21950500D01*
X18947575Y21950500D01*
X18790782Y21935528D01*
X18589125Y21876316D01*
X18402318Y21780011D01*
X18402316Y21780009D01*
X18402315Y21780009D01*
X18237115Y21650093D01*
X18099479Y21491254D01*
X17994396Y21309245D01*
X17925655Y21110633D01*
X17895746Y20902603D01*
X12299243Y20902603D01*
X12294254Y21007330D01*
X12244704Y21211576D01*
X12223593Y21257802D01*
X12157397Y21402752D01*
X12132752Y21437360D01*
X12035486Y21573952D01*
X11883378Y21718986D01*
X11706572Y21832613D01*
X11511457Y21910725D01*
X11356678Y21940556D01*
X11305086Y21950500D01*
X11305085Y21950500D01*
X8947575Y21950500D01*
X8790782Y21935528D01*
X8589125Y21876316D01*
X8402318Y21780011D01*
X8402316Y21780009D01*
X8402315Y21780009D01*
X8237115Y21650093D01*
X8099479Y21491254D01*
X7994396Y21309245D01*
X7925655Y21110633D01*
X7895746Y20902603D01*
X-7999500Y20902603D01*
X-7999500Y22994584D01*
X-7999028Y23005397D01*
X-7995581Y23044776D01*
X-7995456Y23046116D01*
X-7983082Y23171759D01*
X-7979454Y23191699D01*
X-7962127Y23256366D01*
X-7961013Y23260269D01*
X-7933319Y23351563D01*
X-7927040Y23367972D01*
X-7896329Y23433832D01*
X-7893305Y23439880D01*
X-7850985Y23519056D01*
X-7843201Y23531727D01*
X-7800380Y23592881D01*
X-7794659Y23600422D01*
X-7738821Y23668461D01*
X-7730649Y23677477D01*
X-7677477Y23730649D01*
X-7668461Y23738821D01*
X-7600422Y23794659D01*
X-7592881Y23800380D01*
X-7531727Y23843201D01*
X-7519056Y23850985D01*
X-7439880Y23893305D01*
X-7433832Y23896329D01*
X-7367972Y23927040D01*
X-7351563Y23933319D01*
X-7260269Y23961013D01*
X-7256366Y23962127D01*
X-7191699Y23979454D01*
X-7171759Y23983082D01*
X-7046116Y23995456D01*
X-7044776Y23995581D01*
X-7009760Y23998646D01*
X-7005392Y23999028D01*
X-6994584Y23999500D01*
X53994584Y23999500D01*
X54005392Y23999028D01*
G37*
%TD.AperFunction*%
%TD*%
M02*
