M48
; DRILL file {KiCad 7.0.1} date Mon Jun 10 22:25:45 2024
; FORMAT={-:-/ absolute / metric / decimal}
; #@! TF.CreationDate,2024-06-10T22:25:45+03:00
; #@! TF.GenerationSoftware,Kicad,Pcbnew,7.0.1
; #@! TF.FileFunction,Plated,1,2,PTH
FMAT,2
METRIC
; #@! TA.AperFunction,Plated,PTH,ViaDrill
T1C0.400
; #@! TA.AperFunction,Plated,PTH,ComponentDrill
T2C0.600
; #@! TA.AperFunction,Plated,PTH,ComponentDrill
T3C0.800
; #@! TA.AperFunction,Plated,PTH,ComponentDrill
T4C2.000
%
G90
G05
T1
X-12.8Y1.0
X-12.8Y-1.4
X-11.3Y6.1
X-11.3Y-6.1
X-10.4Y6.1
X-10.4Y-6.1
X-9.5Y6.1
X-9.5Y-6.1
X-8.6Y6.1
X-8.6Y5.2
X-8.6Y4.3
X-8.6Y3.4
X-8.6Y0.0
X-8.6Y-3.4
X-8.6Y-4.3
X-8.6Y-5.2
X-8.6Y-6.1
X-2.9Y0.7
X-2.9Y-0.8
X-2.7Y7.5
X-2.7Y6.5
X0.8Y8.8
X1.7Y8.8
X2.6Y8.8
X3.6Y-1.0
X5.6Y7.5
X5.6Y6.5
X10.6Y3.0
X10.6Y0.0
X10.6Y-4.0
X19.6Y2.5
X19.6Y-2.1
X34.6Y3.7
T3
X16.3Y2.525
X16.3Y-0.015
X16.3Y-2.555
X23.92Y2.525
X23.92Y-0.015
X23.92Y-2.555
T4
X52.0Y3.0
X52.0Y-3.0
T2
X-15.55Y4.32G85X-16.15Y4.32
G05
X-15.55Y-4.32G85X-16.15Y-4.32
G05
X-11.12Y4.32G85X-12.22Y4.32
G05
X-11.12Y-4.32G85X-12.22Y-4.32
G05
T3
X5.3Y19.15G85X5.3Y16.95
G05
X11.2Y20.85G85X9.0Y20.85
G05
X11.4Y15.05G85X8.8Y15.05
G05
X8.8Y-15.05G85X11.4Y-15.05
G05
X9.0Y-20.85G85X11.2Y-20.85
G05
X14.9Y-19.15G85X14.9Y-16.95
G05
X15.3Y19.15G85X15.3Y16.95
G05
X21.2Y20.85G85X19.0Y20.85
G05
X21.4Y15.05G85X18.8Y15.05
G05
X18.8Y-15.05G85X21.4Y-15.05
G05
X19.0Y-20.85G85X21.2Y-20.85
G05
X24.9Y-19.15G85X24.9Y-16.95
G05
X25.3Y19.15G85X25.3Y16.95
G05
X31.2Y20.85G85X29.0Y20.85
G05
X31.4Y15.05G85X28.8Y15.05
G05
X28.8Y-15.05G85X31.4Y-15.05
G05
X29.0Y-20.85G85X31.2Y-20.85
G05
X34.9Y-19.15G85X34.9Y-16.95
G05
X35.3Y19.15G85X35.3Y16.95
G05
X41.2Y20.85G85X39.0Y20.85
G05
X41.4Y15.05G85X38.8Y15.05
G05
X38.8Y-15.05G85X41.4Y-15.05
G05
X39.0Y-20.85G85X41.2Y-20.85
G05
X44.9Y-19.15G85X44.9Y-16.95
G05
T0
M30
