%TF.GenerationSoftware,KiCad,Pcbnew,7.0.1*%
%TF.CreationDate,2024-06-10T22:25:48+03:00*%
%TF.ProjectId,PedalPower,50656461-6c50-46f7-9765-722e6b696361,rev?*%
%TF.SameCoordinates,Original*%
%TF.FileFunction,Soldermask,Top*%
%TF.FilePolarity,Negative*%
%FSLAX46Y46*%
G04 Gerber Fmt 4.6, Leading zero omitted, Abs format (unit mm)*
G04 Created by KiCad (PCBNEW 7.0.1) date 2024-06-10 22:25:48*
%MOMM*%
%LPD*%
G01*
G04 APERTURE LIST*
G04 Aperture macros list*
%AMRoundRect*
0 Rectangle with rounded corners*
0 $1 Rounding radius*
0 $2 $3 $4 $5 $6 $7 $8 $9 X,Y pos of 4 corners*
0 Add a 4 corners polygon primitive as box body*
4,1,4,$2,$3,$4,$5,$6,$7,$8,$9,$2,$3,0*
0 Add four circle primitives for the rounded corners*
1,1,$1+$1,$2,$3*
1,1,$1+$1,$4,$5*
1,1,$1+$1,$6,$7*
1,1,$1+$1,$8,$9*
0 Add four rect primitives between the rounded corners*
20,1,$1+$1,$2,$3,$4,$5,0*
20,1,$1+$1,$4,$5,$6,$7,0*
20,1,$1+$1,$6,$7,$8,$9,0*
20,1,$1+$1,$8,$9,$2,$3,0*%
G04 Aperture macros list end*
%ADD10R,4.000000X4.000000*%
%ADD11RoundRect,0.150000X-0.512500X-0.150000X0.512500X-0.150000X0.512500X0.150000X-0.512500X0.150000X0*%
%ADD12R,4.400000X1.800000*%
%ADD13O,4.000000X1.800000*%
%ADD14O,1.800000X4.000000*%
%ADD15RoundRect,0.250000X-0.350000X-0.450000X0.350000X-0.450000X0.350000X0.450000X-0.350000X0.450000X0*%
%ADD16RoundRect,0.250000X-0.400000X-0.625000X0.400000X-0.625000X0.400000X0.625000X-0.400000X0.625000X0*%
%ADD17R,1.100000X0.510000*%
%ADD18RoundRect,0.210000X0.840000X1.440000X-0.840000X1.440000X-0.840000X-1.440000X0.840000X-1.440000X0*%
%ADD19R,1.600000X1.600000*%
%ADD20O,1.600000X1.600000*%
%ADD21C,0.650000*%
%ADD22R,1.450000X0.600000*%
%ADD23R,1.450000X0.300000*%
%ADD24O,2.100000X1.000000*%
%ADD25O,1.600000X1.000000*%
%ADD26RoundRect,0.237500X0.287500X0.237500X-0.287500X0.237500X-0.287500X-0.237500X0.287500X-0.237500X0*%
%ADD27RoundRect,0.250000X-0.450000X0.350000X-0.450000X-0.350000X0.450000X-0.350000X0.450000X0.350000X0*%
%ADD28RoundRect,0.250000X0.337500X0.475000X-0.337500X0.475000X-0.337500X-0.475000X0.337500X-0.475000X0*%
%ADD29RoundRect,0.150000X-0.587500X-0.150000X0.587500X-0.150000X0.587500X0.150000X-0.587500X0.150000X0*%
G04 APERTURE END LIST*
D10*
%TO.C,TP2*%
X52000000Y-3000000D03*
%TD*%
D11*
%TO.C,U1*%
X-6837500Y950000D03*
X-6837500Y0D03*
X-6837500Y-950000D03*
X-4562500Y-950000D03*
X-4562500Y0D03*
X-4562500Y950000D03*
%TD*%
D12*
%TO.C,J8*%
X10100000Y15050000D03*
D13*
X10100000Y20850000D03*
D14*
X5300000Y18050000D03*
%TD*%
D12*
%TO.C,J7*%
X30100000Y-15050000D03*
D13*
X30100000Y-20850000D03*
D14*
X34900000Y-18050000D03*
%TD*%
D12*
%TO.C,J9*%
X40100000Y-15050000D03*
D13*
X40100000Y-20850000D03*
D14*
X44900000Y-18050000D03*
%TD*%
D15*
%TO.C,R5*%
X12100000Y-4000000D03*
X14100000Y-4000000D03*
%TD*%
D16*
%TO.C,R7*%
X34625000Y1925000D03*
X37725000Y1925000D03*
%TD*%
D12*
%TO.C,J3*%
X10100000Y-15050000D03*
D13*
X10100000Y-20850000D03*
D14*
X14900000Y-18050000D03*
%TD*%
D17*
%TO.C,U2*%
X4150000Y3525000D03*
X4150000Y4525000D03*
X4150000Y5525000D03*
X4150000Y6525000D03*
X4150000Y7525000D03*
X-950000Y7525000D03*
X-950000Y6525000D03*
X-950000Y5525000D03*
X-950000Y4525000D03*
X-950000Y3525000D03*
D18*
X1600000Y5525000D03*
%TD*%
D19*
%TO.C,SW1*%
X16300000Y2525000D03*
D20*
X16300000Y-15000D03*
X16300000Y-2555000D03*
X23920000Y-2555000D03*
X23920000Y-15000D03*
X23920000Y2525000D03*
%TD*%
D21*
%TO.C,J1*%
X-12200000Y2890000D03*
X-12200000Y-2890000D03*
D22*
X-10755000Y3250000D03*
X-10755000Y2450000D03*
D23*
X-10755000Y1250000D03*
X-10755000Y250000D03*
X-10755000Y-250000D03*
X-10755000Y-1250000D03*
D22*
X-10755000Y-2450000D03*
X-10755000Y-3250000D03*
X-10755000Y-3250000D03*
X-10755000Y-2450000D03*
D23*
X-10755000Y-1750000D03*
X-10755000Y-750000D03*
X-10755000Y750000D03*
X-10755000Y1750000D03*
D22*
X-10755000Y2450000D03*
X-10755000Y3250000D03*
D24*
X-11670000Y4320000D03*
D25*
X-15850000Y4320000D03*
D24*
X-11670000Y-4320000D03*
D25*
X-15850000Y-4320000D03*
%TD*%
D26*
%TO.C,D1*%
X36875000Y-1000000D03*
X35125000Y-1000000D03*
%TD*%
D27*
%TO.C,R1*%
X-4900000Y7600000D03*
X-4900000Y5600000D03*
%TD*%
D12*
%TO.C,J5*%
X20100000Y-15050000D03*
D13*
X20100000Y-20850000D03*
D14*
X24900000Y-18050000D03*
%TD*%
D12*
%TO.C,J2*%
X40100000Y15050000D03*
D13*
X40100000Y20850000D03*
D14*
X35300000Y18050000D03*
%TD*%
D28*
%TO.C,C1*%
X4137500Y1600000D03*
X2062500Y1600000D03*
%TD*%
D10*
%TO.C,TP1*%
X52000000Y3000000D03*
%TD*%
D12*
%TO.C,J4*%
X30100000Y15050000D03*
D13*
X30100000Y20850000D03*
D14*
X25300000Y18050000D03*
%TD*%
D15*
%TO.C,R4*%
X12100000Y0D03*
X14100000Y0D03*
%TD*%
D27*
%TO.C,R6*%
X-3462500Y-6250000D03*
X-3462500Y-8250000D03*
%TD*%
D12*
%TO.C,J6*%
X20100000Y15050000D03*
D13*
X20100000Y20850000D03*
D14*
X15300000Y18050000D03*
%TD*%
D15*
%TO.C,R2*%
X-700000Y10400000D03*
X1300000Y10400000D03*
%TD*%
D29*
%TO.C,Q1*%
X-1000000Y-6300000D03*
X-1000000Y-8200000D03*
X875000Y-7250000D03*
%TD*%
D15*
%TO.C,R3*%
X12100000Y3000000D03*
X14100000Y3000000D03*
%TD*%
M02*
